<svg width="100" height="100" viewBox="0 0 100 100" fill="none" xmlns="http://www.w3.org/2000/svg">
    <path
        d="M52.3054 79.9314C53.1716 79.866 54.0247 79.7613 54.8673 79.6226V77.9792H52.3054V79.9314Z"
        fill="#CCCCCC" />
    <path d="M51.7376 43.9237H48.9193V45.9753H51.7376V43.9237Z" fill="#CCCCCC" />
    <path d="M54.8673 74.1351H52.3054V74.9594H54.8673V74.1351Z" fill="#CCCCCC" />
    <path
        d="M42.9293 79.1804C43.5103 79.3191 44.0938 79.4447 44.6878 79.552V61.1346H42.9293V79.1804Z"
        fill="#CCCCCC" />
    <path d="M54.8673 76.0559H52.3054V76.8802H54.8673V76.0559Z" fill="#CCCCCC" />
    <path d="M54.8673 72.2117H52.3054V73.036H54.8673V72.2117Z" fill="#CCCCCC" />
    <path d="M48.6418 72.3949H45.7869V73.4024H48.6418V72.3949Z" fill="#CCCCCC" />
    <path d="M48.6418 70.2884H45.7869V71.2959H48.6418V70.2884Z" fill="#CCCCCC" />
    <path d="M48.6418 61.1346H45.7869V69.1919H48.6418V61.1346Z" fill="#CCCCCC" />
    <path
        d="M45.7869 79.7247C46.7263 79.8555 47.6788 79.9445 48.6418 79.989V74.5015H45.7869V79.7247Z"
        fill="#CCCCCC" />
    <path
        d="M47.8202 47.0718H45.7869V48.3907H48.8276V49.4897H45.7869V50.6254H48.8276V51.7245H45.7869V52.8602H48.8276V53.9593H45.7869V55.095H48.8276V56.1941H45.7869V57.3298H48.8276V58.4289H45.7869V60.0408H49.7409V80.0204C49.8273 80.0204 49.9136 80.023 50 80.023C50.4056 80.023 50.806 80.0126 51.2063 79.9969V53.2528L54.8673 55.7388V47.077H47.8175L47.8202 47.0718Z"
        fill="#CCCCCC" />
    <path d="M52.3054 69.1919H54.8673V57.0628L52.3054 55.3226V69.1919Z" fill="#CCCCCC" />
    <path
        d="M64.8296 75.7078H65.5048C65.7455 75.5613 65.9837 75.4147 66.2192 75.263V72.3949H64.827V75.7078H64.8296Z"
        fill="#CCCCCC" />
    <path
        d="M67.3182 74.5224C68.6188 73.6013 69.8435 72.5781 70.9818 71.4685V66.5384H69.0401V65.4394H70.9818V63.113H67.3182V74.5224Z"
        fill="#CCCCCC" />
    <path d="M66.2218 70.5998H64.8297V71.2959H66.2218V70.5998Z" fill="#CCCCCC" />
    <path d="M66.2218 63.113H64.8297V67.7081H66.2218V63.113Z" fill="#CCCCCC" />
    <path
        d="M59.4102 78.5131C60.1062 78.2828 60.7892 78.029 61.4618 77.7516V61.535L59.4102 60.1429V78.5131Z"
        fill="#CCCCCC" />
    <path d="M66.2218 68.8073H64.8297V69.5033H66.2218V68.8073Z" fill="#CCCCCC" />
    <path
        d="M55.9664 79.4264C56.7593 79.2668 57.5417 79.0757 58.3111 78.8533V59.3997L55.9664 57.8087V79.4264Z"
        fill="#CCCCCC" />
    <path
        d="M59.4102 58.8161L62.5608 60.9541V77.2727C62.956 77.0895 63.3459 76.9011 63.7332 76.7022V62.0139H66.2244V59.3029H61.1347V58.2038H66.2244V57.5077H61.1347V56.4086H66.2244V55.7126H61.1347V54.6135H66.2244V53.5144H59.4128V58.8135L59.4102 58.8161Z"
        fill="#CCCCCC" />
    <path d="M54.8673 70.2884H52.3054V71.1127H54.8673V70.2884Z" fill="#CCCCCC" />
    <path d="M34.5815 51.3948V54.9825H39.7079V51.3948H39.4358H34.8537H34.5815Z" fill="#CCCCCC" />
    <path
        d="M24.9359 66.5228C25.8675 67.9359 26.9169 69.2626 28.0683 70.4951V61.6895L24.9359 62.9351V66.5228Z"
        fill="#CCCCCC" />
    <path
        d="M50 31.8862C55.7596 31.8862 60.5772 27.7752 61.6711 22.3321C61.043 22.0678 60.4045 21.8245 59.7556 21.6021C58.9784 26.2862 54.9013 29.8713 50 29.8713C45.0986 29.8713 41.0216 26.2862 40.2444 21.6021C39.5954 21.8245 38.9569 22.0678 38.3289 22.3348C39.4253 27.7752 44.2403 31.8862 50 31.8862Z"
        fill="#CCCCCC" />
    <path
        d="M50 28.7722C54.412 28.7722 58.0756 25.5037 58.6984 21.2618C58.052 21.0656 57.3978 20.8902 56.7332 20.7385C56.3537 24.1194 53.4804 26.7572 50 26.7572C46.5196 26.7572 43.6437 24.1194 43.2669 20.7385C42.6022 20.8902 41.948 21.0656 41.3016 21.2618C41.9244 25.5037 45.588 28.7722 50 28.7722Z"
        fill="#CCCCCC" />
    <path
        d="M29.45 71.8794C30.0623 72.4551 30.7008 73.0073 31.3602 73.5307V60.3784L29.45 61.1399V71.8821V71.8794Z"
        fill="#CCCCCC" />
    <path
        d="M50 38.1169C58.0913 38.1169 64.9605 32.789 67.2895 25.4566C66.7164 25.051 66.1302 24.6664 65.5283 24.3026C63.6338 31.0986 57.3926 36.0993 50.0026 36.0993C42.6127 36.0993 36.3715 31.0959 34.4769 24.3026C33.875 24.6664 33.2888 25.051 32.7158 25.4566C35.0447 32.789 41.914 38.1169 50.0052 38.1169H50Z"
        fill="#CCCCCC" />
    <path
        d="M50 35.0003C56.987 35.0003 62.8749 30.2062 64.5471 23.7348C63.9426 23.3998 63.325 23.0858 62.6969 22.7901C61.4095 28.6152 56.2072 32.9853 50 32.9853C43.7929 32.9853 38.5932 28.6152 37.3031 22.7901C36.6751 23.0832 36.0575 23.3998 35.453 23.7348C37.1252 30.2062 43.0131 35.0003 49.9974 35.0003H50Z"
        fill="#CCCCCC" />
    <path
        d="M68.2211 26.1423C65.6461 33.7337 58.4498 39.2134 50 39.2134C41.5502 39.2134 34.3539 33.7337 31.779 26.1423C24.6088 31.6272 19.9796 40.2732 19.9796 49.9974C19.9796 55.3488 21.3822 60.3732 23.8368 64.725V62.1893L28.0683 60.504V57.9447L29.45 57.4554V59.9545L31.3603 59.193V54.9799H33.4851V50.2931H35.3169L36.5966 47.2523V43.8112H37.6956V47.2523L38.9753 50.2931H40.8071V54.9799H42.9319V60.033H44.6905V45.9701H47.8202V42.8194H52.8367V45.9701H55.9664V56.4767L58.3111 58.0677V52.4154H60.9855V47.7469H62.0846V52.4154H67.3209V62.0087H68.8962V59.5777H69.9953V62.0087H72.0835V66.3291H75.1924C78.2462 61.6293 80.023 56.0187 80.023 49.9948C80.023 40.268 75.3965 31.6245 68.2237 26.1396L68.2211 26.1423Z"
        fill="#CCCCCC" />
    <path d="M34.5083 64.4293H32.4567V65.4367H34.5083V64.4293Z" fill="#CCCCCC" />
    <path d="M36.5076 50.2957H37.782L37.1435 48.7805L36.5076 50.2957Z" fill="#CCCCCC" />
    <path d="M72.0809 70.3355C72.9262 69.4196 73.7138 68.4487 74.4413 67.4334H72.0809V70.3355Z"
        fill="#CCCCCC" />
    <path d="M32.4567 63.3328H34.5083V59.1249L32.4567 59.9414V63.3328Z" fill="#CCCCCC" />
    <path d="M34.5083 66.5358H32.4567V67.5433H34.5083V66.5358Z" fill="#CCCCCC" />
    <path
        d="M50 25.6581C52.9518 25.6581 55.3828 23.3946 55.6524 20.5134C54.917 20.3721 54.1712 20.2596 53.4176 20.1758C53.3914 22.0417 51.871 23.5463 50 23.5463C48.1289 23.5463 46.6085 22.0417 46.5824 20.1758C45.8287 20.2622 45.0829 20.3747 44.3476 20.5134C44.6171 23.3946 47.0508 25.6581 50 25.6581Z"
        fill="#CCCCCC" />
    <path
        d="M33.4825 56.0815H32.4567V58.7586L35.6073 57.5051V76.349C36.2066 76.6761 36.8163 76.9823 37.4391 77.2701V60.0356H41.8328V56.0815H33.4825Z"
        fill="#CCCCCC" />
    <path
        d="M32.4567 74.3602C33.1213 74.8391 33.8043 75.2918 34.5083 75.7157V68.6398H32.4567V74.3602Z"
        fill="#CCCCCC" />
    <path
        d="M38.5356 77.7516C39.6059 78.1938 40.7049 78.5759 41.8302 78.8951V72.3975H39.7053V71.2985H41.8302V70.291H39.7053V69.1919H41.8302V68.1844H39.7053V67.0853H41.8302V61.1346H38.5356V77.7516Z"
        fill="#CCCCCC" />
    <path
        d="M50 4.66058C25.0013 4.66058 4.66321 25.0013 4.66321 50C4.66321 74.9987 25.0013 95.3368 50 95.3368C74.9987 95.3368 95.3368 74.9987 95.3368 50C95.3368 25.0013 74.9987 4.66058 50 4.66058ZM50 94.8553C25.2656 94.8553 5.14471 74.7318 5.14471 50C5.14471 25.2682 25.2656 5.1447 50 5.1447C74.7344 5.1447 94.8553 25.2682 94.8553 50C94.8553 74.7318 74.7318 94.8553 50 94.8553Z"
        fill="#CCCCCC" />
    <path
        d="M50 1.49683C23.2559 1.49683 1.49683 23.2559 1.49683 50C1.49683 76.7441 23.2559 98.5032 50 98.5032C76.7441 98.5032 98.5032 76.7441 98.5032 50C98.5032 23.2559 76.7441 1.49683 50 1.49683ZM50 96.5248C24.3471 96.5248 3.47516 75.6529 3.47516 50C3.47516 24.3471 24.3471 3.47516 50 3.47516C75.6529 3.47516 96.5248 24.3471 96.5248 50C96.5248 75.6529 75.6529 96.5248 50 96.5248Z"
        fill="#CCCCCC" />
    <path
        d="M50 0C22.429 0 0 22.429 0 50C0 77.571 22.429 100 50 100C77.571 100 100 77.571 100 50C100 22.429 77.571 0 50 0ZM50 99.5185C22.6959 99.5185 0.481499 77.3041 0.481499 50C0.481499 22.6959 22.6959 0.481499 50 0.481499C77.3041 0.481499 99.5185 22.6959 99.5185 50C99.5185 77.3041 77.3041 99.5185 50 99.5185Z"
        fill="#CCCCCC" />
    <path
        d="M53.0565 18.5979C52.049 18.5011 51.031 18.4487 49.9974 18.4487C48.9637 18.4487 47.9458 18.5011 46.9409 18.5979C30.9729 20.1418 18.4487 33.6343 18.4487 50C18.4487 67.3968 32.6032 81.5513 50 81.5513C67.3968 81.5513 81.5513 67.3968 81.5513 50C81.5513 33.6343 69.027 20.1418 53.0591 18.5979H53.0565ZM50 81.0671C32.8675 81.0671 18.9302 67.1298 18.9302 49.9974C18.9302 33.9692 31.1326 20.7358 46.7342 19.1003C47.8071 18.9878 48.8957 18.9302 50 18.9302C51.1043 18.9302 52.1929 18.9878 53.2658 19.1003C68.8674 20.7385 81.0698 33.9692 81.0698 49.9974C81.0698 67.1298 67.1325 81.0671 50 81.0671Z"
        fill="#CCCCCC" />
</svg>
    