<svg width="61" height="57" viewBox="0 0 61 57" fill="none" xmlns="http://www.w3.org/2000/svg">
<path fill-rule="evenodd" clip-rule="evenodd" d="M7.65117 46.5535H5.33091V47.472H7.46193V48.2476H5.33091V49.3761H7.75409V50.1524H4.43603V45.7799H7.65117V46.5535ZM10.5852 48.9633L11.0238 49.3764C10.8712 49.4546 10.702 49.4946 10.5306 49.4932C10.0371 49.4932 9.34248 49.1892 9.34248 47.9655C9.34248 46.7418 10.0371 46.4378 10.5306 46.4378C11.0238 46.4378 11.7177 46.7418 11.7177 47.9655C11.7177 48.3753 11.6386 48.678 11.517 48.9045L11.0542 48.4724L10.5852 48.9633ZM12.6498 49.9732L12.1736 49.5251C12.4416 49.1836 12.6312 48.6845 12.6312 47.9658C12.6312 45.9142 11.1088 45.6652 10.5303 45.6652C9.95208 45.6652 8.43032 45.9142 8.43032 47.9658C8.43032 50.0186 9.95208 50.2671 10.5303 50.2671C10.7852 50.2671 11.2362 50.2194 11.6503 49.9735L12.1687 50.4684L12.6498 49.9732ZM16.93 48.6238C16.93 49.7729 16.2349 50.2667 15.1328 50.2667C14.7314 50.2667 14.1347 50.1697 13.745 49.7376C13.5077 49.4716 13.4162 49.1153 13.4045 48.678V45.7799H14.3359V48.6162C14.3359 49.2271 14.6889 49.4935 15.1145 49.4935C15.7423 49.4935 15.9972 49.1895 15.9972 48.6597V45.7799H16.9304L16.93 48.6238ZM19.3764 46.7667H19.3899L19.9307 48.4959H18.8149L19.3764 46.7667ZM18.5711 49.2486H20.1853L20.4658 50.1527H21.4584L19.919 45.7799H18.8649L17.3062 50.1527H18.2682L18.5711 49.2486ZM23.0841 49.3611H25.2575V50.1524H22.1696V45.7799H23.0841V49.3611ZM28.7207 48.19V50.1524H27.8089V45.7799H28.7207V47.4356H30.4262V45.7799H31.3384V50.1524H30.4262V48.19H28.7207ZM33.0791 47.9655C33.0791 46.7418 33.7743 46.4378 34.2659 46.4378C34.7601 46.4378 35.4546 46.7418 35.4546 47.9655C35.4546 49.1892 34.7601 49.4932 34.2659 49.4932C33.7743 49.4932 33.0791 49.1892 33.0791 47.9655ZM32.1669 47.9655C32.1669 50.0183 33.69 50.2667 34.2659 50.2667C34.8467 50.2667 36.3681 50.0183 36.3681 47.9655C36.3681 45.9139 34.847 45.6649 34.2659 45.6649C33.6903 45.6649 32.1669 45.9139 32.1669 47.9655ZM40.7281 48.6238C40.7281 49.7729 40.0329 50.2667 38.9305 50.2667C38.5285 50.2667 37.9333 50.1697 37.5421 49.7376C37.3052 49.4716 37.2133 49.1153 37.2025 48.678V45.7799H38.1327V48.6162C38.1327 49.2271 38.487 49.4935 38.9142 49.4935C39.5411 49.4935 39.7963 49.1895 39.7963 48.6597V45.7799H40.7284L40.7281 48.6238ZM42.3992 48.8054C42.4074 49.0486 42.53 49.512 43.3268 49.512C43.7582 49.512 44.2403 49.4088 44.2403 48.9447C44.2403 48.6051 43.9115 48.5126 43.4493 48.4034L42.9801 48.2936C42.2715 48.1295 41.5903 47.9733 41.5903 47.0111C41.5903 46.5235 41.8541 45.6649 43.2719 45.6649C44.6125 45.6649 44.9711 46.5408 44.9776 47.0768H44.0998C44.0763 46.8833 44.0027 46.4192 43.2049 46.4192C42.8588 46.4192 42.4446 46.547 42.4446 46.9428C42.4446 47.2856 42.7248 47.356 42.9055 47.3987L43.9723 47.6606C44.5692 47.8073 45.1162 48.0511 45.1162 48.8358C45.1162 50.1527 43.7775 50.2671 43.3935 50.2671C41.7995 50.2671 41.5256 49.3473 41.5256 48.8057L42.3992 48.8054ZM46.7779 50.1524H45.8674V45.7799H46.7779V50.1524ZM50.4267 45.7799H51.2781V50.1524H50.3659L48.583 47.0333H48.5677V50.1524H47.7162V45.7799H48.6781L50.4114 48.8247H50.4267V45.7799ZM54.3347 47.7955H56.1597V50.1524H55.5522L55.461 49.6046C55.2299 49.87 54.8949 50.2664 54.0968 50.2664C53.044 50.2664 52.089 49.5117 52.089 47.9779C52.089 46.7856 52.7528 45.658 54.2242 45.6646C55.5659 45.6646 56.096 46.5339 56.1418 47.1392H55.2296C55.2296 46.9683 54.9181 46.4192 54.2739 46.4192C53.6209 46.4192 53.0189 46.8693 53.0189 47.989C53.0189 49.1833 53.6706 49.4932 54.2912 49.4932C54.4922 49.4932 55.1639 49.4153 55.3508 48.5312H54.3347V47.7955ZM5.15507 54.6075C5.15507 53.3838 5.84895 53.0786 6.34149 53.0786C6.83469 53.0786 7.52824 53.3838 7.52824 54.6075C7.52824 55.8305 6.83469 56.1371 6.34149 56.1371C5.84895 56.1371 5.15507 55.8305 5.15507 54.6075ZM4.24188 54.6075C4.24188 56.6584 5.76364 56.9113 6.34181 56.9113C6.92029 56.9113 8.44205 56.6587 8.44205 54.6075C8.44205 52.5562 6.91997 52.3069 6.34181 52.3069C5.76364 52.3069 4.24188 52.5566 4.24188 54.6075ZM10.9443 54.4607V53.1749H11.6689C12.2347 53.1749 12.4726 53.3531 12.4726 53.7796C12.4726 53.9744 12.4726 54.4607 11.7902 54.4607H10.9443ZM10.9443 55.217H11.9909C13.1665 55.217 13.3849 54.2172 13.3849 53.8221C13.3849 52.9641 12.8747 52.4215 12.0275 52.4215H10.0315V56.7944H10.9443V55.217ZM15.8633 54.4607V53.1749H16.5865C17.153 53.1749 17.3906 53.3531 17.3906 53.7796C17.3906 53.9744 17.3906 54.4607 16.7098 54.4607H15.8633ZM15.8633 55.217H16.9104C18.0851 55.217 18.3051 54.2172 18.3051 53.8221C18.3051 52.9641 17.7942 52.4215 16.9477 52.4215H14.9497V56.7944H15.8633V55.217ZM20.5887 54.6075C20.5887 53.3838 21.2809 53.0786 21.7761 53.0786C22.267 53.0786 22.9625 53.3838 22.9625 54.6075C22.9625 55.8305 22.2673 56.1371 21.7761 56.1371C21.2809 56.1371 20.5887 55.8305 20.5887 54.6075ZM19.6752 54.6075C19.6752 56.6584 21.1966 56.9113 21.7761 56.9113C22.3529 56.9113 23.8747 56.6587 23.8747 54.6075C23.8747 52.5562 22.3529 52.3069 21.7761 52.3069C21.1966 52.3069 19.6752 52.5566 19.6752 54.6075ZM26.3607 54.3456V53.1749H27.4977C28.0337 53.1749 28.1363 53.5178 28.1363 53.7489C28.1363 54.1816 27.9059 54.3456 27.4307 54.3456H26.3607ZM25.4632 56.7947H26.3607V55.0834H27.3026C27.9791 55.0834 28.0164 55.3138 28.0164 55.9106C28.0164 56.36 28.0507 56.5851 28.1118 56.7947H29.1234V56.6766C28.9286 56.6044 28.9286 56.4456 28.9286 55.8086C28.9286 54.9902 28.7338 54.8575 28.3749 54.6987C28.807 54.5539 29.0495 54.1388 29.0495 53.6586C29.0495 53.2802 28.8377 52.4223 27.6745 52.4223H25.4628L25.4632 56.7947ZM32.4523 56.7947H31.5394V53.1955H30.2189V52.4219H33.7743V53.1955H32.4523V56.7947ZM38.6753 55.2644C38.6753 56.4149 37.9814 56.9113 36.8783 56.9113C36.4785 56.9113 35.8818 56.8097 35.4912 56.3783C35.2536 56.1116 35.1624 55.7579 35.1516 55.32V52.4219H36.0818V55.2582C36.0818 55.8671 36.4355 56.1371 36.8613 56.1371C37.4882 56.1371 37.7434 55.8305 37.7434 55.3014V52.4215H38.6756V55.2644H38.6753ZM43.0944 52.4219H43.9485V56.7947H43.0333L41.2491 53.6756H41.2393V56.7947H40.3853V52.4219H41.3472L43.0836 55.4654H43.0944V52.4219ZM46.5249 56.7947H45.6088V52.4219H46.5249V56.7947ZM50.0901 56.7947H49.1772V53.1955H47.8584V52.4219H51.4121V53.1955H50.0901V56.7947ZM54.8645 56.7947H53.9497V55.1438L52.4413 52.4219H53.5183L54.4253 54.3222L55.292 52.4219H56.3255L54.8645 55.1546V56.7947ZM30.2791 0.236328L0.84375 14.7338V21.5439H4.13828V41.9719H56.1983V21.5439H60.1544V14.7338L30.2791 0.236328ZM49.829 35.8195H10.5087V17.1502L30.2791 7.04635L49.8293 17.1502V35.8195H49.829Z" fill="white"/>
<path fill-rule="evenodd" clip-rule="evenodd" d="M39.2847 23.7383H21.0547V17.1499H39.2847V23.7383ZM39.2847 33.1878H21.0547V26.5952H39.2847V33.1878Z" fill="white"/>
</svg>
