<svg width="37" height="38" viewBox="0 0 37 38" fill="none" xmlns="http://www.w3.org/2000/svg">
<path d="M36.0576 37.091V7.84089H29.3591C28.9457 7.84089 28.6175 7.51265 28.6175 7.0993V0.716797H0.716797V37.091H36.0698H36.0576Z" fill="#68ADEA"/>
<path d="M28.1316 16.7886C32.5697 16.7886 36.1675 13.1908 36.1675 8.75267C36.1675 4.31458 32.5697 0.716797 28.1316 0.716797C23.6935 0.716797 20.0957 4.31458 20.0957 8.75267C20.0957 13.1908 23.6935 16.7886 28.1316 16.7886Z" fill="#F9AF38"/>
<path d="M22.8193 16.7891H32.6302L36.0585 20.1566V37.0794H27.4512V20.7766L22.8193 16.7891Z" fill="#63DBB3"/>
<path d="M19.6822 0.716797L19.6579 25.0676L14.8315 18.758H10.2969V0.716797H19.6822Z" fill="#2F7DD1"/>
<path d="M14.7097 31.2441H6.07812V37.0796H14.7097V31.2441Z" fill="#E82871"/>
<path d="M6.06594 18.7588L0.716797 24.1201V37.0796H6.09026V31.2442L10.5398 24.9954L6.06594 18.7588Z" fill="#63DBB3"/>
<path d="M23.0133 29.2626L19.6579 25.0684L16.2904 29.2626L14.71 31.2442V37.0796H24.5937V31.2442L23.0133 29.2626Z" fill="#63DBB3"/>
<path d="M6.05379 18.7582V5.53125H0.716797V24.1195L6.05379 18.7582Z" fill="#E82871"/>
<path d="M6.05469 18.7588H14.8322L19.6585 25.0684L14.6863 31.2442H6.079L10.5407 24.9954L6.05469 18.7588Z" fill="#F9AF38"/>
<path d="M36.6173 7.12409C35.9244 3.46479 32.958 0.607859 29.238 0.0851016C28.9097 0.0364729 28.5815 0 28.2532 0C28.1803 0 0.705113 0 0.705113 0C0.316085 0 0 0.328246 0 0.717275V37.0672C0 37.4076 0.243143 37.7115 0.571386 37.7723C0.5957 37.7723 0.680799 37.7844 0.705113 37.7844H36.0581C36.4593 37.7844 36.7754 37.4683 36.7754 37.0672V8.741C36.7754 8.18177 36.7146 7.64685 36.6173 7.11193V7.12409ZM20.3875 1.43455H23.2323C22.0531 2.2126 21.0683 3.25812 20.3754 4.49815V1.43455H20.3875ZM20.3754 12.996C21.0683 14.236 22.0531 15.2937 23.2323 16.0718H22.8068C22.5758 16.0718 22.357 16.1933 22.2233 16.3757L20.3632 18.3087V13.0082L20.3754 12.996ZM11.0022 1.43455H18.9652L18.9408 20.0715V22.9649L15.391 18.3208C15.2572 18.1385 15.0506 18.0412 14.8196 18.0412H10.9901V1.43455H11.0022ZM1.43454 1.43455H8.70452L5.71386 4.82639H1.43454V1.43455ZM1.43454 6.24878H5.32483V18.4667L1.43454 22.3935V6.26093V6.24878ZM5.48288 30.8549C5.45856 30.8913 5.43425 30.94 5.40993 30.9886C5.40993 31.0007 5.40993 31.0129 5.40993 31.0251C5.39778 31.0737 5.38562 31.1102 5.38562 31.1588C5.38562 31.1709 5.38562 31.1831 5.38562 31.2074C5.38562 31.2074 5.38562 31.2317 5.38562 31.2439V36.3621H1.47101V24.3994L5.99348 19.8526L9.68925 24.9951L9.43395 25.3598L5.53151 30.8427C5.53151 30.8427 5.5315 30.867 5.51935 30.867L5.48288 30.8549ZM13.9929 36.3621H6.79585V31.9612H13.9929V36.3621ZM7.46449 30.5266L9.64062 27.4752L11.1238 25.3963C11.2575 25.2139 11.294 24.9708 11.2211 24.7641C11.1967 24.6912 11.1603 24.6304 11.1238 24.5696L7.46449 19.4636H14.4913L18.7585 25.0559L14.3576 30.5266H7.47665H7.46449ZM23.8766 36.3621H21.6397H15.4153V31.487L19.646 26.1987L19.8283 26.4297L22.4421 29.6999L23.8645 31.487V36.3499L23.8766 36.3621ZM35.3408 36.3621H28.1681V20.7766C28.1681 20.5699 28.0709 20.3632 27.9128 20.2295L24.752 17.5185H32.3259L35.3287 20.4726V36.3742L35.3408 36.3621ZM35.3408 18.4424L33.1282 16.2784C33.031 16.1812 32.9094 16.1204 32.7878 16.0961C33.809 15.4274 34.6722 14.5764 35.3408 13.5552V18.4424ZM28.3626 16.0718H27.6697C23.7916 15.8894 20.6915 12.6799 20.6915 8.75315C20.6915 4.82639 23.8523 1.55612 27.7913 1.43455C27.8642 1.43455 27.9371 1.43455 28.0101 1.43455C28.5572 1.43455 29.1042 1.49533 29.6148 1.6169C32.2651 2.2126 34.3804 4.25501 35.0855 6.85664C35.2071 7.31861 35.2922 7.79274 35.3165 8.27902C35.3165 8.43707 35.3287 8.59511 35.3287 8.75315C35.3287 12.6799 32.2286 15.8894 28.3505 16.0718H28.3626Z" fill="#172458"/>
<path d="M9.67727 33.4443H8.25488V34.8667H9.67727V33.4443Z" fill="#172458"/>
<path d="M12.5337 33.4443H11.1113V34.8667H12.5337V33.4443Z" fill="#172458"/>
<path d="M19.646 31.3408C19.257 31.3408 18.9287 31.6691 18.9287 32.0581V33.517H20.3511V32.0702C20.3511 31.6691 20.035 31.3408 19.6338 31.3408H19.646Z" fill="#172458"/>
<path d="M18.9404 34.9391V36.6289H20.3628V34.9391H18.9404Z" fill="#172458"/>
<path d="M4.29153 24.8975H2.86914V26.3198H4.29153V24.8975Z" fill="#172458"/>
<path d="M7.13625 24.8975H5.71387V26.3198H7.13625V24.8975Z" fill="#172458"/>
<path d="M32.4351 32.0957H31.0127V33.5181H32.4351V32.0957Z" fill="#172458"/>
<path d="M32.4351 28.7646H31.0127V30.187H32.4351V28.7646Z" fill="#172458"/>
<path d="M32.4351 25.4453H31.0127V26.8677H32.4351V25.4453Z" fill="#172458"/>
<path d="M32.4351 22.1143H31.0127V23.5366H32.4351V22.1143Z" fill="#172458"/>
<path d="M14.4546 15.1475H13.0322V16.5698H14.4546V15.1475Z" fill="#172458"/>
<path d="M17.4087 15.1475H15.9863V16.5698H17.4087V15.1475Z" fill="#172458"/>
<path d="M14.4546 11.0869H13.0322V12.5093H14.4546V11.0869Z" fill="#172458"/>
<path d="M17.4087 11.0869H15.9863V12.5093H17.4087V11.0869Z" fill="#172458"/>
<path d="M14.4546 7.02637H13.0322V8.44875H14.4546V7.02637Z" fill="#172458"/>
<path d="M17.4087 7.02637H15.9863V8.44875H17.4087V7.02637Z" fill="#172458"/>
<path d="M14.4546 2.9541H13.0322V4.37649H14.4546V2.9541Z" fill="#172458"/>
<path d="M17.4087 2.9541H15.9863V4.37649H17.4087V2.9541Z" fill="#172458"/>
</svg>
