<?xml version="1.0" encoding="utf-8"?>
<!-- Generator: Adobe Illustrator 19.2.1, SVG Export Plug-In . SVG Version: 6.00 Build 0)  -->
<svg version="1.1" id="Layer_1" xmlns="http://www.w3.org/2000/svg" xmlns:xlink="http://www.w3.org/1999/xlink" x="0px" y="0px"
	 viewBox="0 0 230 230" style="enable-background:new 0 0 230 230;" xml:space="preserve">
<style type="text/css">
	.st0{clip-path:url(#SVGID_2_);}
	.st1{clip-path:url(#SVGID_4_);fill:#F6F6F6;}
	.st2{clip-path:url(#SVGID_6_);}
	.st3{clip-path:url(#SVGID_8_);fill:#C2E9F9;}
	.st4{clip-path:url(#SVGID_10_);fill:none;stroke:#545E65;stroke-miterlimit:10;}
	.st5{clip-path:url(#SVGID_12_);}
	.st6{clip-path:url(#SVGID_14_);fill:#F6F6F6;}
	.st7{clip-path:url(#SVGID_16_);fill:none;stroke:#545E65;stroke-width:2;stroke-miterlimit:10;}
	.st8{clip-path:url(#SVGID_18_);}
	.st9{clip-path:url(#SVGID_20_);fill:#F6F6F6;}
	.st10{clip-path:url(#SVGID_22_);fill:none;stroke:#545E65;stroke-width:4;stroke-miterlimit:10;}
	.st11{clip-path:url(#SVGID_24_);}
	.st12{clip-path:url(#SVGID_26_);fill:#F6F6F6;}
	.st13{clip-path:url(#SVGID_28_);}
	.st14{clip-path:url(#SVGID_30_);fill:#C2E9F9;}
	.st15{clip-path:url(#SVGID_32_);fill:none;stroke:#545E65;stroke-width:2;stroke-miterlimit:10;}
	.st16{clip-path:url(#SVGID_34_);}
	.st17{clip-path:url(#SVGID_36_);fill:#F6F6F6;}
	.st18{clip-path:url(#SVGID_38_);}
	.st19{clip-path:url(#SVGID_40_);fill:#FCF9DE;}
	.st20{clip-path:url(#SVGID_42_);fill:none;stroke:#545E65;stroke-width:2;stroke-miterlimit:10;}
	.st21{clip-path:url(#SVGID_44_);}
	.st22{clip-path:url(#SVGID_46_);fill:#F6F6F6;}
	.st23{clip-path:url(#SVGID_48_);}
	.st24{clip-path:url(#SVGID_50_);fill:#C2E9F9;}
	.st25{clip-path:url(#SVGID_52_);fill:none;stroke:#545E65;stroke-width:2;stroke-miterlimit:10;}
	.st26{clip-path:url(#SVGID_54_);}
	.st27{clip-path:url(#SVGID_56_);fill:#F6F6F6;}
	.st28{clip-path:url(#SVGID_58_);}
	.st29{clip-path:url(#SVGID_60_);fill:#C2E9F9;}
	.st30{clip-path:url(#SVGID_62_);fill:none;stroke:#545E65;stroke-width:2;stroke-miterlimit:10;}
	.st31{clip-path:url(#SVGID_62_);fill:none;stroke:#545E65;stroke-width:4;stroke-miterlimit:10;}
	.st32{clip-path:url(#SVGID_64_);}
	.st33{clip-path:url(#SVGID_66_);fill:#FF5C47;}
	.st34{clip-path:url(#SVGID_68_);}
	.st35{clip-path:url(#SVGID_70_);fill:#C2E9F9;}
	.st36{clip-path:url(#SVGID_72_);}
	.st37{clip-path:url(#SVGID_74_);fill:#545E65;}
</style>
<g>
	<defs>
		<path id="SVGID_1_" d="M31.5,167c-1.1,0-2-0.9-2-2V63c0-1.1,0.9-2,2-2h59.2l14.8,13.8V165c0,1.1-0.9,2-2,2H31.5z"/>
	</defs>
	<clipPath id="SVGID_2_">
		<use xlink:href="#SVGID_1_"  style="overflow:visible;"/>
	</clipPath>
	<g class="st0">
		<defs>
			<rect id="SVGID_3_" x="-582.5" y="-1476" width="1400" height="2410"/>
		</defs>
		<clipPath id="SVGID_4_">
			<use xlink:href="#SVGID_3_"  style="overflow:visible;"/>
		</clipPath>
		<rect x="24.5" y="56" class="st1" width="86" height="116"/>
	</g>
</g>
<g>
	<defs>
		<path id="SVGID_5_" d="M90,58.5v12c0,2.2,1.8,4,4,4h12"/>
	</defs>
	<clipPath id="SVGID_6_">
		<use xlink:href="#SVGID_5_"  style="overflow:visible;"/>
	</clipPath>
	<g class="st2">
		<defs>
			<rect id="SVGID_7_" x="-582.5" y="-1476" width="1400" height="2410"/>
		</defs>
		<clipPath id="SVGID_8_">
			<use xlink:href="#SVGID_7_"  style="overflow:visible;"/>
		</clipPath>
		<rect x="85" y="53.5" class="st3" width="26" height="26"/>
	</g>
</g>
<g>
	<defs>
		<rect id="SVGID_9_" x="-582.5" y="-1476" width="1400" height="2410"/>
	</defs>
	<clipPath id="SVGID_10_">
		<use xlink:href="#SVGID_9_"  style="overflow:visible;"/>
	</clipPath>
	<path class="st4" d="M90,58.5v12c0,2.2,1.8,4,4,4h12"/>
</g>
<g>
	<defs>
		<path id="SVGID_11_" d="M92.5,70.5v-9.8l-2-2v11.8c0,1.9,1.6,3.5,3.5,3.5h2C94.1,74,92.5,72.4,92.5,70.5"/>
	</defs>
	<clipPath id="SVGID_12_">
		<use xlink:href="#SVGID_11_"  style="overflow:visible;"/>
	</clipPath>
	<g class="st5">
		<defs>
			<rect id="SVGID_13_" x="-582.5" y="-1476" width="1400" height="2410"/>
		</defs>
		<clipPath id="SVGID_14_">
			<use xlink:href="#SVGID_13_"  style="overflow:visible;"/>
		</clipPath>
		<rect x="85.5" y="53.7" class="st6" width="15.5" height="25.3"/>
	</g>
</g>
<g>
	<defs>
		<rect id="SVGID_15_" x="-582.5" y="-1476" width="1400" height="2410"/>
	</defs>
	<clipPath id="SVGID_16_">
		<use xlink:href="#SVGID_15_"  style="overflow:visible;"/>
	</clipPath>
	<path class="st7" d="M102.5,168h-72c-2.2,0-4-1.8-4-4V62c0-2.2,1.8-4,4-4h60l16,16v90C106.5,166.2,104.7,168,102.5,168z"/>
</g>
<g>
	<defs>
		<polygon id="SVGID_17_" points="43.5,222 43.5,118.8 120.5,77 197.5,118.8 197.5,222 		"/>
	</defs>
	<clipPath id="SVGID_18_">
		<use xlink:href="#SVGID_17_"  style="overflow:visible;"/>
	</clipPath>
	<g class="st8">
		<defs>
			<rect id="SVGID_19_" x="-582.5" y="-1476" width="1400" height="2410"/>
		</defs>
		<clipPath id="SVGID_20_">
			<use xlink:href="#SVGID_19_"  style="overflow:visible;"/>
		</clipPath>
		<rect x="38.5" y="72" class="st9" width="164" height="155"/>
	</g>
</g>
<g>
	<defs>
		<rect id="SVGID_21_" x="-582.5" y="-1476" width="1400" height="2410"/>
	</defs>
	<clipPath id="SVGID_22_">
		<use xlink:href="#SVGID_21_"  style="overflow:visible;"/>
	</clipPath>
	<polygon class="st10" points="49.5,216 49.5,122.4 120.5,83.9 191.5,122.4 191.5,216 	"/>
</g>
<g>
	<defs>
		<polygon id="SVGID_23_" points="190.5,135 50.5,135 50.5,123 120.5,85 190.5,123 		"/>
	</defs>
	<clipPath id="SVGID_24_">
		<use xlink:href="#SVGID_23_"  style="overflow:visible;"/>
	</clipPath>
	<g class="st11">
		<defs>
			<rect id="SVGID_25_" x="-582.5" y="-1476" width="1400" height="2410"/>
		</defs>
		<clipPath id="SVGID_26_">
			<use xlink:href="#SVGID_25_"  style="overflow:visible;"/>
		</clipPath>
		<rect x="45.5" y="80" class="st12" width="150" height="60"/>
	</g>
</g>
<g>
	<defs>
		<polygon id="SVGID_27_" points="55.5,134 55.5,125.2 123.5,88.3 191.5,125.2 191.5,134 		"/>
	</defs>
	<clipPath id="SVGID_28_">
		<use xlink:href="#SVGID_27_"  style="overflow:visible;"/>
	</clipPath>
	<g class="st13">
		<defs>
			<rect id="SVGID_29_" x="-582.5" y="-1476" width="1400" height="2410"/>
		</defs>
		<clipPath id="SVGID_30_">
			<use xlink:href="#SVGID_29_"  style="overflow:visible;"/>
		</clipPath>
		<rect x="50.5" y="83.3" class="st14" width="146" height="55.7"/>
	</g>
</g>
<g>
	<defs>
		<rect id="SVGID_31_" x="-582.5" y="-1476" width="1400" height="2410"/>
	</defs>
	<clipPath id="SVGID_32_">
		<use xlink:href="#SVGID_31_"  style="overflow:visible;"/>
	</clipPath>
	<polygon class="st15" points="190.5,135 50.5,135 50.5,123 120.5,85 190.5,123 	"/>
</g>
<g>
	<defs>
		<path id="SVGID_33_" d="M176.5,179h-112c-2.2,0-4-1.8-4-4v-72c0-2.2,1.8-4,4-4h112c2.2,0,4,1.8,4,4v72
			C180.5,177.2,178.7,179,176.5,179"/>
	</defs>
	<clipPath id="SVGID_34_">
		<use xlink:href="#SVGID_33_"  style="overflow:visible;"/>
	</clipPath>
	<g class="st16">
		<defs>
			<rect id="SVGID_35_" x="-582.5" y="-1476" width="1400" height="2410"/>
		</defs>
		<clipPath id="SVGID_36_">
			<use xlink:href="#SVGID_35_"  style="overflow:visible;"/>
		</clipPath>
		<rect x="55.5" y="94" class="st17" width="130" height="90"/>
	</g>
</g>
<g>
	<defs>
		<path id="SVGID_37_" d="M67.5,180c-1.1,0-2-0.9-2-2v-72c0-1.1,0.9-2,2-2h112c1.1,0,2,0.9,2,2v72c0,1.1-0.9,2-2,2H67.5z"/>
	</defs>
	<clipPath id="SVGID_38_">
		<use xlink:href="#SVGID_37_"  style="overflow:visible;"/>
	</clipPath>
	<g class="st18">
		<defs>
			<rect id="SVGID_39_" x="-582.5" y="-1476" width="1400" height="2410"/>
		</defs>
		<clipPath id="SVGID_40_">
			<use xlink:href="#SVGID_39_"  style="overflow:visible;"/>
		</clipPath>
		<rect x="60.5" y="99" class="st19" width="126" height="86"/>
	</g>
</g>
<g>
	<defs>
		<rect id="SVGID_41_" x="-582.5" y="-1476" width="1400" height="2410"/>
	</defs>
	<clipPath id="SVGID_42_">
		<use xlink:href="#SVGID_41_"  style="overflow:visible;"/>
	</clipPath>
	<path class="st20" d="M176.5,179h-112c-2.2,0-4-1.8-4-4v-72c0-2.2,1.8-4,4-4h112c2.2,0,4,1.8,4,4v72
		C180.5,177.2,178.7,179,176.5,179z"/>
</g>
<g>
	<defs>
		<polygon id="SVGID_43_" points="60.5,135 190.5,205 190.5,215 50.5,215 50.5,135 		"/>
	</defs>
	<clipPath id="SVGID_44_">
		<use xlink:href="#SVGID_43_"  style="overflow:visible;"/>
	</clipPath>
	<g class="st21">
		<defs>
			<rect id="SVGID_45_" x="-582.5" y="-1476" width="1400" height="2410"/>
		</defs>
		<clipPath id="SVGID_46_">
			<use xlink:href="#SVGID_45_"  style="overflow:visible;"/>
		</clipPath>
		<rect x="45.5" y="130" class="st22" width="150" height="90"/>
	</g>
</g>
<g>
	<defs>
		<polygon id="SVGID_47_" points="55.5,215 190.5,215 190.5,210.7 63,142 55.5,142 		"/>
	</defs>
	<clipPath id="SVGID_48_">
		<use xlink:href="#SVGID_47_"  style="overflow:visible;"/>
	</clipPath>
	<g class="st23">
		<defs>
			<rect id="SVGID_49_" x="-582.5" y="-1476" width="1400" height="2410"/>
		</defs>
		<clipPath id="SVGID_50_">
			<use xlink:href="#SVGID_49_"  style="overflow:visible;"/>
		</clipPath>
		<rect x="50.5" y="137" class="st24" width="145" height="83"/>
	</g>
</g>
<g>
	<defs>
		<rect id="SVGID_51_" x="-582.5" y="-1476" width="1400" height="2410"/>
	</defs>
	<clipPath id="SVGID_52_">
		<use xlink:href="#SVGID_51_"  style="overflow:visible;"/>
	</clipPath>
	<polygon class="st25" points="60.5,135 190.5,205 190.5,215 50.5,215 50.5,135 	"/>
</g>
<g>
	<defs>
		<polygon id="SVGID_53_" points="180.5,135 50.5,205 50.5,215 190.5,215 190.5,135 		"/>
	</defs>
	<clipPath id="SVGID_54_">
		<use xlink:href="#SVGID_53_"  style="overflow:visible;"/>
	</clipPath>
	<g class="st26">
		<defs>
			<rect id="SVGID_55_" x="-582.5" y="-1476" width="1400" height="2410"/>
		</defs>
		<clipPath id="SVGID_56_">
			<use xlink:href="#SVGID_55_"  style="overflow:visible;"/>
		</clipPath>
		<rect x="45.5" y="130" class="st27" width="150" height="90"/>
	</g>
</g>
<g>
	<defs>
		<polygon id="SVGID_57_" points="189.5,214 54.5,214 54.5,209.7 182,141 189.5,141 		"/>
	</defs>
	<clipPath id="SVGID_58_">
		<use xlink:href="#SVGID_57_"  style="overflow:visible;"/>
	</clipPath>
	<g class="st28">
		<defs>
			<rect id="SVGID_59_" x="-582.5" y="-1476" width="1400" height="2410"/>
		</defs>
		<clipPath id="SVGID_60_">
			<use xlink:href="#SVGID_59_"  style="overflow:visible;"/>
		</clipPath>
		<rect x="49.5" y="136" class="st29" width="145" height="83"/>
	</g>
</g>
<g>
	<defs>
		<rect id="SVGID_61_" x="-582.5" y="-1476" width="1400" height="2410"/>
	</defs>
	<clipPath id="SVGID_62_">
		<use xlink:href="#SVGID_61_"  style="overflow:visible;"/>
	</clipPath>
	<polygon class="st30" points="180.5,135 50.5,205 50.5,215 190.5,215 190.5,135 	"/>
	<line class="st30" x1="133.1" y1="174.1" x2="179.4" y2="199"/>
	<line class="st31" x1="95.5" y1="123" x2="116.5" y2="123"/>
	<line class="st31" x1="95.5" y1="135" x2="146.5" y2="135"/>
	<line class="st31" x1="95.5" y1="147" x2="126.5" y2="147"/>
</g>
<g>
	<defs>
		<path id="SVGID_63_" d="M158.5,13.8c-2.8,0-5-2.2-5-5c0,2.8-2.2,5-5,5c2.8,0,5,2.2,5,5C153.5,16,155.7,13.8,158.5,13.8"/>
	</defs>
	<clipPath id="SVGID_64_">
		<use xlink:href="#SVGID_63_"  style="overflow:visible;"/>
	</clipPath>
	<g class="st32">
		<defs>
			<rect id="SVGID_65_" x="-582.5" y="-1476" width="1400" height="2410"/>
		</defs>
		<clipPath id="SVGID_66_">
			<use xlink:href="#SVGID_65_"  style="overflow:visible;"/>
		</clipPath>
		<rect x="143.5" y="3.8" class="st33" width="20" height="20"/>
	</g>
</g>
<g>
	<defs>
		<path id="SVGID_67_" d="M162.3,58.7c-3.3,0-6-2.7-6-6c0,3.3-2.7,6-6,6c3.3,0,6,2.7,6,6C156.3,61.4,158.9,58.7,162.3,58.7"/>
	</defs>
	<clipPath id="SVGID_68_">
		<use xlink:href="#SVGID_67_"  style="overflow:visible;"/>
	</clipPath>
	<g class="st34">
		<defs>
			<rect id="SVGID_69_" x="-582.5" y="-1476" width="1400" height="2410"/>
		</defs>
		<clipPath id="SVGID_70_">
			<use xlink:href="#SVGID_69_"  style="overflow:visible;"/>
		</clipPath>
		<rect x="145.3" y="47.7" class="st35" width="22" height="22"/>
	</g>
</g>
<g>
	<defs>
		<path id="SVGID_71_" d="M204.5,68.7c-5.5,0-10-4.5-10-10c0,5.5-4.5,10-10,10c5.5,0,10,4.5,10,10C194.5,73.2,199,68.7,204.5,68.7"
			/>
	</defs>
	<clipPath id="SVGID_72_">
		<use xlink:href="#SVGID_71_"  style="overflow:visible;"/>
	</clipPath>
	<g class="st36">
		<defs>
			<rect id="SVGID_73_" x="-582.5" y="-1476" width="1400" height="2410"/>
		</defs>
		<clipPath id="SVGID_74_">
			<use xlink:href="#SVGID_73_"  style="overflow:visible;"/>
		</clipPath>
		<rect x="179.5" y="53.7" class="st37" width="30" height="30"/>
	</g>
</g>
</svg>
