<?xml version="1.0" encoding="utf-8"?>
<!-- Generator: Adobe Illustrator 19.2.1, SVG Export Plug-In . SVG Version: 6.00 Build 0)  -->
<svg version="1.1" id="Layer_1" xmlns="http://www.w3.org/2000/svg" xmlns:xlink="http://www.w3.org/1999/xlink" x="0px" y="0px"
	 viewBox="0 0 230 230" style="enable-background:new 0 0 230 230;" xml:space="preserve">
<style type="text/css">
	.st0{clip-path:url(#SVGID_2_);}
	.st1{clip-path:url(#SVGID_4_);fill:#F6F6F6;}
	.st2{clip-path:url(#SVGID_6_);}
	.st3{clip-path:url(#SVGID_8_);fill:#D8F0C8;}
	.st4{clip-path:url(#SVGID_10_);fill:none;stroke:#545E65;stroke-width:2;stroke-miterlimit:10;}
	.st5{clip-path:url(#SVGID_10_);fill:none;stroke:#545E65;stroke-width:4;stroke-miterlimit:10;}
	.st6{clip-path:url(#SVGID_12_);}
	.st7{clip-path:url(#SVGID_14_);fill:#F6F6F6;}
	.st8{clip-path:url(#SVGID_16_);}
	.st9{clip-path:url(#SVGID_18_);fill:#F6F6F6;}
	.st10{clip-path:url(#SVGID_20_);}
	.st11{clip-path:url(#SVGID_22_);fill:#DDE0E2;}
	.st12{clip-path:url(#SVGID_24_);fill:none;stroke:#545E65;stroke-width:2;stroke-miterlimit:10;}
	.st13{clip-path:url(#SVGID_24_);fill:none;stroke:#545E65;stroke-width:4;stroke-miterlimit:10;}
	.st14{clip-path:url(#SVGID_26_);}
	.st15{clip-path:url(#SVGID_28_);fill:#F6F6F6;}
	.st16{clip-path:url(#SVGID_30_);}
	.st17{clip-path:url(#SVGID_32_);fill:#F6F6F6;}
	.st18{clip-path:url(#SVGID_34_);}
	.st19{clip-path:url(#SVGID_36_);fill:#F6F6F6;}
	.st20{clip-path:url(#SVGID_38_);}
	.st21{clip-path:url(#SVGID_40_);fill:#C2E9F9;}
	.st22{clip-path:url(#SVGID_42_);fill:none;stroke:#545E65;stroke-width:4;stroke-miterlimit:10;}
	.st23{clip-path:url(#SVGID_44_);}
	.st24{clip-path:url(#SVGID_46_);fill:#F6F6F6;}
	.st25{clip-path:url(#SVGID_48_);fill:none;stroke:#545E65;stroke-width:4;stroke-miterlimit:10;}
	.st26{clip-path:url(#SVGID_48_);fill:none;stroke:#545E65;stroke-width:2;stroke-miterlimit:10;}
	.st27{clip-path:url(#SVGID_50_);}
	.st28{clip-path:url(#SVGID_52_);fill:#FF5C47;}
	.st29{clip-path:url(#SVGID_54_);}
	.st30{clip-path:url(#SVGID_56_);fill:#C2E9F9;}
	.st31{clip-path:url(#SVGID_58_);}
	.st32{clip-path:url(#SVGID_60_);fill:#545E65;}
</style>
<g>
	<defs>
		<path id="SVGID_1_" d="M204,201h-54c-2.2,0-4-1.8-4-4V93c0-2.2,1.8-4,4-4h54c2.2,0,4,1.8,4,4v104C208,199.2,206.2,201,204,201"/>
	</defs>
	<clipPath id="SVGID_2_">
		<use xlink:href="#SVGID_1_"  style="overflow:visible;"/>
	</clipPath>
	<g class="st0">
		<defs>
			<rect id="SVGID_3_" x="-933" y="-1897" width="1400" height="2410"/>
		</defs>
		<clipPath id="SVGID_4_">
			<use xlink:href="#SVGID_3_"  style="overflow:visible;"/>
		</clipPath>
		<rect x="141" y="84" class="st1" width="72" height="122"/>
	</g>
</g>
<g>
	<defs>
		<path id="SVGID_5_" d="M153,201c-1.1,0-2-0.9-2-2V96c0-1.1,0.9-2,2-2h53c1.1,0,2,0.9,2,2v101c0,2.2-1.8,4-4,4H153z"/>
	</defs>
	<clipPath id="SVGID_6_">
		<use xlink:href="#SVGID_5_"  style="overflow:visible;"/>
	</clipPath>
	<g class="st2">
		<defs>
			<rect id="SVGID_7_" x="-933" y="-1897" width="1400" height="2410"/>
		</defs>
		<clipPath id="SVGID_8_">
			<use xlink:href="#SVGID_7_"  style="overflow:visible;"/>
		</clipPath>
		<rect x="146" y="89" class="st3" width="67" height="117"/>
	</g>
</g>
<g>
	<defs>
		<rect id="SVGID_9_" x="-933" y="-1897" width="1400" height="2410"/>
	</defs>
	<clipPath id="SVGID_10_">
		<use xlink:href="#SVGID_9_"  style="overflow:visible;"/>
	</clipPath>
	<path class="st4" d="M204,201h-54c-2.2,0-4-1.8-4-4V93c0-2.2,1.8-4,4-4h54c2.2,0,4,1.8,4,4v104C208,199.2,206.2,201,204,201z"/>
	<line class="st5" x1="167" y1="137" x2="187" y2="137"/>
	<line class="st4" x1="160" y1="159" x2="194" y2="159"/>
	<line class="st4" x1="160" y1="169" x2="194" y2="169"/>
</g>
<g>
	<defs>
		<rect id="SVGID_11_" x="168" y="105.5" width="18" height="18"/>
	</defs>
	<clipPath id="SVGID_12_">
		<use xlink:href="#SVGID_11_"  style="overflow:visible;"/>
	</clipPath>
	<g class="st6">
		<defs>
			<rect id="SVGID_13_" x="-933" y="-1897" width="1400" height="2410"/>
		</defs>
		<clipPath id="SVGID_14_">
			<use xlink:href="#SVGID_13_"  style="overflow:visible;"/>
		</clipPath>
		<rect x="163" y="100.5" class="st7" width="28" height="28"/>
	</g>
</g>
<g>
	<defs>
		<path id="SVGID_15_" d="M80,201H26c-2.2,0-4-1.8-4-4V93c0-2.2,1.8-4,4-4h54c2.2,0,4,1.8,4,4v104C84,199.2,82.2,201,80,201"/>
	</defs>
	<clipPath id="SVGID_16_">
		<use xlink:href="#SVGID_15_"  style="overflow:visible;"/>
	</clipPath>
	<g class="st8">
		<defs>
			<rect id="SVGID_17_" x="-933" y="-1897" width="1400" height="2410"/>
		</defs>
		<clipPath id="SVGID_18_">
			<use xlink:href="#SVGID_17_"  style="overflow:visible;"/>
		</clipPath>
		<rect x="17" y="84" class="st9" width="72" height="122"/>
	</g>
</g>
<g>
	<defs>
		<path id="SVGID_19_" d="M29,201c-1.1,0-2-0.9-2-2V96c0-1.1,0.9-2,2-2h53c1.1,0,2,0.9,2,2v101c0,2.2-1.8,4-4,4H29z"/>
	</defs>
	<clipPath id="SVGID_20_">
		<use xlink:href="#SVGID_19_"  style="overflow:visible;"/>
	</clipPath>
	<g class="st10">
		<defs>
			<rect id="SVGID_21_" x="-933" y="-1897" width="1400" height="2410"/>
		</defs>
		<clipPath id="SVGID_22_">
			<use xlink:href="#SVGID_21_"  style="overflow:visible;"/>
		</clipPath>
		<rect x="22" y="89" class="st11" width="67" height="117"/>
	</g>
</g>
<g>
	<defs>
		<rect id="SVGID_23_" x="-933" y="-1897" width="1400" height="2410"/>
	</defs>
	<clipPath id="SVGID_24_">
		<use xlink:href="#SVGID_23_"  style="overflow:visible;"/>
	</clipPath>
	<path class="st12" d="M80,201H26c-2.2,0-4-1.8-4-4V93c0-2.2,1.8-4,4-4h54c2.2,0,4,1.8,4,4v104C84,199.2,82.2,201,80,201z"/>
	<line class="st13" x1="43" y1="137" x2="63" y2="137"/>
	<line class="st12" x1="36" y1="159" x2="70" y2="159"/>
	<line class="st12" x1="36" y1="169" x2="70" y2="169"/>
</g>
<g>
	<defs>
		<path id="SVGID_25_" d="M53,123.5L53,123.5c-5,0-9-4-9-9s4-9,9-9s9,4,9,9S58,123.5,53,123.5"/>
	</defs>
	<clipPath id="SVGID_26_">
		<use xlink:href="#SVGID_25_"  style="overflow:visible;"/>
	</clipPath>
	<g class="st14">
		<defs>
			<rect id="SVGID_27_" x="-933" y="-1897" width="1400" height="2410"/>
		</defs>
		<clipPath id="SVGID_28_">
			<use xlink:href="#SVGID_27_"  style="overflow:visible;"/>
		</clipPath>
		<rect x="39" y="100.5" class="st15" width="28" height="28"/>
	</g>
</g>
<g>
	<defs>
		<path id="SVGID_29_" d="M84,191c-5.5,0-10-4.5-10-10V69c0-5.5,4.5-10,10-10h62c5.5,0,10,4.5,10,10v112c0,5.5-4.5,10-10,10H84z"/>
	</defs>
	<clipPath id="SVGID_30_">
		<use xlink:href="#SVGID_29_"  style="overflow:visible;"/>
	</clipPath>
	<g class="st16">
		<defs>
			<rect id="SVGID_31_" x="-933" y="-1897" width="1400" height="2410"/>
		</defs>
		<clipPath id="SVGID_32_">
			<use xlink:href="#SVGID_31_"  style="overflow:visible;"/>
		</clipPath>
		<rect x="69" y="54" class="st17" width="92" height="142"/>
	</g>
</g>
<g>
	<defs>
		<path id="SVGID_33_" d="M146,185H84c-2.2,0-4-1.8-4-4V69c0-2.2,1.8-4,4-4h62c2.2,0,4,1.8,4,4v112C150,183.2,148.2,185,146,185"/>
	</defs>
	<clipPath id="SVGID_34_">
		<use xlink:href="#SVGID_33_"  style="overflow:visible;"/>
	</clipPath>
	<g class="st18">
		<defs>
			<rect id="SVGID_35_" x="-933" y="-1897" width="1400" height="2410"/>
		</defs>
		<clipPath id="SVGID_36_">
			<use xlink:href="#SVGID_35_"  style="overflow:visible;"/>
		</clipPath>
		<rect x="75" y="60" class="st19" width="80" height="130"/>
	</g>
</g>
<g>
	<defs>
		<path id="SVGID_37_" d="M87,185c-1.1,0-2-0.9-2-2V72c0-1.1,0.9-2,2-2h61c1.1,0,2,0.9,2,2v109c0,2.2-1.8,4-4,4H87z"/>
	</defs>
	<clipPath id="SVGID_38_">
		<use xlink:href="#SVGID_37_"  style="overflow:visible;"/>
	</clipPath>
	<g class="st20">
		<defs>
			<rect id="SVGID_39_" x="-933" y="-1897" width="1400" height="2410"/>
		</defs>
		<clipPath id="SVGID_40_">
			<use xlink:href="#SVGID_39_"  style="overflow:visible;"/>
		</clipPath>
		<rect x="80" y="65" class="st21" width="75" height="125"/>
	</g>
</g>
<g>
	<defs>
		<rect id="SVGID_41_" x="-933" y="-1897" width="1400" height="2410"/>
	</defs>
	<clipPath id="SVGID_42_">
		<use xlink:href="#SVGID_41_"  style="overflow:visible;"/>
	</clipPath>
	<path class="st22" d="M146,185H84c-2.2,0-4-1.8-4-4V69c0-2.2,1.8-4,4-4h62c2.2,0,4,1.8,4,4v112C150,183.2,148.2,185,146,185z"/>
</g>
<g>
	<defs>
		<polygon id="SVGID_43_" points="115,82.9 105,88.7 105,100.2 115,106 125,100.2 125,88.7 		"/>
	</defs>
	<clipPath id="SVGID_44_">
		<use xlink:href="#SVGID_43_"  style="overflow:visible;"/>
	</clipPath>
	<g class="st23">
		<defs>
			<rect id="SVGID_45_" x="-933" y="-1897" width="1400" height="2410"/>
		</defs>
		<clipPath id="SVGID_46_">
			<use xlink:href="#SVGID_45_"  style="overflow:visible;"/>
		</clipPath>
		<rect x="100" y="77.9" class="st24" width="30" height="33.1"/>
	</g>
</g>
<g>
	<defs>
		<rect id="SVGID_47_" x="-933" y="-1897" width="1400" height="2410"/>
	</defs>
	<clipPath id="SVGID_48_">
		<use xlink:href="#SVGID_47_"  style="overflow:visible;"/>
	</clipPath>
	<line class="st25" x1="105" y1="117" x2="125" y2="117"/>
	<line class="st26" x1="94" y1="139" x2="136" y2="139"/>
	<line class="st26" x1="94" y1="149" x2="136" y2="149"/>
	<line class="st26" x1="94" y1="159" x2="136" y2="159"/>
</g>
<g>
	<defs>
		<path id="SVGID_49_" d="M66,49c-2.8,0-5-2.2-5-5c0,2.8-2.2,5-5,5c2.8,0,5,2.2,5,5C61,51.2,63.2,49,66,49"/>
	</defs>
	<clipPath id="SVGID_50_">
		<use xlink:href="#SVGID_49_"  style="overflow:visible;"/>
	</clipPath>
	<g class="st27">
		<defs>
			<rect id="SVGID_51_" x="-933" y="-1897" width="1400" height="2410"/>
		</defs>
		<clipPath id="SVGID_52_">
			<use xlink:href="#SVGID_51_"  style="overflow:visible;"/>
		</clipPath>
		<rect x="51" y="39" class="st28" width="20" height="20"/>
	</g>
</g>
<g>
	<defs>
		<path id="SVGID_53_" d="M177,67c-3.3,0-6-2.7-6-6c0,3.3-2.7,6-6,6c3.3,0,6,2.7,6,6C171,69.7,173.7,67,177,67"/>
	</defs>
	<clipPath id="SVGID_54_">
		<use xlink:href="#SVGID_53_"  style="overflow:visible;"/>
	</clipPath>
	<g class="st29">
		<defs>
			<rect id="SVGID_55_" x="-933" y="-1897" width="1400" height="2410"/>
		</defs>
		<clipPath id="SVGID_56_">
			<use xlink:href="#SVGID_55_"  style="overflow:visible;"/>
		</clipPath>
		<rect x="160" y="56" class="st30" width="22" height="22"/>
	</g>
</g>
<g>
	<defs>
		<path id="SVGID_57_" d="M124,38c-5.5,0-10-4.5-10-10c0,5.5-4.5,10-10,10c5.5,0,10,4.5,10,10C114,42.5,118.5,38,124,38"/>
	</defs>
	<clipPath id="SVGID_58_">
		<use xlink:href="#SVGID_57_"  style="overflow:visible;"/>
	</clipPath>
	<g class="st31">
		<defs>
			<rect id="SVGID_59_" x="-933" y="-1897" width="1400" height="2410"/>
		</defs>
		<clipPath id="SVGID_60_">
			<use xlink:href="#SVGID_59_"  style="overflow:visible;"/>
		</clipPath>
		<rect x="99" y="23" class="st32" width="30" height="30"/>
	</g>
</g>
</svg>
