<?xml version="1.0" encoding="utf-8"?>
<!-- Generator: Adobe Illustrator 19.2.1, SVG Export Plug-In . SVG Version: 6.00 Build 0)  -->
<svg version="1.1" id="Layer_1" xmlns="http://www.w3.org/2000/svg" xmlns:xlink="http://www.w3.org/1999/xlink" x="0px" y="0px"
	 viewBox="0 0 230 230" style="enable-background:new 0 0 230 230;" xml:space="preserve">
<style type="text/css">
	.st0{clip-path:url(#SVGID_2_);fill:none;stroke:#545E65;stroke-width:2;stroke-miterlimit:10;}
	.st1{clip-path:url(#SVGID_4_);}
	.st2{clip-path:url(#SVGID_6_);fill:#F6F6F6;}
	.st3{clip-path:url(#SVGID_8_);}
	.st4{clip-path:url(#SVGID_10_);fill:#D8F0C8;}
	.st5{clip-path:url(#SVGID_12_);}
	.st6{clip-path:url(#SVGID_14_);fill:#F6F6F6;}
	.st7{clip-path:url(#SVGID_16_);}
	.st8{clip-path:url(#SVGID_18_);fill:#F6F6F6;}
	.st9{clip-path:url(#SVGID_20_);}
	.st10{clip-path:url(#SVGID_22_);fill:#F6F6F6;}
	.st11{clip-path:url(#SVGID_24_);}
	.st12{clip-path:url(#SVGID_26_);fill:#F6F6F6;}
	.st13{clip-path:url(#SVGID_28_);}
	.st14{clip-path:url(#SVGID_30_);fill:#F6F6F6;}
	.st15{clip-path:url(#SVGID_32_);}
	.st16{clip-path:url(#SVGID_34_);fill:#F6F6F6;}
	.st17{clip-path:url(#SVGID_36_);}
	.st18{clip-path:url(#SVGID_38_);fill:#545E65;}
	.st19{clip-path:url(#SVGID_40_);}
	.st20{clip-path:url(#SVGID_42_);fill:#545E65;}
	.st21{clip-path:url(#SVGID_44_);}
	.st22{clip-path:url(#SVGID_46_);fill:#545E65;}
	.st23{clip-path:url(#SVGID_48_);}
	.st24{clip-path:url(#SVGID_50_);fill:#545E65;}
	.st25{clip-path:url(#SVGID_52_);}
	.st26{clip-path:url(#SVGID_54_);fill:#545E65;}
	.st27{clip-path:url(#SVGID_56_);}
	.st28{clip-path:url(#SVGID_58_);fill:#545E65;}
	.st29{clip-path:url(#SVGID_60_);fill:none;stroke:#545E65;stroke-width:2;stroke-miterlimit:10;}
	.st30{clip-path:url(#SVGID_62_);}
	.st31{clip-path:url(#SVGID_64_);fill:#F6F6F6;}
	.st32{clip-path:url(#SVGID_66_);}
	.st33{clip-path:url(#SVGID_68_);fill:#C2E9F9;}
	.st34{clip-path:url(#SVGID_70_);}
	.st35{clip-path:url(#SVGID_72_);fill:#F6F6F6;}
	.st36{clip-path:url(#SVGID_74_);}
	.st37{clip-path:url(#SVGID_76_);fill:#C2E9F9;}
	.st38{clip-path:url(#SVGID_78_);}
	.st39{clip-path:url(#SVGID_80_);fill:#F6F6F6;}
	.st40{clip-path:url(#SVGID_82_);}
	.st41{clip-path:url(#SVGID_84_);fill:#C2E9F9;}
	.st42{clip-path:url(#SVGID_86_);}
	.st43{clip-path:url(#SVGID_88_);fill:#F6F6F6;}
	.st44{clip-path:url(#SVGID_90_);}
	.st45{clip-path:url(#SVGID_92_);fill:#545E65;}
	.st46{clip-path:url(#SVGID_94_);}
	.st47{clip-path:url(#SVGID_96_);fill:#F6F6F6;}
	.st48{clip-path:url(#SVGID_98_);}
	.st49{clip-path:url(#SVGID_100_);fill:#545E65;}
	.st50{clip-path:url(#SVGID_102_);}
	.st51{clip-path:url(#SVGID_104_);fill:#F6F6F6;}
	.st52{clip-path:url(#SVGID_106_);}
	.st53{clip-path:url(#SVGID_108_);fill:#545E65;}
	.st54{clip-path:url(#SVGID_110_);}
	.st55{clip-path:url(#SVGID_112_);fill:#F6F6F6;}
	.st56{clip-path:url(#SVGID_114_);}
	.st57{clip-path:url(#SVGID_116_);fill:#545E65;}
	.st58{clip-path:url(#SVGID_118_);}
	.st59{clip-path:url(#SVGID_120_);fill:#F6F6F6;}
	.st60{clip-path:url(#SVGID_122_);}
	.st61{clip-path:url(#SVGID_124_);fill:#545E65;}
	.st62{clip-path:url(#SVGID_126_);}
	.st63{clip-path:url(#SVGID_128_);fill:#F6F6F6;}
	.st64{clip-path:url(#SVGID_130_);}
	.st65{clip-path:url(#SVGID_132_);fill:#545E65;}
	.st66{clip-path:url(#SVGID_134_);}
	.st67{clip-path:url(#SVGID_136_);fill:#F6F6F6;}
	.st68{clip-path:url(#SVGID_138_);}
	.st69{clip-path:url(#SVGID_140_);fill:#545E65;}
	.st70{clip-path:url(#SVGID_142_);}
	.st71{clip-path:url(#SVGID_144_);fill:#F6F6F6;}
	.st72{clip-path:url(#SVGID_146_);}
	.st73{clip-path:url(#SVGID_148_);fill:#545E65;}
	.st74{clip-path:url(#SVGID_150_);}
	.st75{clip-path:url(#SVGID_152_);fill:#F6F6F6;}
	.st76{clip-path:url(#SVGID_154_);}
	.st77{clip-path:url(#SVGID_156_);fill:#545E65;}
	.st78{clip-path:url(#SVGID_158_);}
	.st79{clip-path:url(#SVGID_160_);fill:#F6F6F6;}
	.st80{clip-path:url(#SVGID_162_);}
	.st81{clip-path:url(#SVGID_164_);fill:#545E65;}
	.st82{clip-path:url(#SVGID_166_);}
	.st83{clip-path:url(#SVGID_168_);fill:#F6F6F6;}
	.st84{clip-path:url(#SVGID_170_);}
	.st85{clip-path:url(#SVGID_172_);fill:#545E65;}
	.st86{clip-path:url(#SVGID_174_);fill:none;stroke:#545E65;stroke-width:2;stroke-miterlimit:10;}
	.st87{clip-path:url(#SVGID_176_);}
	.st88{clip-path:url(#SVGID_178_);fill:#F6F6F6;}
	.st89{clip-path:url(#SVGID_180_);}
	.st90{clip-path:url(#SVGID_182_);fill:#F6F6F6;}
	.st91{clip-path:url(#SVGID_184_);}
	.st92{clip-path:url(#SVGID_186_);fill:#FF5C47;}
	.st93{clip-path:url(#SVGID_188_);}
	.st94{clip-path:url(#SVGID_190_);fill:#F6F6F6;}
	.st95{clip-path:url(#SVGID_192_);}
	.st96{clip-path:url(#SVGID_194_);fill:#F6F6F6;}
	.st97{clip-path:url(#SVGID_196_);}
	.st98{clip-path:url(#SVGID_198_);fill:#F6F6F6;}
	.st99{clip-path:url(#SVGID_200_);}
	.st100{clip-path:url(#SVGID_202_);fill:#F6F6F6;}
	.st101{clip-path:url(#SVGID_204_);}
	.st102{clip-path:url(#SVGID_206_);fill:#F6F6F6;}
	.st103{clip-path:url(#SVGID_208_);}
	.st104{clip-path:url(#SVGID_210_);fill:#F6F6F6;}
	.st105{clip-path:url(#SVGID_212_);fill:none;stroke:#545E65;stroke-width:4;stroke-miterlimit:10;}
	.st106{clip-path:url(#SVGID_214_);}
	.st107{clip-path:url(#SVGID_216_);fill:#545E65;}
	.st108{clip-path:url(#SVGID_218_);}
	.st109{clip-path:url(#SVGID_220_);fill:#545E65;}
	.st110{clip-path:url(#SVGID_222_);}
	.st111{clip-path:url(#SVGID_224_);fill:#545E65;}
	.st112{clip-path:url(#SVGID_226_);}
	.st113{clip-path:url(#SVGID_228_);fill:#545E65;}
	.st114{clip-path:url(#SVGID_230_);}
	.st115{clip-path:url(#SVGID_232_);fill:#545E65;}
	.st116{clip-path:url(#SVGID_234_);}
	.st117{clip-path:url(#SVGID_236_);fill:#545E65;}
	.st118{clip-path:url(#SVGID_238_);}
	.st119{clip-path:url(#SVGID_240_);fill:#545E65;}
	.st120{clip-path:url(#SVGID_242_);}
	.st121{clip-path:url(#SVGID_244_);fill:#FF5C47;}
	.st122{clip-path:url(#SVGID_246_);}
	.st123{clip-path:url(#SVGID_248_);fill:#C2E9F9;}
</style>
<g>
	<defs>
		<rect id="SVGID_1_" x="-583" y="-1055.5" width="1400" height="2410"/>
	</defs>
	<clipPath id="SVGID_2_">
		<use xlink:href="#SVGID_1_"  style="overflow:visible;"/>
	</clipPath>
	<polyline class="st0" points="16,197.5 16,129.5 102,129.5 102,197.5 	"/>
	<polyline class="st0" points="72,179.5 72,55.5 112,55.5 112,179.5 	"/>
</g>
<g>
	<defs>
		<polygon id="SVGID_3_" points="95.8,87.5 95.8,187.5 155.8,187.5 155.8,87.5 125.8,67.5 		"/>
	</defs>
	<clipPath id="SVGID_4_">
		<use xlink:href="#SVGID_3_"  style="overflow:visible;"/>
	</clipPath>
	<g class="st1">
		<defs>
			<rect id="SVGID_5_" x="-583" y="-1055.5" width="1400" height="2410"/>
		</defs>
		<clipPath id="SVGID_6_">
			<use xlink:href="#SVGID_5_"  style="overflow:visible;"/>
		</clipPath>
		<rect x="90.8" y="62.5" class="st2" width="70" height="130"/>
	</g>
</g>
<g>
	<defs>
		<polygon id="SVGID_7_" points="102.8,186.5 102.8,92.6 128.8,75.3 154.8,92.6 154.8,186.5 		"/>
	</defs>
	<clipPath id="SVGID_8_">
		<use xlink:href="#SVGID_7_"  style="overflow:visible;"/>
	</clipPath>
	<g class="st3">
		<defs>
			<rect id="SVGID_9_" x="-583" y="-1055.5" width="1400" height="2410"/>
		</defs>
		<clipPath id="SVGID_10_">
			<use xlink:href="#SVGID_9_"  style="overflow:visible;"/>
		</clipPath>
		<rect x="97.8" y="70.3" class="st4" width="62" height="121.2"/>
	</g>
</g>
<g>
	<defs>
		<rect id="SVGID_11_" x="109.8" y="94.5" width="13" height="17"/>
	</defs>
	<clipPath id="SVGID_12_">
		<use xlink:href="#SVGID_11_"  style="overflow:visible;"/>
	</clipPath>
	<g class="st5">
		<defs>
			<rect id="SVGID_13_" x="-583" y="-1055.5" width="1400" height="2410"/>
		</defs>
		<clipPath id="SVGID_14_">
			<use xlink:href="#SVGID_13_"  style="overflow:visible;"/>
		</clipPath>
		<rect x="104.8" y="89.5" class="st6" width="23" height="27"/>
	</g>
</g>
<g>
	<defs>
		<rect id="SVGID_15_" x="131.8" y="94.5" width="13" height="17"/>
	</defs>
	<clipPath id="SVGID_16_">
		<use xlink:href="#SVGID_15_"  style="overflow:visible;"/>
	</clipPath>
	<g class="st7">
		<defs>
			<rect id="SVGID_17_" x="-583" y="-1055.5" width="1400" height="2410"/>
		</defs>
		<clipPath id="SVGID_18_">
			<use xlink:href="#SVGID_17_"  style="overflow:visible;"/>
		</clipPath>
		<rect x="126.8" y="89.5" class="st8" width="23" height="27"/>
	</g>
</g>
<g>
	<defs>
		<rect id="SVGID_19_" x="109.8" y="116.5" width="13" height="17"/>
	</defs>
	<clipPath id="SVGID_20_">
		<use xlink:href="#SVGID_19_"  style="overflow:visible;"/>
	</clipPath>
	<g class="st9">
		<defs>
			<rect id="SVGID_21_" x="-583" y="-1055.5" width="1400" height="2410"/>
		</defs>
		<clipPath id="SVGID_22_">
			<use xlink:href="#SVGID_21_"  style="overflow:visible;"/>
		</clipPath>
		<rect x="104.8" y="111.5" class="st10" width="23" height="27"/>
	</g>
</g>
<g>
	<defs>
		<rect id="SVGID_23_" x="131.8" y="116.5" width="13" height="17"/>
	</defs>
	<clipPath id="SVGID_24_">
		<use xlink:href="#SVGID_23_"  style="overflow:visible;"/>
	</clipPath>
	<g class="st11">
		<defs>
			<rect id="SVGID_25_" x="-583" y="-1055.5" width="1400" height="2410"/>
		</defs>
		<clipPath id="SVGID_26_">
			<use xlink:href="#SVGID_25_"  style="overflow:visible;"/>
		</clipPath>
		<rect x="126.8" y="111.5" class="st12" width="23" height="27"/>
	</g>
</g>
<g>
	<defs>
		<rect id="SVGID_27_" x="109.8" y="138.5" width="13" height="17"/>
	</defs>
	<clipPath id="SVGID_28_">
		<use xlink:href="#SVGID_27_"  style="overflow:visible;"/>
	</clipPath>
	<g class="st13">
		<defs>
			<rect id="SVGID_29_" x="-583" y="-1055.5" width="1400" height="2410"/>
		</defs>
		<clipPath id="SVGID_30_">
			<use xlink:href="#SVGID_29_"  style="overflow:visible;"/>
		</clipPath>
		<rect x="104.8" y="133.5" class="st14" width="23" height="27"/>
	</g>
</g>
<g>
	<defs>
		<rect id="SVGID_31_" x="131.8" y="138.5" width="13" height="17"/>
	</defs>
	<clipPath id="SVGID_32_">
		<use xlink:href="#SVGID_31_"  style="overflow:visible;"/>
	</clipPath>
	<g class="st15">
		<defs>
			<rect id="SVGID_33_" x="-583" y="-1055.5" width="1400" height="2410"/>
		</defs>
		<clipPath id="SVGID_34_">
			<use xlink:href="#SVGID_33_"  style="overflow:visible;"/>
		</clipPath>
		<rect x="126.8" y="133.5" class="st16" width="23" height="27"/>
	</g>
</g>
<g>
	<defs>
		<rect id="SVGID_35_" x="109.8" y="94.5" width="10" height="14"/>
	</defs>
	<clipPath id="SVGID_36_">
		<use xlink:href="#SVGID_35_"  style="overflow:visible;"/>
	</clipPath>
	<g class="st17">
		<defs>
			<rect id="SVGID_37_" x="-583" y="-1055.5" width="1400" height="2410"/>
		</defs>
		<clipPath id="SVGID_38_">
			<use xlink:href="#SVGID_37_"  style="overflow:visible;"/>
		</clipPath>
		<rect x="104.8" y="89.5" class="st18" width="20" height="24"/>
	</g>
</g>
<g>
	<defs>
		<rect id="SVGID_39_" x="131.8" y="94.5" width="10" height="14"/>
	</defs>
	<clipPath id="SVGID_40_">
		<use xlink:href="#SVGID_39_"  style="overflow:visible;"/>
	</clipPath>
	<g class="st19">
		<defs>
			<rect id="SVGID_41_" x="-583" y="-1055.5" width="1400" height="2410"/>
		</defs>
		<clipPath id="SVGID_42_">
			<use xlink:href="#SVGID_41_"  style="overflow:visible;"/>
		</clipPath>
		<rect x="126.8" y="89.5" class="st20" width="20" height="24"/>
	</g>
</g>
<g>
	<defs>
		<rect id="SVGID_43_" x="109.8" y="116.5" width="10" height="14"/>
	</defs>
	<clipPath id="SVGID_44_">
		<use xlink:href="#SVGID_43_"  style="overflow:visible;"/>
	</clipPath>
	<g class="st21">
		<defs>
			<rect id="SVGID_45_" x="-583" y="-1055.5" width="1400" height="2410"/>
		</defs>
		<clipPath id="SVGID_46_">
			<use xlink:href="#SVGID_45_"  style="overflow:visible;"/>
		</clipPath>
		<rect x="104.8" y="111.5" class="st22" width="20" height="24"/>
	</g>
</g>
<g>
	<defs>
		<rect id="SVGID_47_" x="131.8" y="116.5" width="10" height="14"/>
	</defs>
	<clipPath id="SVGID_48_">
		<use xlink:href="#SVGID_47_"  style="overflow:visible;"/>
	</clipPath>
	<g class="st23">
		<defs>
			<rect id="SVGID_49_" x="-583" y="-1055.5" width="1400" height="2410"/>
		</defs>
		<clipPath id="SVGID_50_">
			<use xlink:href="#SVGID_49_"  style="overflow:visible;"/>
		</clipPath>
		<rect x="126.8" y="111.5" class="st24" width="20" height="24"/>
	</g>
</g>
<g>
	<defs>
		<rect id="SVGID_51_" x="109.8" y="138.5" width="10" height="14"/>
	</defs>
	<clipPath id="SVGID_52_">
		<use xlink:href="#SVGID_51_"  style="overflow:visible;"/>
	</clipPath>
	<g class="st25">
		<defs>
			<rect id="SVGID_53_" x="-583" y="-1055.5" width="1400" height="2410"/>
		</defs>
		<clipPath id="SVGID_54_">
			<use xlink:href="#SVGID_53_"  style="overflow:visible;"/>
		</clipPath>
		<rect x="104.8" y="133.5" class="st26" width="20" height="24"/>
	</g>
</g>
<g>
	<defs>
		<rect id="SVGID_55_" x="131.8" y="138.5" width="10" height="14"/>
	</defs>
	<clipPath id="SVGID_56_">
		<use xlink:href="#SVGID_55_"  style="overflow:visible;"/>
	</clipPath>
	<g class="st27">
		<defs>
			<rect id="SVGID_57_" x="-583" y="-1055.5" width="1400" height="2410"/>
		</defs>
		<clipPath id="SVGID_58_">
			<use xlink:href="#SVGID_57_"  style="overflow:visible;"/>
		</clipPath>
		<rect x="126.8" y="133.5" class="st28" width="20" height="24"/>
	</g>
</g>
<g>
	<defs>
		<rect id="SVGID_59_" x="-583" y="-1055.5" width="1400" height="2410"/>
	</defs>
	<clipPath id="SVGID_60_">
		<use xlink:href="#SVGID_59_"  style="overflow:visible;"/>
	</clipPath>
	<polygon class="st29" points="95.8,87.5 95.8,187.5 155.8,187.5 155.8,87.5 125.8,67.5 	"/>
</g>
<g>
	<defs>
		<rect id="SVGID_61_" x="141" y="89.5" width="72" height="74"/>
	</defs>
	<clipPath id="SVGID_62_">
		<use xlink:href="#SVGID_61_"  style="overflow:visible;"/>
	</clipPath>
	<g class="st30">
		<defs>
			<rect id="SVGID_63_" x="-583" y="-1055.5" width="1400" height="2410"/>
		</defs>
		<clipPath id="SVGID_64_">
			<use xlink:href="#SVGID_63_"  style="overflow:visible;"/>
		</clipPath>
		<rect x="136" y="84.5" class="st31" width="82" height="84"/>
	</g>
</g>
<g>
	<defs>
		<rect id="SVGID_65_" x="145" y="93.5" width="68" height="70"/>
	</defs>
	<clipPath id="SVGID_66_">
		<use xlink:href="#SVGID_65_"  style="overflow:visible;"/>
	</clipPath>
	<g class="st32">
		<defs>
			<rect id="SVGID_67_" x="-583" y="-1055.5" width="1400" height="2410"/>
		</defs>
		<clipPath id="SVGID_68_">
			<use xlink:href="#SVGID_67_"  style="overflow:visible;"/>
		</clipPath>
		<rect x="140" y="88.5" class="st33" width="78" height="80"/>
	</g>
</g>
<g>
	<defs>
		<rect id="SVGID_69_" x="151" y="79.5" width="52" height="10"/>
	</defs>
	<clipPath id="SVGID_70_">
		<use xlink:href="#SVGID_69_"  style="overflow:visible;"/>
	</clipPath>
	<g class="st34">
		<defs>
			<rect id="SVGID_71_" x="-583" y="-1055.5" width="1400" height="2410"/>
		</defs>
		<clipPath id="SVGID_72_">
			<use xlink:href="#SVGID_71_"  style="overflow:visible;"/>
		</clipPath>
		<rect x="146" y="74.5" class="st35" width="62" height="20"/>
	</g>
</g>
<g>
	<defs>
		<rect id="SVGID_73_" x="155" y="83.5" width="48" height="6"/>
	</defs>
	<clipPath id="SVGID_74_">
		<use xlink:href="#SVGID_73_"  style="overflow:visible;"/>
	</clipPath>
	<g class="st36">
		<defs>
			<rect id="SVGID_75_" x="-583" y="-1055.5" width="1400" height="2410"/>
		</defs>
		<clipPath id="SVGID_76_">
			<use xlink:href="#SVGID_75_"  style="overflow:visible;"/>
		</clipPath>
		<rect x="150" y="78.5" class="st37" width="58" height="16"/>
	</g>
</g>
<g>
	<defs>
		<rect id="SVGID_77_" x="141" y="163.5" width="72" height="44"/>
	</defs>
	<clipPath id="SVGID_78_">
		<use xlink:href="#SVGID_77_"  style="overflow:visible;"/>
	</clipPath>
	<g class="st38">
		<defs>
			<rect id="SVGID_79_" x="-583" y="-1055.5" width="1400" height="2410"/>
		</defs>
		<clipPath id="SVGID_80_">
			<use xlink:href="#SVGID_79_"  style="overflow:visible;"/>
		</clipPath>
		<rect x="136" y="158.5" class="st39" width="82" height="54"/>
	</g>
</g>
<g>
	<defs>
		<rect id="SVGID_81_" x="145" y="167.5" width="68" height="40"/>
	</defs>
	<clipPath id="SVGID_82_">
		<use xlink:href="#SVGID_81_"  style="overflow:visible;"/>
	</clipPath>
	<g class="st40">
		<defs>
			<rect id="SVGID_83_" x="-583" y="-1055.5" width="1400" height="2410"/>
		</defs>
		<clipPath id="SVGID_84_">
			<use xlink:href="#SVGID_83_"  style="overflow:visible;"/>
		</clipPath>
		<rect x="140" y="162.5" class="st41" width="78" height="50"/>
	</g>
</g>
<g>
	<defs>
		<path id="SVGID_85_" d="M165,123.5h-13v-18c0-2.8,2.2-5,5-5h3c2.8,0,5,2.2,5,5V123.5z"/>
	</defs>
	<clipPath id="SVGID_86_">
		<use xlink:href="#SVGID_85_"  style="overflow:visible;"/>
	</clipPath>
	<g class="st42">
		<defs>
			<rect id="SVGID_87_" x="-583" y="-1055.5" width="1400" height="2410"/>
		</defs>
		<clipPath id="SVGID_88_">
			<use xlink:href="#SVGID_87_"  style="overflow:visible;"/>
		</clipPath>
		<rect x="147" y="95.5" class="st43" width="23" height="33"/>
	</g>
</g>
<g>
	<defs>
		<path id="SVGID_89_" d="M162,120.5h-10v-15c0-2.8,2.2-5,5-5s5,2.2,5,5V120.5z"/>
	</defs>
	<clipPath id="SVGID_90_">
		<use xlink:href="#SVGID_89_"  style="overflow:visible;"/>
	</clipPath>
	<g class="st44">
		<defs>
			<rect id="SVGID_91_" x="-583" y="-1055.5" width="1400" height="2410"/>
		</defs>
		<clipPath id="SVGID_92_">
			<use xlink:href="#SVGID_91_"  style="overflow:visible;"/>
		</clipPath>
		<rect x="147" y="95.5" class="st45" width="20" height="30"/>
	</g>
</g>
<g>
	<defs>
		<path id="SVGID_93_" d="M165,197.5h-13v-18c0-2.8,2.2-5,5-5h3c2.8,0,5,2.2,5,5V197.5z"/>
	</defs>
	<clipPath id="SVGID_94_">
		<use xlink:href="#SVGID_93_"  style="overflow:visible;"/>
	</clipPath>
	<g class="st46">
		<defs>
			<rect id="SVGID_95_" x="-583" y="-1055.5" width="1400" height="2410"/>
		</defs>
		<clipPath id="SVGID_96_">
			<use xlink:href="#SVGID_95_"  style="overflow:visible;"/>
		</clipPath>
		<rect x="147" y="169.5" class="st47" width="23" height="33"/>
	</g>
</g>
<g>
	<defs>
		<path id="SVGID_97_" d="M157,175.5c-2.2,0-4,1.8-4,4v14h8v-14C161,177.3,159.2,175.5,157,175.5"/>
	</defs>
	<clipPath id="SVGID_98_">
		<use xlink:href="#SVGID_97_"  style="overflow:visible;"/>
	</clipPath>
	<g class="st48">
		<defs>
			<rect id="SVGID_99_" x="-583" y="-1055.5" width="1400" height="2410"/>
		</defs>
		<clipPath id="SVGID_100_">
			<use xlink:href="#SVGID_99_"  style="overflow:visible;"/>
		</clipPath>
		<rect x="148" y="170.5" class="st49" width="18" height="28"/>
	</g>
</g>
<g>
	<defs>
		<path id="SVGID_101_" d="M175,197.5h-13v-18c0-2.8,2.2-5,5-5h3c2.8,0,5,2.2,5,5V197.5z"/>
	</defs>
	<clipPath id="SVGID_102_">
		<use xlink:href="#SVGID_101_"  style="overflow:visible;"/>
	</clipPath>
	<g class="st50">
		<defs>
			<rect id="SVGID_103_" x="-583" y="-1055.5" width="1400" height="2410"/>
		</defs>
		<clipPath id="SVGID_104_">
			<use xlink:href="#SVGID_103_"  style="overflow:visible;"/>
		</clipPath>
		<rect x="157" y="169.5" class="st51" width="23" height="33"/>
	</g>
</g>
<g>
	<defs>
		<path id="SVGID_105_" d="M167,175.5c-2.2,0-4,1.8-4,4v14h8v-14C171,177.3,169.2,175.5,167,175.5"/>
	</defs>
	<clipPath id="SVGID_106_">
		<use xlink:href="#SVGID_105_"  style="overflow:visible;"/>
	</clipPath>
	<g class="st52">
		<defs>
			<rect id="SVGID_107_" x="-583" y="-1055.5" width="1400" height="2410"/>
		</defs>
		<clipPath id="SVGID_108_">
			<use xlink:href="#SVGID_107_"  style="overflow:visible;"/>
		</clipPath>
		<rect x="158" y="170.5" class="st53" width="18" height="28"/>
	</g>
</g>
<g>
	<defs>
		<path id="SVGID_109_" d="M185,197.5h-13v-18c0-2.8,2.2-5,5-5h3c2.8,0,5,2.2,5,5V197.5z"/>
	</defs>
	<clipPath id="SVGID_110_">
		<use xlink:href="#SVGID_109_"  style="overflow:visible;"/>
	</clipPath>
	<g class="st54">
		<defs>
			<rect id="SVGID_111_" x="-583" y="-1055.5" width="1400" height="2410"/>
		</defs>
		<clipPath id="SVGID_112_">
			<use xlink:href="#SVGID_111_"  style="overflow:visible;"/>
		</clipPath>
		<rect x="167" y="169.5" class="st55" width="23" height="33"/>
	</g>
</g>
<g>
	<defs>
		<path id="SVGID_113_" d="M177,175.5c-2.2,0-4,1.8-4,4v14h8v-14C181,177.3,179.2,175.5,177,175.5"/>
	</defs>
	<clipPath id="SVGID_114_">
		<use xlink:href="#SVGID_113_"  style="overflow:visible;"/>
	</clipPath>
	<g class="st56">
		<defs>
			<rect id="SVGID_115_" x="-583" y="-1055.5" width="1400" height="2410"/>
		</defs>
		<clipPath id="SVGID_116_">
			<use xlink:href="#SVGID_115_"  style="overflow:visible;"/>
		</clipPath>
		<rect x="168" y="170.5" class="st57" width="18" height="28"/>
	</g>
</g>
<g>
	<defs>
		<path id="SVGID_117_" d="M195,197.5h-13v-18c0-2.8,2.2-5,5-5h3c2.8,0,5,2.2,5,5V197.5z"/>
	</defs>
	<clipPath id="SVGID_118_">
		<use xlink:href="#SVGID_117_"  style="overflow:visible;"/>
	</clipPath>
	<g class="st58">
		<defs>
			<rect id="SVGID_119_" x="-583" y="-1055.5" width="1400" height="2410"/>
		</defs>
		<clipPath id="SVGID_120_">
			<use xlink:href="#SVGID_119_"  style="overflow:visible;"/>
		</clipPath>
		<rect x="177" y="169.5" class="st59" width="23" height="33"/>
	</g>
</g>
<g>
	<defs>
		<path id="SVGID_121_" d="M187,175.5c-2.2,0-4,1.8-4,4v14h8v-14C191,177.3,189.2,175.5,187,175.5"/>
	</defs>
	<clipPath id="SVGID_122_">
		<use xlink:href="#SVGID_121_"  style="overflow:visible;"/>
	</clipPath>
	<g class="st60">
		<defs>
			<rect id="SVGID_123_" x="-583" y="-1055.5" width="1400" height="2410"/>
		</defs>
		<clipPath id="SVGID_124_">
			<use xlink:href="#SVGID_123_"  style="overflow:visible;"/>
		</clipPath>
		<rect x="178" y="170.5" class="st61" width="18" height="28"/>
	</g>
</g>
<g>
	<defs>
		<path id="SVGID_125_" d="M205,197.5h-13v-18c0-2.8,2.2-5,5-5h3c2.8,0,5,2.2,5,5V197.5z"/>
	</defs>
	<clipPath id="SVGID_126_">
		<use xlink:href="#SVGID_125_"  style="overflow:visible;"/>
	</clipPath>
	<g class="st62">
		<defs>
			<rect id="SVGID_127_" x="-583" y="-1055.5" width="1400" height="2410"/>
		</defs>
		<clipPath id="SVGID_128_">
			<use xlink:href="#SVGID_127_"  style="overflow:visible;"/>
		</clipPath>
		<rect x="187" y="169.5" class="st63" width="23" height="33"/>
	</g>
</g>
<g>
	<defs>
		<path id="SVGID_129_" d="M193,193.5h8v-14c0-2.2-1.8-4-4-4c-2.2,0-4,1.8-4,4V193.5z"/>
	</defs>
	<clipPath id="SVGID_130_">
		<use xlink:href="#SVGID_129_"  style="overflow:visible;"/>
	</clipPath>
	<g class="st64">
		<defs>
			<rect id="SVGID_131_" x="-583" y="-1055.5" width="1400" height="2410"/>
		</defs>
		<clipPath id="SVGID_132_">
			<use xlink:href="#SVGID_131_"  style="overflow:visible;"/>
		</clipPath>
		<rect x="188" y="170.5" class="st65" width="18" height="28"/>
	</g>
</g>
<g>
	<defs>
		<path id="SVGID_133_" d="M185,123.5h-13v-18c0-2.8,2.2-5,5-5h3c2.8,0,5,2.2,5,5V123.5z"/>
	</defs>
	<clipPath id="SVGID_134_">
		<use xlink:href="#SVGID_133_"  style="overflow:visible;"/>
	</clipPath>
	<g class="st66">
		<defs>
			<rect id="SVGID_135_" x="-583" y="-1055.5" width="1400" height="2410"/>
		</defs>
		<clipPath id="SVGID_136_">
			<use xlink:href="#SVGID_135_"  style="overflow:visible;"/>
		</clipPath>
		<rect x="167" y="95.5" class="st67" width="23" height="33"/>
	</g>
</g>
<g>
	<defs>
		<path id="SVGID_137_" d="M182,120.5h-10v-15c0-2.8,2.2-5,5-5s5,2.2,5,5V120.5z"/>
	</defs>
	<clipPath id="SVGID_138_">
		<use xlink:href="#SVGID_137_"  style="overflow:visible;"/>
	</clipPath>
	<g class="st68">
		<defs>
			<rect id="SVGID_139_" x="-583" y="-1055.5" width="1400" height="2410"/>
		</defs>
		<clipPath id="SVGID_140_">
			<use xlink:href="#SVGID_139_"  style="overflow:visible;"/>
		</clipPath>
		<rect x="167" y="95.5" class="st69" width="20" height="30"/>
	</g>
</g>
<g>
	<defs>
		<path id="SVGID_141_" d="M205,123.5h-13v-18c0-2.8,2.2-5,5-5h3c2.8,0,5,2.2,5,5V123.5z"/>
	</defs>
	<clipPath id="SVGID_142_">
		<use xlink:href="#SVGID_141_"  style="overflow:visible;"/>
	</clipPath>
	<g class="st70">
		<defs>
			<rect id="SVGID_143_" x="-583" y="-1055.5" width="1400" height="2410"/>
		</defs>
		<clipPath id="SVGID_144_">
			<use xlink:href="#SVGID_143_"  style="overflow:visible;"/>
		</clipPath>
		<rect x="187" y="95.5" class="st71" width="23" height="33"/>
	</g>
</g>
<g>
	<defs>
		<path id="SVGID_145_" d="M202,120.5h-10v-15c0-2.8,2.2-5,5-5s5,2.2,5,5V120.5z"/>
	</defs>
	<clipPath id="SVGID_146_">
		<use xlink:href="#SVGID_145_"  style="overflow:visible;"/>
	</clipPath>
	<g class="st72">
		<defs>
			<rect id="SVGID_147_" x="-583" y="-1055.5" width="1400" height="2410"/>
		</defs>
		<clipPath id="SVGID_148_">
			<use xlink:href="#SVGID_147_"  style="overflow:visible;"/>
		</clipPath>
		<rect x="187" y="95.5" class="st73" width="20" height="30"/>
	</g>
</g>
<g>
	<defs>
		<path id="SVGID_149_" d="M165,153.5h-13v-18c0-2.8,2.2-5,5-5h3c2.8,0,5,2.2,5,5V153.5z"/>
	</defs>
	<clipPath id="SVGID_150_">
		<use xlink:href="#SVGID_149_"  style="overflow:visible;"/>
	</clipPath>
	<g class="st74">
		<defs>
			<rect id="SVGID_151_" x="-583" y="-1055.5" width="1400" height="2410"/>
		</defs>
		<clipPath id="SVGID_152_">
			<use xlink:href="#SVGID_151_"  style="overflow:visible;"/>
		</clipPath>
		<rect x="147" y="125.5" class="st75" width="23" height="33"/>
	</g>
</g>
<g>
	<defs>
		<path id="SVGID_153_" d="M162,150.5h-10v-15c0-2.8,2.2-5,5-5s5,2.2,5,5V150.5z"/>
	</defs>
	<clipPath id="SVGID_154_">
		<use xlink:href="#SVGID_153_"  style="overflow:visible;"/>
	</clipPath>
	<g class="st76">
		<defs>
			<rect id="SVGID_155_" x="-583" y="-1055.5" width="1400" height="2410"/>
		</defs>
		<clipPath id="SVGID_156_">
			<use xlink:href="#SVGID_155_"  style="overflow:visible;"/>
		</clipPath>
		<rect x="147" y="125.5" class="st77" width="20" height="30"/>
	</g>
</g>
<g>
	<defs>
		<path id="SVGID_157_" d="M185,153.5h-13v-18c0-2.8,2.2-5,5-5h3c2.8,0,5,2.2,5,5V153.5z"/>
	</defs>
	<clipPath id="SVGID_158_">
		<use xlink:href="#SVGID_157_"  style="overflow:visible;"/>
	</clipPath>
	<g class="st78">
		<defs>
			<rect id="SVGID_159_" x="-583" y="-1055.5" width="1400" height="2410"/>
		</defs>
		<clipPath id="SVGID_160_">
			<use xlink:href="#SVGID_159_"  style="overflow:visible;"/>
		</clipPath>
		<rect x="167" y="125.5" class="st79" width="23" height="33"/>
	</g>
</g>
<g>
	<defs>
		<path id="SVGID_161_" d="M182,150.5h-10v-15c0-2.8,2.2-5,5-5s5,2.2,5,5V150.5z"/>
	</defs>
	<clipPath id="SVGID_162_">
		<use xlink:href="#SVGID_161_"  style="overflow:visible;"/>
	</clipPath>
	<g class="st80">
		<defs>
			<rect id="SVGID_163_" x="-583" y="-1055.5" width="1400" height="2410"/>
		</defs>
		<clipPath id="SVGID_164_">
			<use xlink:href="#SVGID_163_"  style="overflow:visible;"/>
		</clipPath>
		<rect x="167" y="125.5" class="st81" width="20" height="30"/>
	</g>
</g>
<g>
	<defs>
		<path id="SVGID_165_" d="M205,153.5h-13v-18c0-2.8,2.2-5,5-5h3c2.8,0,5,2.2,5,5V153.5z"/>
	</defs>
	<clipPath id="SVGID_166_">
		<use xlink:href="#SVGID_165_"  style="overflow:visible;"/>
	</clipPath>
	<g class="st82">
		<defs>
			<rect id="SVGID_167_" x="-583" y="-1055.5" width="1400" height="2410"/>
		</defs>
		<clipPath id="SVGID_168_">
			<use xlink:href="#SVGID_167_"  style="overflow:visible;"/>
		</clipPath>
		<rect x="187" y="125.5" class="st83" width="23" height="33"/>
	</g>
</g>
<g>
	<defs>
		<path id="SVGID_169_" d="M202,150.5h-10v-15c0-2.8,2.2-5,5-5s5,2.2,5,5V150.5z"/>
	</defs>
	<clipPath id="SVGID_170_">
		<use xlink:href="#SVGID_169_"  style="overflow:visible;"/>
	</clipPath>
	<g class="st84">
		<defs>
			<rect id="SVGID_171_" x="-583" y="-1055.5" width="1400" height="2410"/>
		</defs>
		<clipPath id="SVGID_172_">
			<use xlink:href="#SVGID_171_"  style="overflow:visible;"/>
		</clipPath>
		<rect x="187" y="125.5" class="st85" width="20" height="30"/>
	</g>
</g>
<g>
	<defs>
		<rect id="SVGID_173_" x="-583" y="-1055.5" width="1400" height="2410"/>
	</defs>
	<clipPath id="SVGID_174_">
		<use xlink:href="#SVGID_173_"  style="overflow:visible;"/>
	</clipPath>
	<rect x="141" y="89.5" class="st86" width="72" height="74"/>
	<polyline class="st86" points="203,86.5 203,79.5 151,79.5 151,86.5 	"/>
	<rect x="141" y="163.5" class="st86" width="72" height="44"/>
</g>
<g>
	<defs>
		<polygon id="SVGID_175_" points="54,222.5 54,145.5 48.3,137.1 90,109.3 131.7,137.1 126,145.5 126,222.5 		"/>
	</defs>
	<clipPath id="SVGID_176_">
		<use xlink:href="#SVGID_175_"  style="overflow:visible;"/>
	</clipPath>
	<g class="st87">
		<defs>
			<rect id="SVGID_177_" x="-583" y="-1055.5" width="1400" height="2410"/>
		</defs>
		<clipPath id="SVGID_178_">
			<use xlink:href="#SVGID_177_"  style="overflow:visible;"/>
		</clipPath>
		<rect x="43.3" y="104.3" class="st88" width="93.3" height="123.2"/>
	</g>
</g>
<g>
	<defs>
		<polygon id="SVGID_179_" points="60,136.5 60,216.5 120,216.5 120,136.5 90,116.5 		"/>
	</defs>
	<clipPath id="SVGID_180_">
		<use xlink:href="#SVGID_179_"  style="overflow:visible;"/>
	</clipPath>
	<g class="st89">
		<defs>
			<rect id="SVGID_181_" x="-583" y="-1055.5" width="1400" height="2410"/>
		</defs>
		<clipPath id="SVGID_182_">
			<use xlink:href="#SVGID_181_"  style="overflow:visible;"/>
		</clipPath>
		<rect x="55" y="111.5" class="st90" width="70" height="110"/>
	</g>
</g>
<g>
	<defs>
		<polygon id="SVGID_183_" points="66,214.5 66,140.6 92,123.3 118,140.6 118,214.5 		"/>
	</defs>
	<clipPath id="SVGID_184_">
		<use xlink:href="#SVGID_183_"  style="overflow:visible;"/>
	</clipPath>
	<g class="st91">
		<defs>
			<rect id="SVGID_185_" x="-583" y="-1055.5" width="1400" height="2410"/>
		</defs>
		<clipPath id="SVGID_186_">
			<use xlink:href="#SVGID_185_"  style="overflow:visible;"/>
		</clipPath>
		<rect x="61" y="118.3" class="st92" width="62" height="101.2"/>
	</g>
</g>
<g>
	<defs>
		<rect id="SVGID_187_" x="74" y="143.5" width="13" height="17"/>
	</defs>
	<clipPath id="SVGID_188_">
		<use xlink:href="#SVGID_187_"  style="overflow:visible;"/>
	</clipPath>
	<g class="st93">
		<defs>
			<rect id="SVGID_189_" x="-583" y="-1055.5" width="1400" height="2410"/>
		</defs>
		<clipPath id="SVGID_190_">
			<use xlink:href="#SVGID_189_"  style="overflow:visible;"/>
		</clipPath>
		<rect x="69" y="138.5" class="st94" width="23" height="27"/>
	</g>
</g>
<g>
	<defs>
		<rect id="SVGID_191_" x="96" y="143.5" width="13" height="17"/>
	</defs>
	<clipPath id="SVGID_192_">
		<use xlink:href="#SVGID_191_"  style="overflow:visible;"/>
	</clipPath>
	<g class="st95">
		<defs>
			<rect id="SVGID_193_" x="-583" y="-1055.5" width="1400" height="2410"/>
		</defs>
		<clipPath id="SVGID_194_">
			<use xlink:href="#SVGID_193_"  style="overflow:visible;"/>
		</clipPath>
		<rect x="91" y="138.5" class="st96" width="23" height="27"/>
	</g>
</g>
<g>
	<defs>
		<rect id="SVGID_195_" x="74" y="165.5" width="13" height="17"/>
	</defs>
	<clipPath id="SVGID_196_">
		<use xlink:href="#SVGID_195_"  style="overflow:visible;"/>
	</clipPath>
	<g class="st97">
		<defs>
			<rect id="SVGID_197_" x="-583" y="-1055.5" width="1400" height="2410"/>
		</defs>
		<clipPath id="SVGID_198_">
			<use xlink:href="#SVGID_197_"  style="overflow:visible;"/>
		</clipPath>
		<rect x="69" y="160.5" class="st98" width="23" height="27"/>
	</g>
</g>
<g>
	<defs>
		<rect id="SVGID_199_" x="96" y="165.5" width="13" height="17"/>
	</defs>
	<clipPath id="SVGID_200_">
		<use xlink:href="#SVGID_199_"  style="overflow:visible;"/>
	</clipPath>
	<g class="st99">
		<defs>
			<rect id="SVGID_201_" x="-583" y="-1055.5" width="1400" height="2410"/>
		</defs>
		<clipPath id="SVGID_202_">
			<use xlink:href="#SVGID_201_"  style="overflow:visible;"/>
		</clipPath>
		<rect x="91" y="160.5" class="st100" width="23" height="27"/>
	</g>
</g>
<g>
	<defs>
		<rect id="SVGID_203_" x="74" y="187.5" width="13" height="17"/>
	</defs>
	<clipPath id="SVGID_204_">
		<use xlink:href="#SVGID_203_"  style="overflow:visible;"/>
	</clipPath>
	<g class="st101">
		<defs>
			<rect id="SVGID_205_" x="-583" y="-1055.5" width="1400" height="2410"/>
		</defs>
		<clipPath id="SVGID_206_">
			<use xlink:href="#SVGID_205_"  style="overflow:visible;"/>
		</clipPath>
		<rect x="69" y="182.5" class="st102" width="23" height="27"/>
	</g>
</g>
<g>
	<defs>
		<rect id="SVGID_207_" x="96" y="187.5" width="13" height="17"/>
	</defs>
	<clipPath id="SVGID_208_">
		<use xlink:href="#SVGID_207_"  style="overflow:visible;"/>
	</clipPath>
	<g class="st103">
		<defs>
			<rect id="SVGID_209_" x="-583" y="-1055.5" width="1400" height="2410"/>
		</defs>
		<clipPath id="SVGID_210_">
			<use xlink:href="#SVGID_209_"  style="overflow:visible;"/>
		</clipPath>
		<rect x="91" y="182.5" class="st104" width="23" height="27"/>
	</g>
</g>
<g>
	<defs>
		<rect id="SVGID_211_" x="-583" y="-1055.5" width="1400" height="2410"/>
	</defs>
	<clipPath id="SVGID_212_">
		<use xlink:href="#SVGID_211_"  style="overflow:visible;"/>
	</clipPath>
	<polyline class="st105" points="60,136.5 60,216.5 120,216.5 120,136.5 	"/>
	<polyline class="st105" points="125,139.8 90,116.5 55,139.8 	"/>
</g>
<g>
	<defs>
		<rect id="SVGID_213_" x="74" y="143.5" width="10" height="14"/>
	</defs>
	<clipPath id="SVGID_214_">
		<use xlink:href="#SVGID_213_"  style="overflow:visible;"/>
	</clipPath>
	<g class="st106">
		<defs>
			<rect id="SVGID_215_" x="-583" y="-1055.5" width="1400" height="2410"/>
		</defs>
		<clipPath id="SVGID_216_">
			<use xlink:href="#SVGID_215_"  style="overflow:visible;"/>
		</clipPath>
		<rect x="69" y="138.5" class="st107" width="20" height="24"/>
	</g>
</g>
<g>
	<defs>
		<rect id="SVGID_217_" x="96" y="143.5" width="10" height="14"/>
	</defs>
	<clipPath id="SVGID_218_">
		<use xlink:href="#SVGID_217_"  style="overflow:visible;"/>
	</clipPath>
	<g class="st108">
		<defs>
			<rect id="SVGID_219_" x="-583" y="-1055.5" width="1400" height="2410"/>
		</defs>
		<clipPath id="SVGID_220_">
			<use xlink:href="#SVGID_219_"  style="overflow:visible;"/>
		</clipPath>
		<rect x="91" y="138.5" class="st109" width="20" height="24"/>
	</g>
</g>
<g>
	<defs>
		<rect id="SVGID_221_" x="74" y="165.5" width="10" height="14"/>
	</defs>
	<clipPath id="SVGID_222_">
		<use xlink:href="#SVGID_221_"  style="overflow:visible;"/>
	</clipPath>
	<g class="st110">
		<defs>
			<rect id="SVGID_223_" x="-583" y="-1055.5" width="1400" height="2410"/>
		</defs>
		<clipPath id="SVGID_224_">
			<use xlink:href="#SVGID_223_"  style="overflow:visible;"/>
		</clipPath>
		<rect x="69" y="160.5" class="st111" width="20" height="24"/>
	</g>
</g>
<g>
	<defs>
		<rect id="SVGID_225_" x="96" y="165.5" width="10" height="14"/>
	</defs>
	<clipPath id="SVGID_226_">
		<use xlink:href="#SVGID_225_"  style="overflow:visible;"/>
	</clipPath>
	<g class="st112">
		<defs>
			<rect id="SVGID_227_" x="-583" y="-1055.5" width="1400" height="2410"/>
		</defs>
		<clipPath id="SVGID_228_">
			<use xlink:href="#SVGID_227_"  style="overflow:visible;"/>
		</clipPath>
		<rect x="91" y="160.5" class="st113" width="20" height="24"/>
	</g>
</g>
<g>
	<defs>
		<rect id="SVGID_229_" x="74" y="187.5" width="10" height="14"/>
	</defs>
	<clipPath id="SVGID_230_">
		<use xlink:href="#SVGID_229_"  style="overflow:visible;"/>
	</clipPath>
	<g class="st114">
		<defs>
			<rect id="SVGID_231_" x="-583" y="-1055.5" width="1400" height="2410"/>
		</defs>
		<clipPath id="SVGID_232_">
			<use xlink:href="#SVGID_231_"  style="overflow:visible;"/>
		</clipPath>
		<rect x="69" y="182.5" class="st115" width="20" height="24"/>
	</g>
</g>
<g>
	<defs>
		<rect id="SVGID_233_" x="96" y="187.5" width="10" height="14"/>
	</defs>
	<clipPath id="SVGID_234_">
		<use xlink:href="#SVGID_233_"  style="overflow:visible;"/>
	</clipPath>
	<g class="st116">
		<defs>
			<rect id="SVGID_235_" x="-583" y="-1055.5" width="1400" height="2410"/>
		</defs>
		<clipPath id="SVGID_236_">
			<use xlink:href="#SVGID_235_"  style="overflow:visible;"/>
		</clipPath>
		<rect x="91" y="182.5" class="st117" width="20" height="24"/>
	</g>
</g>
<g>
	<defs>
		<path id="SVGID_237_" d="M186,34.5c-5,0-9-4-9-9c0-0.3,0-0.6,0.1-0.9c-4.5,0.5-8.1,4.3-8.1,8.9c0,5,4,9,9,9c4.6,0,8.5-3.5,8.9-8.1
			C186.7,34.4,186.3,34.5,186,34.5"/>
	</defs>
	<clipPath id="SVGID_238_">
		<use xlink:href="#SVGID_237_"  style="overflow:visible;"/>
	</clipPath>
	<g class="st118">
		<defs>
			<rect id="SVGID_239_" x="-583" y="-1055.5" width="1400" height="2410"/>
		</defs>
		<clipPath id="SVGID_240_">
			<use xlink:href="#SVGID_239_"  style="overflow:visible;"/>
		</clipPath>
		<rect x="164" y="19.5" class="st119" width="27.9" height="27.9"/>
	</g>
</g>
<g>
	<defs>
		<path id="SVGID_241_" d="M56.3,35.3c-2.8,0-5-2.2-5-5c0,2.8-2.2,5-5,5c2.8,0,5,2.2,5,5C51.3,37.5,53.6,35.3,56.3,35.3"/>
	</defs>
	<clipPath id="SVGID_242_">
		<use xlink:href="#SVGID_241_"  style="overflow:visible;"/>
	</clipPath>
	<g class="st120">
		<defs>
			<rect id="SVGID_243_" x="-583" y="-1055.5" width="1400" height="2410"/>
		</defs>
		<clipPath id="SVGID_244_">
			<use xlink:href="#SVGID_243_"  style="overflow:visible;"/>
		</clipPath>
		<rect x="41.3" y="25.3" class="st121" width="20" height="20"/>
	</g>
</g>
<g>
	<defs>
		<path id="SVGID_245_" d="M142.8,14.2c-3.3,0-6-2.7-6-6c0,3.3-2.7,6-6,6c3.3,0,6,2.7,6,6C136.8,16.9,139.4,14.2,142.8,14.2"/>
	</defs>
	<clipPath id="SVGID_246_">
		<use xlink:href="#SVGID_245_"  style="overflow:visible;"/>
	</clipPath>
	<g class="st122">
		<defs>
			<rect id="SVGID_247_" x="-583" y="-1055.5" width="1400" height="2410"/>
		</defs>
		<clipPath id="SVGID_248_">
			<use xlink:href="#SVGID_247_"  style="overflow:visible;"/>
		</clipPath>
		<rect x="125.8" y="3.2" class="st123" width="22" height="22"/>
	</g>
</g>
</svg>
