<svg width="28" height="39" viewBox="0 0 28 39" fill="none" xmlns="http://www.w3.org/2000/svg">
    <path
        d="M21.9088 26.0907L21.9062 26.0939C20.1007 28.401 18.7286 30.3276 17.797 31.8696C16.8634 33.4151 16.0911 35.0497 15.4801 36.7727C15.3448 37.134 15.1462 37.3878 14.8926 37.5614C14.6276 37.7427 14.3349 37.8333 14 37.8333C13.6651 37.8333 13.3724 37.7427 13.1074 37.5614C12.8535 37.3876 12.6547 37.1334 12.5194 36.7714C11.8751 34.9848 11.0695 33.2945 10.1024 31.701C9.13776 30.1115 7.79914 28.241 6.09201 26.0917C4.43855 24.0001 3.08793 22.01 2.0369 20.1214C1.02036 18.2948 0.5 16.0668 0.5 13.4167C0.5 9.8165 1.80194 6.77609 4.42095 4.2662C7.04084 1.75548 10.2237 0.5 14 0.5C17.7763 0.5 20.9592 1.75548 23.579 4.2662C26.1981 6.77609 27.5 9.8165 27.5 13.4167C27.5 16.2594 26.9377 18.5846 25.8453 20.4204C24.7076 22.3323 23.3957 24.2224 21.9088 26.0907Z"
        fill="#205493" stroke="#BBD5FF" shape-rendering="geometricPrecision" />
</svg>