<svg width="200" height="44" viewBox="0 0 200 44" fill="none" xmlns="http://www.w3.org/2000/svg">
<g clip-path="url(#clip0_790_1778)">
<path d="M30.8457 18.0488C30.8481 10.7002 36.9281 4.55317 44.1257 4.55566C51.2724 4.55816 57.299 10.7102 57.2966 18.0588C57.2942 25.4073 51.2627 31.6043 44.116 31.6018C36.9184 31.5993 30.8433 25.3974 30.8457 18.0488ZM52.4821 18.0563C52.4821 13.0559 48.6445 8.85562 44.1233 8.85313C39.5027 8.85313 35.6603 13.0509 35.6603 18.0488C35.6603 23.0991 39.4978 27.2993 44.1184 27.3018C48.6396 27.3018 52.4821 23.1066 52.4845 18.0563H52.4821Z" fill="#0F2B50"/>
<path d="M60.9404 18.061C60.9429 10.7125 67.0229 4.56538 74.2204 4.56787C81.3671 4.57036 87.3938 10.7224 87.3913 18.071C87.3889 25.4196 81.3574 31.6165 74.2107 31.614C67.0132 31.6115 60.938 25.4096 60.9404 18.061ZM82.5768 18.0685C82.5768 13.0681 78.7392 8.86786 74.218 8.86536C69.6968 8.86287 65.755 13.0631 65.755 18.061C65.755 23.1113 69.5926 27.3116 74.2132 27.3141C78.7344 27.3141 82.5768 23.1188 82.5792 18.0685H82.5768Z" fill="#0F2B50"/>
<path d="M108.967 5.18115H113.878L119.658 24.4325L125.888 5.18614H129.973L136.189 24.4375L141.932 5.19112H146.843L138.373 31.0382H133.949L127.927 11.8367L121.842 31.0332H117.418L108.967 5.18115Z" fill="#0F2B50"/>
<path d="M175.954 39.0054L177.026 35.2065C177.998 35.7574 179.115 36.0067 180.087 36.0067C181.644 36.0067 182.713 35.5081 183.542 34.0075L184.807 31.258L174.024 5.25635H179.178L187.241 25.6593L194.883 5.26383H199.891L188.795 33.4591C186.994 38.108 184.32 40.0573 180.723 40.1047C179.021 40.1047 177.27 39.7034 175.959 39.0029L175.954 39.0054Z" fill="#0F2B50"/>
<path d="M105.832 4.63286V8.93282C100.56 10.239 97.9875 11.1165 96.8578 14.5963C96.596 15.4015 96.4918 16.2515 96.4918 17.099L96.4869 31.0758H91.6748L91.6845 5.22613H96.4966V10.1767C97.1681 6.49743 101.532 5.25106 105.835 4.63037L105.832 4.63286Z" fill="#0F2B50"/>
<path d="M0.365637 0.5L11.139 0.504985C21.2311 0.509971 27.1996 5.78209 27.1972 15.1772C27.1947 24.5723 21.2214 31.5046 11.1269 31.4996L0.353516 31.4946L0.365637 0.5ZM11.4008 27.1996C18.6299 27.2021 22.465 22.0945 22.4699 15.1747C22.4723 8.30224 16.9693 4.80494 11.4105 4.80494H5.79353C5.3305 4.80494 4.95474 5.18882 4.95474 5.66494L4.94746 26.3371C4.94746 26.8133 5.32322 27.1996 5.78625 27.1996H11.4032H11.4008Z" fill="#0F2B50"/>
<path d="M170.787 30.9362L170.807 12.4825C170.807 9.90253 169.634 7.56435 167.735 5.87428C165.835 4.18421 163.212 3.13726 160.31 3.13477C157.408 3.13228 154.785 4.17922 152.884 5.8668C150.984 7.55687 149.808 9.89256 149.806 12.4725L149.801 30.9337" fill="#F96E10"/>
<path d="M155.583 15.7256C156.865 15.7256 157.874 16.9221 157.617 18.2881C157.459 19.1207 156.807 19.7887 155.998 19.9508C154.669 20.215 153.508 19.1755 153.508 17.8594C153.508 16.6803 154.436 15.7256 155.583 15.7256Z" fill="white"/>
<path d="M0 36.4849H3.31152C4.48 36.4849 5.30182 37.2252 5.30182 38.2697C5.30182 39.0225 4.93576 39.4911 4.30545 39.8575C5.11758 40.2638 5.58545 40.912 5.58545 41.7071C5.58545 42.8563 4.69091 43.6589 3.44242 43.6589H0V36.4849ZM3.2097 42.7292C3.99273 42.7292 4.54061 42.2381 4.54061 41.5501C4.54061 40.8621 3.99273 40.371 3.2097 40.371H1.02545V42.7316H3.2097V42.7292ZM3.05697 39.4712C3.75758 39.4712 4.25455 39.0424 4.25455 38.4466C4.25455 37.8509 3.75758 37.4122 3.05697 37.4122H1.02545V39.4687H3.05697V39.4712Z" fill="#0F2B50"/>
<path d="M11.3457 42.1981H7.70932L7.10084 43.6614H5.96387L8.96023 36.4873H10.0972L13.0936 43.6614H11.9566L11.3481 42.1981H11.3457ZM10.9505 41.2484L9.5275 37.8434L8.10447 41.2484H10.9481H10.9505Z" fill="#0F2B50"/>
<path d="M15.3669 40.8496L12.5742 36.4849H13.813L15.8954 39.8476L18.0069 36.4849H19.1948L16.4215 40.8496V43.6589H15.3645V40.8496H15.3669Z" fill="#0F2B50"/>
<path d="M26.3662 42.1981H22.7298L22.1213 43.6614H20.9844L23.9807 36.4873H25.1177L28.114 43.6614H26.9771L26.3686 42.1981H26.3662ZM25.971 41.2484L24.548 37.8434L23.125 41.2484H25.9686H25.971Z" fill="#0F2B50"/>
<path d="M32.8026 41.059L34.5796 43.6589H33.4014L31.6948 41.1637H30.0899V43.6589H29.0645V36.4849H32.0002C33.4717 36.4849 34.5893 37.457 34.5893 38.823C34.5893 39.9298 33.8572 40.7749 32.8026 41.059ZM30.0899 40.1816H31.8572C32.8632 40.1816 33.542 39.6706 33.542 38.823C33.542 37.9755 32.8608 37.4645 31.8572 37.4645H30.0899V40.1791V40.1816Z" fill="#0F2B50"/>
<path d="M36.9966 37.4669V39.5135H40.6935V40.4956H36.9966V42.6792H41.0887V43.6614H35.959V36.4873H41.0887V37.4694H36.9966V37.4669Z" fill="#0F2B50"/>
<path d="M47.3096 42.1981H43.6732L43.0647 43.6614H41.9277L44.9241 36.4873H46.0611L49.0574 43.6614H47.9205L47.312 42.1981H47.3096ZM46.9144 41.2484L45.4914 37.8434L44.0683 41.2484H46.912H46.9144Z" fill="#0F2B50"/>
<path d="M57.7724 42.1981H54.1361L53.5276 43.6614H52.3906L55.387 36.4873H56.524L59.5203 43.6614H58.3834L57.7749 42.1981H57.7724ZM57.3773 41.2484L55.9543 37.8434L54.5312 41.2484H57.3749H57.3773Z" fill="#0F2B50"/>
<path d="M61.5059 37.4669V39.5559H65.2028V40.538H61.5059V43.6614H60.4707V36.4873H65.6004V37.4694H61.5083L61.5059 37.4669Z" fill="#0F2B50"/>
<path d="M67.9736 37.4669V39.5559H71.6706V40.538H67.9736V43.6614H66.9385V36.4873H72.0682V37.4694H67.9761L67.9736 37.4669Z" fill="#0F2B50"/>
<path d="M72.7178 40.067C72.7178 38.0504 74.3832 36.3604 76.3444 36.3604C78.3057 36.3604 79.9493 38.0529 79.9493 40.067C79.9493 42.0812 78.3032 43.7837 76.3444 43.7837C74.3857 43.7837 72.7178 42.0812 72.7178 40.067ZM78.902 40.067C78.902 38.5839 77.7335 37.33 76.342 37.33C74.9505 37.33 73.7723 38.5839 73.7723 40.067C73.7723 41.5502 74.9505 42.814 76.342 42.814C77.7335 42.814 78.902 41.5602 78.902 40.067Z" fill="#0F2B50"/>
<path d="M84.996 41.059L86.773 43.6589H85.5948L83.8881 41.1637H82.2833V43.6589H81.2578V36.4849H84.1936C85.6651 36.4849 86.7827 37.457 86.7827 38.823C86.7827 39.9298 86.0505 40.7749 84.996 41.059ZM82.2833 40.1816H84.0505C85.0566 40.1816 85.7378 39.6706 85.7378 38.823C85.7378 37.9755 85.0566 37.4645 84.0505 37.4645H82.2833V40.1791V40.1816Z" fill="#0F2B50"/>
<path d="M88.2256 36.4849H90.6329C92.8874 36.4849 94.4922 37.968 94.4922 40.0669C94.4922 42.1658 92.8874 43.6589 90.6329 43.6589H88.2256V36.4849ZM90.6935 42.6992C92.308 42.6992 93.4353 41.6124 93.4353 40.0669C93.4353 38.5214 92.308 37.4446 90.6935 37.4446H89.251V42.6967H90.6935V42.6992Z" fill="#0F2B50"/>
<path d="M100.322 42.1981H96.6859L96.0774 43.6614H94.9404L97.9368 36.4873H99.0738L102.07 43.6614H100.933L100.325 42.1981H100.322ZM99.9271 41.2484L98.5041 37.8434L97.081 41.2484H99.9247H99.9271Z" fill="#0F2B50"/>
<path d="M103.076 36.4849H106.388C107.556 36.4849 108.378 37.2252 108.378 38.2697C108.378 39.0225 108.012 39.4911 107.382 39.8575C108.194 40.2638 108.662 40.912 108.662 41.7071C108.662 42.8563 107.767 43.6589 106.519 43.6589H103.076V36.4849ZM106.286 42.7292C107.069 42.7292 107.617 42.2381 107.617 41.5501C107.617 40.8621 107.069 40.371 106.286 40.371H104.102V42.7316H106.286V42.7292ZM106.133 39.4712C106.834 39.4712 107.331 39.0424 107.331 38.4466C107.331 37.8509 106.834 37.4122 106.133 37.4122H104.102V39.4687H106.133V39.4712Z" fill="#0F2B50"/>
<path d="M114.938 42.6792V43.6614H110.206V36.4873H111.241V42.6792H114.938Z" fill="#0F2B50"/>
<path d="M117.052 37.4669V39.5135H120.749V40.4956H117.052V42.6792H121.144V43.6614H116.015V36.4873H121.144V37.4694H117.052V37.4669Z" fill="#0F2B50"/>
<path d="M131.655 36.4849V43.6589H130.63V40.4957H126.821V43.6589H125.796V36.4849H126.821V39.5135H130.63V36.4849H131.655Z" fill="#0F2B50"/>
<path d="M132.754 40.067C132.754 38.0504 134.419 36.3604 136.381 36.3604C138.342 36.3604 139.985 38.0529 139.985 40.067C139.985 42.0812 138.339 43.7837 136.381 43.7837C134.422 43.7837 132.754 42.0812 132.754 40.067ZM138.938 40.067C138.938 38.5839 137.77 37.33 136.378 37.33C134.987 37.33 133.808 38.5839 133.808 40.067C133.808 41.5502 134.987 42.814 136.378 42.814C137.77 42.814 138.938 41.5602 138.938 40.067Z" fill="#0F2B50"/>
<path d="M141.145 40.6427V36.4873H142.17V40.6227C142.17 41.9065 142.982 42.8263 144.141 42.8263C145.3 42.8263 146.102 41.9065 146.102 40.6227V36.4873H147.137V40.6427C147.137 42.4798 145.889 43.786 144.141 43.786C142.393 43.786 141.145 42.4798 141.145 40.6427Z" fill="#0F2B50"/>
<path d="M148.247 42.6273L148.868 41.8446C149.488 42.4503 150.218 42.8466 151.163 42.8466C152.109 42.8466 152.625 42.3257 152.625 41.7498C152.625 41.0718 152.046 40.8101 150.877 40.5384C149.454 40.1944 148.511 39.7557 148.511 38.4594C148.511 37.2579 149.527 36.3506 150.928 36.3506C152.005 36.3506 152.807 36.7569 153.479 37.3626L152.889 38.1553C152.3 37.6019 151.6 37.2779 150.889 37.2779C150.106 37.2779 149.559 37.7889 149.559 38.3647C149.559 39.0328 150.157 39.2621 151.306 39.5438C152.698 39.8778 153.663 40.3589 153.663 41.6426C153.663 42.8541 152.768 43.7739 151.125 43.7739C149.956 43.7739 148.991 43.3552 148.249 42.6248L148.247 42.6273Z" fill="#0F2B50"/>
<path d="M155.287 36.4849H156.313V43.6589H155.287V36.4849Z" fill="#0F2B50"/>
<path d="M158.325 36.4849H159.351L163.363 41.9265V36.4849H164.388V43.6589H163.363L159.351 38.2173V43.6589H158.325V36.4849Z" fill="#0F2B50"/>
<path d="M169.236 39.7953H172.121V42.657C171.462 43.3475 170.364 43.7837 169.38 43.7837C167.418 43.7837 165.743 42.0812 165.743 40.067C165.743 38.0529 167.418 36.3604 169.38 36.3604C170.364 36.3604 171.462 36.7891 172.121 37.4871L171.401 38.1975C170.924 37.664 170.102 37.33 169.38 37.33C167.978 37.33 166.8 38.5839 166.8 40.067C166.8 41.5502 167.978 42.814 169.38 42.814C169.969 42.814 170.628 42.5947 171.106 42.2183V40.7152H169.236V39.7953Z" fill="#0F2B50"/>
</g>
<defs>
<clipPath id="clip0_790_1778">
<rect width="200" height="43.3735" fill="white" transform="translate(0 0.5)"/>
</clipPath>
</defs>
</svg>
