<?xml version="1.0" encoding="utf-8"?>
<!-- Generator: Adobe Illustrator 22.1.0, SVG Export Plug-In . SVG Version: 6.00 Build 0)  -->
<svg version="1.1" id="Layer_1" xmlns="http://www.w3.org/2000/svg" xmlns:xlink="http://www.w3.org/1999/xlink" x="0px" y="0px"
	 viewBox="0 0 655 232" style="enable-background:new 0 0 655 232;" xml:space="preserve">
<style type="text/css">
	.st0{fill:#2D82E8;}
	.st1{fill:#333333;}
	.st2{display:none;fill:#333333;}
</style>
<g id="Page-1">
	<g id="logo_portal">
		<path id="Shape" class="st0" d="M361.7,39.4h-0.1v43.4h-68.4V39.4l34.3-16.3L361.7,39.4z M340.6,45.7h-10.4v21.6h10.4V45.7z
			 M314.2,45.7v21.6h10.4V45.7H314.2z M361.7,88.2h-68.4l-5.5,5.4h79.6L361.7,88.2z M372.7,32.5L327.4,11l-18.7,8.8V11h-10.4v13.8
			l-16.2,7.7l5.5,3.4L327.4,17l39.8,18.9L372.7,32.5z"/>
	</g>
</g>
<g>
	<polygon class="st1" points="329.6,154.8 329.6,168.6 335.3,168.6 335.3,134.9 329.6,134.9 329.6,149.4 312.8,149.4 312.8,134.9 
		307.1,134.9 307.1,168.6 312.8,168.6 312.8,154.8 	"/>
	<polygon class="st1" points="347.6,168.6 347.6,134.9 353.3,134.9 353.3,163.2 368.7,163.2 368.7,168.6 	"/>
	<rect x="377.7" y="134.9" class="st1" width="5.7" height="33.7"/>
	<path class="st1" d="M411.9,134.9h-6.1L391,168.6h6.1l3.3-7.7h16.9l3.3,7.7h6.1L411.9,134.9z M402.7,155.8l6.1-13.9l6.2,13.9H402.7
		z"/>
	<path class="st1" d="M284.9,134.9h-6.1L264,168.6h6.1l3.3-7.7h16.9l3.3,7.7h6.1L284.9,134.9z M275.7,155.8l6.1-13.9l6.2,13.9H275.7
		z"/>
	<path class="st1" d="M253.6,139.4c-3.2-2.9-7.8-4.4-13.9-4.4h-11.6v33.7h11.1c6.5,0,11.3-1.5,14.4-4.6c3.2-3.1,4.7-7.2,4.7-12.5
		C258.4,146.4,256.8,142.3,253.6,139.4z M249.4,160.5c-2.2,1.9-5.3,2.9-9.4,2.9h-6.3v-23h5.7c8.8,0,13.2,3.8,13.2,11.6
		C252.7,155.6,251.6,158.5,249.4,160.5z"/>
</g>
<path class="st2" d="M345.5,167c3.3,0,6.1-1.1,8.4-3.3c2.3-2.2,3.4-4.9,3.4-8.3c0-3.3-1.1-6.1-3.4-8.3c-2.3-2.2-5.1-3.3-8.4-3.3
	s-6.1,1.1-8.4,3.3c-2.3,2.3-3.4,5-3.4,8.3c0,3.3,1.1,6.1,3.4,8.3C339.4,165.9,342.2,167,345.5,167z M413,163.7
	c-2.3,2.2-5.1,3.3-8.4,3.3c-3.3,0-6.1-1.1-8.4-3.3c-2.3-2.2-3.4-5-3.4-8.3c0-3.3,1.1-6,3.4-8.3c2.3-2.2,5.1-3.3,8.4-3.3
	c3.3,0,6.1,1.1,8.4,3.3s3.4,5,3.4,8.3C416.4,158.8,415.2,161.5,413,163.7z M519.5,155.9v7.6c-2.1,2.3-5.1,3.5-9.1,3.5
	c-3.3,0-6.1-1.1-8.3-3.3c-2.2-2.2-3.3-4.9-3.3-8.3c0-3.3,1.1-6.1,3.4-8.3c2.3-2.2,5-3.3,8.2-3.3s5.9,0.9,8,2.8l-2,2.9
	c-0.9-0.7-1.8-1.3-2.6-1.6c-0.9-0.3-1.9-0.4-3.1-0.4c-2.3,0-4.2,0.7-5.7,2.2s-2.3,3.4-2.3,5.8c0,2.4,0.7,4.3,2.2,5.7
	c1.5,1.4,3.3,2.2,5.4,2.2c2.1,0,3.9-0.5,5.3-1.4v-6.1H519.5z M564,167c3.3,0,6.1-1.1,8.4-3.3c2.2-2.2,3.4-4.9,3.4-8.3
	c0-3.3-1.1-6.1-3.4-8.3c-2.3-2.2-5.1-3.3-8.4-3.3s-6.1,1.1-8.4,3.3c-2.3,2.3-3.4,5-3.4,8.3c0,3.3,1.1,6.1,3.4,8.3
	C557.9,165.9,560.7,167,564,167z M599,166.8l-5.9-8.1c3.2-1,4.8-3.3,4.8-7.1c0-2.5-0.7-4.3-2.2-5.5c-1.4-1.1-3.9-1.7-7.3-1.7h-8.3
	v22.4h3.8v-7.5h5l5.3,7.5H599z M611,166.8v-18.9h6.7v-3.5h-17.3v3.5h6.8v18.9H611z M636.2,166.8l-2.2-5.1h-11.2l-2.2,5.1h-4
	l9.9-22.4h4l9.9,22.4H636.2z M642.9,166.8h14v-3.6h-10.2v-18.8h-3.8V166.8z M624.3,158.2l4.1-9.2l4,9.2H624.3z M592.9,148.7
	c-0.8-0.5-2.2-0.8-4.2-0.8h-4.8v8h4.7c2.1,0,3.6-0.3,4.4-1s1.2-1.7,1.2-3.2C594,150.2,593.6,149.2,592.9,148.7z M569.6,149.7
	c-1.5-1.6-3.4-2.4-5.6-2.4s-4.1,0.8-5.6,2.4c-1.5,1.6-2.3,3.5-2.3,5.7c0,2.3,0.8,4.2,2.3,5.7c1.5,1.6,3.4,2.4,5.6,2.4
	s4.1-0.8,5.6-2.4s2.3-3.5,2.3-5.7S571.1,151.3,569.6,149.7z M544.4,148.8c-1-0.6-2.5-1-4.5-1H536v9h4.4c2.1,0,3.5-0.4,4.3-1.2
	s1.1-2,1.1-3.5S545.3,149.5,544.4,148.8z M540,160.3c3.3,0,5.7-0.6,7.3-1.9c1.6-1.3,2.4-3.3,2.3-5.9c0-2.7-0.7-4.7-2.3-6
	c-1.5-1.3-4-2-7.4-2h-7.7v22.4h3.8v-6.6H540z M477.7,150.5l12.7,16.3h4.1v-22.4h-3.8v16.7l-13-16.7h-3.8v22.4h3.8V150.5z
	 M464.4,166.8v-22.4h3.8v22.4H464.4z M451.6,147.4c1.1,0,2.2,0.2,3.3,0.6c1.1,0.3,2,0.8,2.8,1.4l2-2.8c-1-0.9-2.2-1.5-3.6-2
	c-1.5-0.5-2.9-0.7-4.3-0.7c-2.2,0-4.1,0.6-5.6,1.7c-1.5,1.1-2.3,2.7-2.3,4.8c0,2.1,0.7,3.6,2,4.6c0.7,0.5,1.4,1,2.3,1.3
	c0.8,0.3,2.1,0.7,3.7,1.1c1.7,0.4,2.8,0.8,3.5,1.3c0.7,0.5,1,1.1,1,2c0,0.9-0.4,1.6-1.1,2.1c-0.7,0.5-1.7,0.8-2.9,0.8
	c-2.4,0-4.7-0.9-7-2.9l-2.4,2.8c2.7,2.4,5.8,3.6,9.3,3.6c2.4,0,4.3-0.6,5.8-1.8c1.5-1.3,2.2-2.8,2.2-4.8c0-1.9-0.5-3.4-1.7-4.4
	c-1.2-1-2.9-1.7-5.2-2.3c-2.3-0.6-3.8-1.1-4.5-1.6c-0.7-0.5-1.1-1.2-1.1-2.1c0-0.9,0.4-1.6,1.1-2
	C449.6,147.6,450.5,147.4,451.6,147.4z M436.7,164.4c-1.8,1.7-4,2.6-6.8,2.6c-2.8,0-5-0.9-6.8-2.6c-1.8-1.7-2.7-4.2-2.7-7.4v-12.5
	h3.8v12.4c0,2,0.5,3.7,1.5,4.9s2.4,1.8,4.2,1.8c1.7,0,3.1-0.6,4.2-1.8c1-1.2,1.5-2.8,1.5-4.9v-12.4h3.8V157
	C439.3,160.2,438.4,162.7,436.7,164.4z M404.6,147.3c2.2,0,4.1,0.8,5.6,2.4c1.5,1.6,2.3,3.5,2.3,5.7s-0.8,4.1-2.3,5.7
	s-3.4,2.4-5.6,2.4c-2.2,0-4.1-0.8-5.6-2.4c-1.5-1.5-2.3-3.4-2.3-5.7c0-2.2,0.8-4.1,2.3-5.7C400.5,148.1,402.4,147.3,404.6,147.3z
	 M384.8,157.7v9.1v0.1h3.8v-22.4h-3.8v9.7h-11.1v-9.7h-3.8v22.4h3.8v-9.2H384.8z M351.1,149.7c-1.5-1.6-3.4-2.4-5.6-2.4
	s-4.1,0.8-5.6,2.4c-1.5,1.6-2.3,3.5-2.3,5.7c0,2.3,0.8,4.2,2.3,5.7c1.5,1.6,3.4,2.4,5.6,2.4s4.1-0.8,5.6-2.4s2.3-3.5,2.3-5.7
	S352.7,151.3,351.1,149.7z M329.5,150.4c-1.1-1-2.1-1.7-3-2.1s-2.1-0.6-3.3-0.6c-2.3,0-4.2,0.7-5.7,2.2s-2.3,3.3-2.3,5.6
	c0,2.3,0.8,4.2,2.3,5.7s3.3,2.3,5.4,2.3c1.3,0,2.4-0.2,3.4-0.7c0.9-0.4,1.9-1.1,2.9-2.1l2.4,2.5c-2.4,2.6-5.2,3.9-8.6,3.9
	s-6.2-1.1-8.4-3.3c-2.2-2.2-3.3-4.9-3.3-8.3c0-3.3,1.1-6.1,3.4-8.3c2.3-2.2,5.1-3.3,8.6-3.3s6.4,1.3,8.7,3.8L329.5,150.4z
	 M299.7,147.4c1.1,0,2.2,0.2,3.3,0.6c1.2,0.3,2.1,0.8,2.8,1.4l2-2.8c-1-0.9-2.2-1.5-3.6-2c-1.5-0.5-2.9-0.7-4.3-0.7
	c-2.2,0-4.1,0.6-5.6,1.7c-1.5,1.1-2.3,2.7-2.3,4.8c0,2.1,0.7,3.6,2,4.6c0.7,0.5,1.4,1,2.3,1.3c0.8,0.3,2.1,0.7,3.7,1.1
	c1.7,0.4,2.8,0.8,3.5,1.3s1,1.1,1,2c0,0.9-0.4,1.6-1.1,2.1c-0.7,0.5-1.7,0.8-2.9,0.8c-2.4,0-4.7-0.9-7-2.9l-2.4,2.8
	c2.7,2.4,5.8,3.6,9.3,3.6c2.4,0,4.3-0.6,5.8-1.8c1.5-1.3,2.2-2.8,2.2-4.8c0-1.9-0.5-3.4-1.7-4.4c-1.2-1-2.9-1.7-5.2-2.3
	c-2.3-0.6-3.8-1.1-4.5-1.6s-1.1-1.2-1.1-2.1c0-0.9,0.4-1.6,1.1-2C297.7,147.6,298.6,147.4,299.7,147.4z M283.4,166.8v-22.4h3.8v22.4
	H283.4z M274.2,148.3c0.9,0.4,1.9,1.1,3,2.1l2.5-2.7c-2.3-2.5-5.2-3.8-8.7-3.8s-6.3,1.1-8.6,3.3c-2.3,2.2-3.4,5-3.4,8.3
	c0,3.4,1.1,6.1,3.3,8.3c2.2,2.2,5,3.3,8.4,3.3c3.4,0,6.2-1.3,8.6-3.9l-2.4-2.5c-1,1-2,1.7-2.9,2.1c-1,0.5-2.1,0.7-3.4,0.7
	c-2.1,0-3.9-0.8-5.4-2.3s-2.3-3.4-2.3-5.7c0-2.3,0.8-4.1,2.3-5.6s3.4-2.2,5.7-2.2C272.1,147.7,273.3,147.9,274.2,148.3z
	 M250.5,166.8l-12.7-16.3v16.3H234v-22.4h3.8l13,16.7v-16.7h3.8v22.4H250.5z M215.5,158.2l4.1-9.2l4,9.2H215.5z M227.4,166.8
	l-2.2-5.1H214l-2.2,5.1h-4l9.9-22.4h4l9.9,22.4H227.4z M196.6,147.9c2,0,3.4,0.3,4.2,0.8s1.2,1.5,1.3,3c0,1.5-0.4,2.5-1.2,3.2
	c-0.8,0.7-2.3,1-4.4,1h-4.7v-8H196.6z M201,158.7l5.9,8.1h-4.8l-5.3-7.5h-5v7.5H188v-22.4h8.3c3.4,0,5.9,0.6,7.3,1.7
	c1.5,1.2,2.2,3,2.2,5.5C205.8,155.4,204.2,157.7,201,158.7z M172.9,148H184v-3.6h-14.9v22.4h3.8v-9.2h9.9v-3.5h-9.9V148z M151,166.8
	l-12.7-16.3v16.3h-3.8v-22.4h3.8l13,16.7v-16.7h3.8v22.4H151z M116,158.2l4.1-9.2l4,9.2H116z M127.9,166.8l-2.2-5.1h-11.2l-2.2,5.1
	h-4l9.9-22.4h4l9.9,22.4H127.9z M98.7,147.4c1.1,0,2.2,0.2,3.3,0.6c1.1,0.3,2,0.8,2.8,1.4l2-2.8c-1-0.9-2.2-1.5-3.6-2
	c-1.5-0.5-2.9-0.7-4.3-0.7c-2.2,0-4.1,0.6-5.6,1.7c-1.5,1.1-2.3,2.7-2.3,4.8c0,2.1,0.7,3.6,2,4.6c0.7,0.5,1.4,1,2.3,1.3
	c0.8,0.3,2.1,0.7,3.7,1.1c1.7,0.4,2.8,0.8,3.5,1.3s1,1.1,1,2c0,0.9-0.4,1.6-1.1,2.1c-0.7,0.5-1.7,0.8-2.9,0.8c-2.4,0-4.7-0.9-7-2.9
	l-2.4,2.8c2.7,2.4,5.8,3.6,9.3,3.6c2.4,0,4.3-0.6,5.8-1.8c1.5-1.3,2.2-2.8,2.2-4.8c0-1.9-0.5-3.4-1.7-4.4c-1.2-1-2.9-1.7-5.2-2.3
	c-2.3-0.6-3.8-1.1-4.5-1.6c-0.7-0.5-1.1-1.2-1.1-2.1c0-0.9,0.4-1.6,1.1-2C96.7,147.6,97.6,147.4,98.7,147.4z"/>
<g>
	<path class="st1" d="M494.8,206.9v8.7c-2.4,2.6-5.8,4-10.4,4c-3.8,0-7-1.3-9.5-3.8c-2.5-2.5-3.8-5.6-3.8-9.5c0-3.8,1.3-7,3.9-9.5
		s5.7-3.8,9.4-3.8c3.7,0,6.8,1,9.2,3.2l-2.3,3.3c-1-0.8-2.1-1.5-3-1.8c-1-0.3-2.2-0.5-3.6-0.5c-2.6,0-4.8,0.8-6.5,2.5
		c-1.7,1.7-2.6,3.9-2.6,6.6s0.8,4.9,2.5,6.5s3.8,2.5,6.2,2.5c2.4,0,4.5-0.6,6.1-1.6v-7H494.8z"/>
	<polygon class="st1" points="599.6,219.4 599.6,197.8 607.3,197.8 607.3,193.7 587.5,193.7 587.5,197.8 595.3,197.8 595.3,219.4 	
		"/>
	<polygon class="st1" points="636.2,219.4 652.3,219.4 652.3,215.3 640.6,215.3 640.6,193.7 636.2,193.7 	"/>
	<g>
		<path class="st1" d="M584.6,202c0-2.9-0.8-4.9-2.5-6.3c-1.6-1.3-4.5-1.9-8.4-1.9h-9.5v25.7h4.4v-8.6h5.7l6.1,8.6h5.5l-6.8-9.3
			C582.8,209,584.6,206.4,584.6,202z M574,206.9h-5.4v-9.2h5.5c2.3,0,3.9,0.3,4.8,0.9c0.8,0.6,1.3,1.7,1.5,3.4
			c0,1.7-0.5,2.9-1.4,3.7C578.1,206.6,576.4,206.9,574,206.9z"/>
		<path class="st1" d="M622,193.7h-4.6l-11.3,25.7h4.6l2.5-5.8H626l2.5,5.8h4.8L622,193.7z M614.9,209.6l4.7-10.5l4.6,10.5H614.9z"
			/>
		<path class="st1" d="M526.6,196.1c-1.7-1.5-4.6-2.3-8.5-2.3h-8.8v25.7h4.4V212h4.6c3.8,0,6.5-0.7,8.4-2.2c1.8-1.5,2.8-3.8,2.6-6.8
			C529.3,199.9,528.5,197.6,526.6,196.1z M523.6,206.6c-0.9,0.9-2.5,1.4-4.9,1.4h-5v-10.3h4.5c2.3,0,4,0.5,5.2,1.1
			c1,0.8,1.6,2.1,1.6,3.8C524.9,204.3,524.6,205.7,523.6,206.6z"/>
	</g>
	<polygon class="st1" points="446.8,200.7 461.4,219.4 466.1,219.4 466.1,193.7 461.7,193.7 461.7,212.9 446.8,193.7 442.5,193.7 
		442.5,219.4 446.8,219.4 	"/>
	<rect x="431.6" y="193.7" class="st1" width="4.4" height="25.7"/>
	<path class="st1" d="M416.9,197.2c1.3,0,2.5,0.2,3.8,0.7c1.3,0.3,2.3,0.9,3.2,1.6l2.3-3.2c-1.1-1-2.5-1.7-4.1-2.3
		c-1.7-0.6-3.3-0.8-4.9-0.8c-2.5,0-4.7,0.7-6.4,1.9s-2.6,3.1-2.6,5.5s0.8,4.1,2.3,5.3c0.8,0.6,1.6,1.1,2.6,1.5
		c0.9,0.3,2.4,0.8,4.2,1.3c1.9,0.5,3.2,0.9,4,1.5c0.8,0.6,1.1,1.3,1.1,2.3c0,1-0.5,1.8-1.3,2.4c-0.8,0.6-1.9,0.9-3.3,0.9
		c-2.8,0-5.4-1-8-3.3l-2.8,3.2c3.1,2.8,6.6,4.1,10.7,4.1c2.8,0,4.9-0.7,6.6-2.1c1.7-1.5,2.5-3.2,2.5-5.5c0-2.2-0.6-3.9-1.9-5
		c-1.4-1.1-3.3-1.9-6-2.6c-2.6-0.7-4.4-1.3-5.2-1.8c-0.8-0.6-1.3-1.4-1.3-2.4c0-1,0.5-1.8,1.3-2.3
		C414.6,197.4,415.7,197.2,416.9,197.2z"/>
	<path class="st1" d="M399.8,216.7c-2.1,1.9-4.6,3-7.8,3c-3.2,0-5.7-1-7.8-3c-2.1-1.9-3.1-4.8-3.1-8.5v-14.3h4.4v14.2
		c0,2.3,0.6,4.2,1.7,5.6c1.1,1.4,2.8,2.1,4.8,2.1c1.9,0,3.6-0.7,4.8-2.1c1.1-1.4,1.7-3.2,1.7-5.6v-14.2h4.4v14.3
		C402.8,211.9,401.8,214.7,399.8,216.7z"/>
	<polygon class="st1" points="340.3,209 340.3,219.4 340.3,219.5 344.7,219.5 344.7,193.9 340.3,193.9 340.3,205 327.6,205 
		327.6,193.9 323.3,193.9 323.3,219.5 327.6,219.5 327.6,209 	"/>
	<g>
		<path class="st1" d="M295.3,193.1c-3.8,0-7,1.3-9.6,3.8c-2.6,2.6-3.9,5.7-3.9,9.5s1.3,7,3.9,9.5c2.6,2.5,5.8,3.8,9.6,3.8
			s7-1.3,9.6-3.8c2.6-2.5,3.9-5.6,3.9-9.5c0-3.8-1.3-7-3.9-9.5C302.3,194.3,299.1,193.1,295.3,193.1z M301.7,212.9
			c-1.7,1.8-3.9,2.8-6.4,2.8s-4.7-0.9-6.4-2.8c-1.7-1.7-2.6-3.9-2.6-6.5c0-2.5,0.9-4.7,2.6-6.5c1.7-1.8,3.9-2.8,6.4-2.8
			s4.7,0.9,6.4,2.8c1.8,1.8,2.6,4,2.6,6.5C304.4,208.9,303.4,211.1,301.7,212.9z"/>
		<path class="st1" d="M363,193.1c-3.8,0-7,1.3-9.6,3.8c-2.6,2.6-3.9,5.7-3.9,9.5s1.3,7,3.9,9.5c2.6,2.5,5.8,3.8,9.6,3.8
			c3.8,0,7-1.3,9.6-3.8c2.5-2.5,3.9-5.6,3.9-9.5c0-3.8-1.3-7-3.9-9.5C370,194.3,366.8,193.1,363,193.1z M369.5,212.9
			c-1.7,1.8-3.9,2.8-6.4,2.8c-2.5,0-4.7-0.9-6.4-2.8c-1.7-1.7-2.6-3.9-2.6-6.5c0-2.5,0.9-4.7,2.6-6.5c1.7-1.8,3.9-2.8,6.4-2.8
			c2.5,0,4.7,0.9,6.4,2.8c1.7,1.8,2.6,4,2.6,6.5C372.1,208.9,371.2,211.1,369.5,212.9z"/>
		<path class="st1" d="M555.4,196.8c-2.6-2.5-5.8-3.8-9.6-3.8s-7,1.3-9.6,3.8c-2.6,2.6-3.9,5.7-3.9,9.5s1.3,7,3.9,9.5
			c2.6,2.5,5.8,3.8,9.6,3.8s7-1.3,9.6-3.8c2.5-2.5,3.9-5.6,3.9-9.5C559.3,202.6,558,199.4,555.4,196.8z M552.2,212.9
			c-1.7,1.8-3.9,2.8-6.4,2.8s-4.7-0.9-6.4-2.8c-1.7-1.7-2.6-3.9-2.6-6.5c0-2.5,0.9-4.7,2.6-6.5c1.7-1.8,3.9-2.8,6.4-2.8
			s4.7,0.9,6.4,2.8c1.7,1.8,2.6,4,2.6,6.5C554.8,208.9,553.9,211.1,552.2,212.9z"/>
	</g>
	<path class="st1" d="M277,200.6c-1.3-1.1-2.4-1.9-3.4-2.4s-2.4-0.7-3.8-0.7c-2.6,0-4.8,0.8-6.5,2.5c-1.7,1.7-2.6,3.8-2.6,6.4
		c0,2.6,0.9,4.8,2.6,6.5c1.7,1.7,3.8,2.6,6.2,2.6c1.5,0,2.8-0.2,3.9-0.8c1-0.5,2.2-1.3,3.3-2.4l2.8,2.9c-2.8,3-6,4.5-9.9,4.5
		c-3.9,0-7.1-1.3-9.6-3.8c-2.5-2.5-3.8-5.6-3.8-9.5c0-3.8,1.3-7,3.9-9.5c2.6-2.5,5.8-3.8,9.9-3.8s7.3,1.5,10,4.4L277,200.6z"/>
	<path class="st1" d="M242.8,197.2c1.3,0,2.5,0.2,3.8,0.7c1.4,0.3,2.4,0.9,3.2,1.6l2.3-3.2c-1.1-1-2.5-1.7-4.1-2.3
		c-1.7-0.6-3.3-0.8-4.9-0.8c-2.5,0-4.7,0.7-6.4,1.9s-2.6,3.1-2.6,5.5s0.8,4.1,2.3,5.3c0.8,0.6,1.6,1.1,2.6,1.5
		c0.9,0.3,2.4,0.8,4.2,1.3c1.9,0.5,3.2,0.9,4,1.5c0.8,0.6,1.1,1.3,1.1,2.3c0,1-0.5,1.8-1.3,2.4c-0.8,0.6-1.9,0.9-3.3,0.9
		c-2.8,0-5.4-1-8-3.3l-2.8,3.2c3.1,2.8,6.6,4.1,10.7,4.1c2.8,0,4.9-0.7,6.6-2.1c1.7-1.5,2.5-3.2,2.5-5.5c0-2.2-0.6-3.9-1.9-5
		c-1.4-1.1-3.3-1.9-6-2.6s-4.4-1.3-5.2-1.8c-0.8-0.6-1.3-1.4-1.3-2.4c0-1,0.5-1.8,1.3-2.3C240.5,197.4,241.5,197.2,242.8,197.2z"/>
	<rect x="224.1" y="193.7" class="st1" width="4.4" height="25.7"/>
	<path class="st1" d="M213.6,198.2c1,0.5,2.2,1.3,3.4,2.4l2.9-3.1c-2.6-2.9-6-4.4-10-4.4s-7.2,1.3-9.9,3.8c-2.6,2.5-3.9,5.7-3.9,9.5
		c0,3.9,1.3,7,3.8,9.5c2.5,2.5,5.7,3.8,9.6,3.8c3.9,0,7.1-1.5,9.9-4.5l-2.8-2.9c-1.1,1.1-2.3,1.9-3.3,2.4c-1.1,0.6-2.4,0.8-3.9,0.8
		c-2.4,0-4.5-0.9-6.2-2.6s-2.6-3.9-2.6-6.5c0-2.6,0.9-4.7,2.6-6.4c1.7-1.7,3.9-2.5,6.5-2.5C211.2,197.5,212.5,197.8,213.6,198.2z"/>
	<polygon class="st1" points="186.4,219.4 171.8,200.7 171.8,219.4 167.5,219.4 167.5,193.7 171.8,193.7 186.7,212.9 186.7,193.7 
		191.1,193.7 191.1,219.4 	"/>
	<g>
		<path class="st1" d="M153.4,193.7h-4.6l-11.3,25.7h4.6l2.5-5.8h12.8l2.5,5.8h4.8L153.4,193.7z M146.3,209.6L151,199l4.6,10.5
			H146.3z"/>
		<path class="st1" d="M135.2,202c0-2.9-0.8-4.9-2.5-6.3c-1.6-1.3-4.5-1.9-8.4-1.9h-9.5v25.7h4.4v-8.6h5.7l6.1,8.6h5.5l-6.8-9.3
			C133.3,209,135.2,206.4,135.2,202z M124.5,206.9h-5.4v-9.2h5.5c2.3,0,3.9,0.3,4.8,0.9s1.4,1.7,1.5,3.4c0,1.7-0.5,2.9-1.4,3.7
			C128.6,206.6,126.9,206.9,124.5,206.9z"/>
	</g>
	<polygon class="st1" points="97.4,197.9 110.2,197.9 110.2,193.7 93.1,193.7 93.1,219.4 97.4,219.4 97.4,208.9 108.8,208.9 
		108.8,204.9 97.4,204.9 	"/>
	<polygon class="st1" points="72.3,219.4 57.8,200.7 57.8,219.4 53.4,219.4 53.4,193.7 57.8,193.7 72.7,212.9 72.7,193.7 77,193.7 
		77,219.4 	"/>
	<path class="st1" d="M39.3,193.7h-4.6l-11.3,25.7H28l2.5-5.8h12.8l2.5,5.8h4.8L39.3,193.7z M32.2,209.6l4.7-10.5l4.6,10.5H32.2z"/>
	<path class="st1" d="M12.4,197.2c1.3,0,2.5,0.2,3.8,0.7c1.3,0.3,2.3,0.9,3.2,1.6l2.3-3.2c-1.1-1-2.5-1.7-4.1-2.3
		c-1.7-0.6-3.3-0.8-4.9-0.8c-2.5,0-4.7,0.7-6.4,1.9s-2.6,3.1-2.6,5.5s0.8,4.1,2.3,5.3c0.8,0.6,1.6,1.1,2.6,1.5
		c0.9,0.3,2.4,0.8,4.2,1.3c1.9,0.5,3.2,0.9,4,1.5s1.1,1.3,1.1,2.3c0,1-0.5,1.8-1.3,2.4c-0.8,0.6-1.9,0.9-3.3,0.9c-2.8,0-5.4-1-8-3.3
		l-2.8,3.2c3.1,2.8,6.6,4.1,10.7,4.1c2.8,0,4.9-0.7,6.6-2.1c1.7-1.5,2.5-3.2,2.5-5.5c0-2.2-0.6-3.9-1.9-5c-1.4-1.1-3.3-1.9-6-2.6
		c-2.6-0.7-4.4-1.3-5.2-1.8c-0.8-0.6-1.3-1.4-1.3-2.4c0-1,0.5-1.8,1.3-2.3C10.1,197.4,11.1,197.2,12.4,197.2z"/>
</g>
</svg>
