<svg width="100" height="96" xmlns="http://www.w3.org/2000/svg"><g fill="#FFF" fill-rule="nonzero"><path d="M11.485 78.11H7.573v1.549h3.593v1.307H7.573v1.903h4.085v1.308H6.065v-7.37h5.42v1.304-.001zm4.946 4.063l.74.696c-.258.132-.543.2-.832.197-.832 0-2.003-.512-2.003-2.575s1.17-2.575 2.003-2.575c.831 0 2 .512 2 2.575 0 .69-.133 1.2-.338 1.583l-.78-.729-.79.828zm3.48 1.702l-.803-.755c.452-.576.772-1.417.772-2.629 0-3.458-2.567-3.878-3.542-3.878-.975 0-3.54.42-3.54 3.878 0 3.46 2.565 3.88 3.54 3.88.43 0 1.19-.08 1.888-.495l.874.834.811-.835zm7.216-2.275c0 1.938-1.172 2.77-3.03 2.77-.677 0-1.683-.164-2.34-.892-.4-.448-.554-1.049-.574-1.786v-4.886h1.57v4.782c0 1.03.596 1.479 1.313 1.479 1.058 0 1.488-.513 1.488-1.406v-4.855h1.573V81.6zm4.124-3.13h.022l.912 2.915h-1.881l.947-2.915zm-1.358 4.184h2.721l.473 1.524h1.673l-2.595-7.372h-1.777l-2.627 7.372h1.621l.511-1.524zm7.608.19h3.664v1.333h-5.206v-7.37h1.542v6.037zm9.502-1.975v3.308h-1.537v-7.37h1.537v2.79h2.875v-2.79h1.537v7.37h-1.537V80.87h-2.875v-.001zm7.347-.378c0-2.063 1.172-2.575 2-2.575.834 0 2.004.512 2.004 2.575s-1.17 2.575-2.004 2.575c-.828 0-2-.512-2-2.575zm-1.538 0c0 3.46 2.568 3.88 3.538 3.88.98 0 3.544-.42 3.544-3.88 0-3.459-2.564-3.878-3.544-3.878-.97 0-3.538.42-3.538 3.878zm14.432 1.11c0 1.937-1.172 2.77-3.03 2.77-.678 0-1.681-.165-2.34-.893-.4-.448-.555-1.049-.573-1.786v-4.886h1.568v4.782c0 1.03.597 1.479 1.317 1.479 1.057 0 1.487-.513 1.487-1.406v-4.855h1.572V81.6l-.001.001zm2.817.306c.014.41.22 1.19 1.564 1.19.727 0 1.54-.173 1.54-.956 0-.572-.554-.728-1.333-.912l-.792-.185c-1.194-.277-2.342-.54-2.342-2.162 0-.822.444-2.27 2.834-2.27 2.26 0 2.865 1.477 2.876 2.38h-1.48c-.04-.325-.164-1.108-1.509-1.108-.583 0-1.281.216-1.281.883 0 .578.472.696.777.768l1.798.442c1.006.247 1.928.658 1.928 1.981 0 2.22-2.256 2.413-2.904 2.413-2.687 0-3.148-1.55-3.148-2.464h1.472zm7.382 2.27h-1.535v-7.37h1.535v7.37zm6.15-7.37h1.436v7.37H83.49l-3.005-5.258h-.026v5.258h-1.436v-7.37h1.622l2.922 5.132h.026v-5.133.001zm6.588 3.397h3.077v3.973h-1.024l-.154-.923c-.39.447-.954 1.116-2.3 1.116-1.774 0-3.384-1.273-3.384-3.858 0-2.01 1.119-3.911 3.6-3.9 2.261 0 3.155 1.466 3.232 2.486H91.69c0-.288-.525-1.214-1.611-1.214-1.1 0-2.116.759-2.116 2.646 0 2.014 1.099 2.536 2.145 2.536.339 0 1.471-.131 1.786-1.622h-1.713v-1.24zM7.277 91.688c0-2.063 1.17-2.578 2-2.578.831 0 2 .515 2 2.578 0 2.061-1.169 2.578-2 2.578-.83 0-2-.517-2-2.578zm-1.54 0c0 3.457 2.566 3.883 3.54 3.883.976 0 3.541-.426 3.541-3.883 0-3.458-2.566-3.879-3.54-3.879-.975 0-3.54.421-3.54 3.879h-.001zm11.3-.248v-2.167h1.22c.954 0 1.356.3 1.356 1.019 0 .328 0 1.148-1.15 1.148h-1.427.001zm0 1.275H18.8c1.982 0 2.35-1.685 2.35-2.351 0-1.447-.86-2.361-2.288-2.361h-3.365v7.371h1.54v-2.659zm8.291-1.275v-2.167h1.22c.954 0 1.355.3 1.355 1.019 0 .328 0 1.148-1.148 1.148h-1.427zm0 1.275h1.766c1.98 0 2.35-1.685 2.35-2.351 0-1.447-.86-2.361-2.288-2.361h-3.368v7.371h1.54v-2.659zm7.966-1.027c0-2.063 1.167-2.578 2.002-2.578.827 0 2 .515 2 2.578 0 2.061-1.172 2.578-2 2.578-.835 0-2.002-.517-2.002-2.578zm-1.54 0c0 3.457 2.565 3.883 3.542 3.883.972 0 3.538-.426 3.538-3.883 0-3.458-2.566-3.879-3.538-3.879-.977 0-3.542.421-3.542 3.879zm11.27-.442v-1.973h1.917c.904 0 1.077.578 1.077.967 0 .73-.389 1.006-1.19 1.006h-1.804zm-1.513 4.129h1.513V92.49h1.588c1.14 0 1.203.388 1.203 1.394 0 .758.058 1.137.161 1.49h1.706v-.198c-.329-.122-.329-.39-.329-1.464 0-1.38-.328-1.603-.933-1.87.728-.245 1.137-.945 1.137-1.754 0-.638-.357-2.084-2.318-2.084h-3.728v7.371zm11.782 0h-1.539v-6.068h-2.226v-1.304h5.994v1.304h-2.229v6.068zm10.49-2.58c0 1.94-1.17 2.776-3.029 2.776-.674 0-1.68-.171-2.338-.898-.4-.45-.554-1.046-.572-1.784v-4.886h1.568v4.782c0 1.026.596 1.481 1.314 1.481 1.056 0 1.487-.517 1.487-1.409v-4.854h1.571v4.792h-.001zm7.45-4.792h1.44v7.372H71.13l-3.008-5.258h-.016v5.258h-1.44v-7.372h1.622l2.927 5.13h.018v-5.13zm5.783 7.372h-1.544v-7.372h1.544v7.372zm6.01 0h-1.539v-6.068h-2.223v-1.304h5.99v1.304h-2.228v6.068zm8.049 0h-1.543v-2.783l-2.542-4.589h1.815l1.53 3.204 1.46-3.204h1.742l-2.462 4.607v2.765zM49.63.03L.01 24.471v11.48h5.553v34.436h87.76V35.951h6.669V24.47L49.63.03zm32.956 59.985H16.302V28.544L49.63 11.51l32.956 17.033v31.472z"/><path d="M64.809 39.65H34.078V28.544h30.73V39.65h.001zm0 15.93H34.078V44.466h30.73V55.58h.001z"/></g></svg>