<?xml version="1.0" encoding="utf-8"?>
<!-- Generator: Adobe Illustrator 19.2.1, SVG Export Plug-In . SVG Version: 6.00 Build 0)  -->
<svg version="1.1" id="Layer_1" xmlns="http://www.w3.org/2000/svg" xmlns:xlink="http://www.w3.org/1999/xlink" x="0px" y="0px"
	 viewBox="0 0 16 16" style="enable-background:new 0 0 16 16;" xml:space="preserve">
<style type="text/css">
	.st0{fill:#FFFFFF;}
</style>
<path class="st0" d="M6.3,12.9c-0.3,0-0.6-0.1-0.8-0.3L1.8,8.9C1.7,8.7,1.6,8.4,1.6,8.2c0-0.3,0.1-0.5,0.3-0.7
	C2,7.3,2.3,7.2,2.6,7.2h0.3l0.2,0.1c0.1,0,0.2,0.1,0.2,0.2l2.9,2.9L13,3.7c0.2-0.2,0.5-0.3,0.8-0.3c0.3,0,0.5,0.1,0.7,0.3
	c0.2,0.2,0.3,0.6,0.3,0.9c0,0.3-0.2,0.5-0.4,0.7L7,12.6C6.8,12.8,6.6,12.9,6.3,12.9z"/>
</svg>
