<?xml version="1.0" encoding="UTF-8"?>
<svg width="79px" height="72px" viewBox="0 0 79 72" version="1.1" xmlns="http://www.w3.org/2000/svg" xmlns:xlink="http://www.w3.org/1999/xlink">
    <!-- Generator: Sketch 53.2 (72643) - https://sketchapp.com -->
    <title>logo_portal</title>
    <desc>Created with Sketch.</desc>
    <g id="Page-1" stroke="none" stroke-width="1" fill="none" fill-rule="evenodd">
        <g id="logo_portal" fill="#2D82E8" fill-rule="nonzero">
            <path d="M69.4,24.7 L69.3,24.7 L69.3,62.6 L9.6,62.6 L9.6,24.7 L39.5,10.5 L69.4,24.7 Z M51,30.2 L41.9,30.2 L41.9,49 L51,49 L51,30.2 Z M28,30.2 L28,49 L37.1,49 L37.1,30.2 L28,30.2 Z M69.4,67.3 L9.7,67.3 L4.9,72 L74.3,72 L69.4,67.3 Z M79,18.7 L39.5,0 L23.2,7.7 L23.2,0 L14.1,0 L14.1,12 L0,18.7 L4.8,21.7 L39.5,5.2 L74.2,21.7 L79,18.7 Z" id="Shape"></path>
        </g>
    </g>
</svg>