<?xml version="1.0" encoding="utf-8"?>
<!-- Generator: Adobe Illustrator 19.2.1, SVG Export Plug-In . SVG Version: 6.00 Build 0)  -->
<svg version="1.1" id="Layer_1" xmlns="http://www.w3.org/2000/svg" xmlns:xlink="http://www.w3.org/1999/xlink" x="0px" y="0px"
	 viewBox="0 0 230 230" style="enable-background:new 0 0 230 230;" xml:space="preserve">
<style type="text/css">
	.st0{clip-path:url(#SVGID_2_);}
	.st1{clip-path:url(#SVGID_4_);fill:#DDE0E2;}
	.st2{clip-path:url(#SVGID_6_);fill:none;stroke:#545E65;stroke-width:2;stroke-linecap:round;stroke-miterlimit:10;}
	.st3{clip-path:url(#SVGID_8_);}
	.st4{clip-path:url(#SVGID_10_);fill:#D8F0C8;}
	.st5{clip-path:url(#SVGID_12_);fill:none;stroke:#545E65;stroke-width:2;stroke-linecap:round;stroke-miterlimit:10;}
	.st6{clip-path:url(#SVGID_14_);}
	.st7{clip-path:url(#SVGID_16_);fill:#C2E9F9;}
	.st8{clip-path:url(#SVGID_18_);fill:none;stroke:#545E65;stroke-width:2;stroke-linecap:round;stroke-miterlimit:10;}
	.st9{clip-path:url(#SVGID_20_);}
	.st10{clip-path:url(#SVGID_22_);fill:#FCF9DE;}
	.st11{clip-path:url(#SVGID_24_);fill:none;stroke:#545E65;stroke-width:2;stroke-linecap:round;stroke-miterlimit:10;}
	.st12{clip-path:url(#SVGID_26_);}
	.st13{clip-path:url(#SVGID_28_);fill:#FF5C47;}
	.st14{clip-path:url(#SVGID_30_);fill:none;stroke:#545E65;stroke-width:2;stroke-linecap:round;stroke-miterlimit:10;}
	.st15{clip-path:url(#SVGID_32_);}
	.st16{clip-path:url(#SVGID_34_);fill:#F6F6F6;}
	.st17{clip-path:url(#SVGID_36_);}
	.st18{clip-path:url(#SVGID_38_);fill:#C2E9F9;}
	.st19{clip-path:url(#SVGID_40_);fill:none;stroke:#545E65;stroke-width:4;stroke-miterlimit:10;}
	.st20{clip-path:url(#SVGID_42_);}
	.st21{clip-path:url(#SVGID_44_);fill:#F6F6F6;}
	.st22{clip-path:url(#SVGID_46_);}
	.st23{clip-path:url(#SVGID_48_);fill:#545E65;}
	.st24{clip-path:url(#SVGID_50_);fill:none;stroke:#545E65;stroke-width:2;stroke-miterlimit:10;}
	.st25{clip-path:url(#SVGID_50_);fill:none;stroke:#F6F6F6;stroke-width:2;stroke-miterlimit:10;}
	.st26{clip-path:url(#SVGID_52_);}
	.st27{clip-path:url(#SVGID_54_);fill:#F6F6F6;}
	.st28{clip-path:url(#SVGID_56_);}
	.st29{clip-path:url(#SVGID_58_);fill:#545E65;}
	.st30{clip-path:url(#SVGID_60_);fill:none;stroke:#545E65;stroke-width:2;stroke-miterlimit:10;}
	.st31{clip-path:url(#SVGID_60_);fill:none;stroke:#F6F6F6;stroke-width:2;stroke-miterlimit:10;}
	.st32{clip-path:url(#SVGID_62_);}
	.st33{clip-path:url(#SVGID_64_);fill:#F6F6F6;}
	.st34{clip-path:url(#SVGID_66_);}
	.st35{clip-path:url(#SVGID_68_);fill:#545E65;}
	.st36{clip-path:url(#SVGID_70_);fill:none;stroke:#545E65;stroke-width:2;stroke-miterlimit:10;}
	.st37{clip-path:url(#SVGID_70_);fill:none;stroke:#F6F6F6;stroke-width:2;stroke-miterlimit:10;}
	.st38{clip-path:url(#SVGID_72_);}
	.st39{clip-path:url(#SVGID_74_);fill:#F6F6F6;}
	.st40{clip-path:url(#SVGID_76_);}
	.st41{clip-path:url(#SVGID_78_);fill:#545E65;}
	.st42{clip-path:url(#SVGID_80_);fill:none;stroke:#545E65;stroke-width:2;stroke-miterlimit:10;}
	.st43{clip-path:url(#SVGID_80_);fill:none;stroke:#F6F6F6;stroke-width:2;stroke-miterlimit:10;}
	.st44{clip-path:url(#SVGID_82_);}
	.st45{clip-path:url(#SVGID_84_);fill:#F6F6F6;}
	.st46{clip-path:url(#SVGID_86_);}
	.st47{clip-path:url(#SVGID_88_);fill:#545E65;}
	.st48{clip-path:url(#SVGID_90_);fill:none;stroke:#545E65;stroke-width:2;stroke-miterlimit:10;}
	.st49{clip-path:url(#SVGID_90_);fill:none;stroke:#F6F6F6;stroke-width:2;stroke-miterlimit:10;}
	.st50{clip-path:url(#SVGID_92_);}
	.st51{clip-path:url(#SVGID_94_);fill:#F6F6F6;}
	.st52{clip-path:url(#SVGID_96_);}
	.st53{clip-path:url(#SVGID_98_);fill:#545E65;}
	.st54{clip-path:url(#SVGID_100_);fill:none;stroke:#545E65;stroke-width:2;stroke-miterlimit:10;}
	.st55{clip-path:url(#SVGID_100_);fill:none;stroke:#F6F6F6;stroke-width:2;stroke-miterlimit:10;}
	.st56{clip-path:url(#SVGID_102_);}
	.st57{clip-path:url(#SVGID_104_);fill:#F6F6F6;}
	.st58{clip-path:url(#SVGID_106_);}
	.st59{clip-path:url(#SVGID_108_);fill:#545E65;}
	.st60{clip-path:url(#SVGID_110_);fill:none;stroke:#545E65;stroke-width:2;stroke-miterlimit:10;}
	.st61{clip-path:url(#SVGID_110_);fill:none;stroke:#F6F6F6;stroke-width:2;stroke-miterlimit:10;}
	.st62{clip-path:url(#SVGID_112_);}
	.st63{clip-path:url(#SVGID_114_);fill:#F6F6F6;}
	.st64{clip-path:url(#SVGID_116_);}
	.st65{clip-path:url(#SVGID_118_);fill:#545E65;}
	.st66{clip-path:url(#SVGID_120_);fill:none;stroke:#545E65;stroke-width:2;stroke-miterlimit:10;}
	.st67{clip-path:url(#SVGID_120_);fill:none;stroke:#F6F6F6;stroke-width:2;stroke-miterlimit:10;}
	.st68{clip-path:url(#SVGID_122_);}
	.st69{clip-path:url(#SVGID_124_);fill:#F6F6F6;}
	.st70{clip-path:url(#SVGID_126_);}
	.st71{clip-path:url(#SVGID_128_);fill:#545E65;}
	.st72{clip-path:url(#SVGID_130_);fill:none;stroke:#545E65;stroke-width:2;stroke-miterlimit:10;}
	.st73{clip-path:url(#SVGID_130_);fill:none;stroke:#F6F6F6;stroke-width:2;stroke-miterlimit:10;}
	.st74{clip-path:url(#SVGID_132_);}
	.st75{clip-path:url(#SVGID_134_);fill:#F6F6F6;}
	.st76{clip-path:url(#SVGID_136_);}
	.st77{clip-path:url(#SVGID_138_);fill:#FCF9DE;}
	.st78{clip-path:url(#SVGID_140_);fill:none;stroke:#545E65;stroke-miterlimit:10;}
	.st79{clip-path:url(#SVGID_142_);}
	.st80{clip-path:url(#SVGID_144_);fill:#545E65;}
	.st81{clip-path:url(#SVGID_146_);}
	.st82{clip-path:url(#SVGID_148_);fill:#545E65;}
	.st83{clip-path:url(#SVGID_150_);fill:none;stroke:#545E65;stroke-width:2;stroke-miterlimit:10;}
	.st84{clip-path:url(#SVGID_152_);}
	.st85{clip-path:url(#SVGID_154_);fill:#545E65;}
	.st86{clip-path:url(#SVGID_156_);}
	.st87{clip-path:url(#SVGID_158_);fill:#545E65;}
	.st88{clip-path:url(#SVGID_160_);}
	.st89{clip-path:url(#SVGID_162_);enable-background:new    ;}
	.st90{clip-path:url(#SVGID_164_);}
	.st91{clip-path:url(#SVGID_166_);}
	.st92{clip-path:url(#SVGID_168_);fill:#545E65;}
	.st93{clip-path:url(#SVGID_170_);fill:none;stroke:#545E65;stroke-width:2;stroke-miterlimit:10;}
	.st94{clip-path:url(#SVGID_172_);}
	.st95{clip-path:url(#SVGID_174_);fill:#FF5C47;}
	.st96{clip-path:url(#SVGID_176_);}
	.st97{clip-path:url(#SVGID_178_);fill:#FF5C47;}
	.st98{clip-path:url(#SVGID_180_);fill:none;stroke:#545E65;stroke-width:2;stroke-miterlimit:10;}
	.st99{clip-path:url(#SVGID_182_);}
	.st100{clip-path:url(#SVGID_184_);fill:#545E65;}
	.st101{clip-path:url(#SVGID_186_);}
	.st102{clip-path:url(#SVGID_188_);fill:#FF5C47;}
	.st103{clip-path:url(#SVGID_190_);}
	.st104{clip-path:url(#SVGID_192_);fill:#C2E9F9;}
	.st105{clip-path:url(#SVGID_194_);fill:none;stroke:#545E65;stroke-width:2;stroke-miterlimit:10;}
	.st106{clip-path:url(#SVGID_196_);}
	.st107{clip-path:url(#SVGID_198_);fill:#C2E9F9;}
	.st108{clip-path:url(#SVGID_200_);fill:none;stroke:#545E65;stroke-width:2;stroke-miterlimit:10;}
	.st109{clip-path:url(#SVGID_202_);}
	.st110{clip-path:url(#SVGID_204_);fill:#C2E9F9;}
	.st111{clip-path:url(#SVGID_206_);fill:none;stroke:#545E65;stroke-width:2;stroke-miterlimit:10;}
	.st112{clip-path:url(#SVGID_208_);}
	.st113{clip-path:url(#SVGID_210_);fill:#C2E9F9;}
	.st114{clip-path:url(#SVGID_212_);fill:none;stroke:#545E65;stroke-width:2;stroke-miterlimit:10;}
	.st115{clip-path:url(#SVGID_214_);}
	.st116{clip-path:url(#SVGID_216_);fill:#545E65;}
	.st117{clip-path:url(#SVGID_218_);fill:none;stroke:#545E65;stroke-width:2;stroke-miterlimit:10;}
	.st118{clip-path:url(#SVGID_220_);}
	.st119{clip-path:url(#SVGID_222_);fill:#C2E9F9;}
	.st120{clip-path:url(#SVGID_224_);fill:none;stroke:#545E65;stroke-width:2;stroke-miterlimit:10;}
	.st121{clip-path:url(#SVGID_226_);}
	.st122{clip-path:url(#SVGID_228_);fill:#545E65;}
	.st123{clip-path:url(#SVGID_230_);}
	.st124{clip-path:url(#SVGID_232_);fill:#545E65;}
	.st125{clip-path:url(#SVGID_234_);}
	.st126{clip-path:url(#SVGID_236_);fill:#545E65;}
	.st127{clip-path:url(#SVGID_238_);}
	.st128{clip-path:url(#SVGID_240_);fill:#C2E9F9;}
		.st129{clip-path:url(#SVGID_242_);fill:none;stroke:#C2E9F9;stroke-width:2;stroke-linecap:round;stroke-linejoin:round;stroke-miterlimit:10;}
</style>
<g>
	<defs>
		<path id="SVGID_1_" d="M146.5,177h-6v-20h6c2.2,0,4,1.8,4,4v12C150.5,175.2,148.7,177,146.5,177"/>
	</defs>
	<clipPath id="SVGID_2_">
		<use xlink:href="#SVGID_1_"  style="overflow:visible;"/>
	</clipPath>
	<g class="st0">
		<defs>
			<rect id="SVGID_3_" x="-245.5" y="-634" width="1400" height="2410"/>
		</defs>
		<clipPath id="SVGID_4_">
			<use xlink:href="#SVGID_3_"  style="overflow:visible;"/>
		</clipPath>
		<rect x="135.5" y="152" class="st1" width="20" height="30"/>
	</g>
</g>
<g>
	<defs>
		<rect id="SVGID_5_" x="-245.5" y="-634" width="1400" height="2410"/>
	</defs>
	<clipPath id="SVGID_6_">
		<use xlink:href="#SVGID_5_"  style="overflow:visible;"/>
	</clipPath>
	<path class="st2" d="M146.5,177h-6v-20h6c2.2,0,4,1.8,4,4v12C150.5,175.2,148.7,177,146.5,177z"/>
</g>
<g>
	<defs>
		<path id="SVGID_7_" d="M146.5,159h-6v-20h6c2.2,0,4,1.8,4,4v12C150.5,157.2,148.7,159,146.5,159"/>
	</defs>
	<clipPath id="SVGID_8_">
		<use xlink:href="#SVGID_7_"  style="overflow:visible;"/>
	</clipPath>
	<g class="st3">
		<defs>
			<rect id="SVGID_9_" x="-245.5" y="-634" width="1400" height="2410"/>
		</defs>
		<clipPath id="SVGID_10_">
			<use xlink:href="#SVGID_9_"  style="overflow:visible;"/>
		</clipPath>
		<rect x="135.5" y="134" class="st4" width="20" height="30"/>
	</g>
</g>
<g>
	<defs>
		<rect id="SVGID_11_" x="-245.5" y="-634" width="1400" height="2410"/>
	</defs>
	<clipPath id="SVGID_12_">
		<use xlink:href="#SVGID_11_"  style="overflow:visible;"/>
	</clipPath>
	<path class="st5" d="M146.5,159h-6v-20h6c2.2,0,4,1.8,4,4v12C150.5,157.2,148.7,159,146.5,159z"/>
</g>
<g>
	<defs>
		<path id="SVGID_13_" d="M146.5,141h-6v-20h6c2.2,0,4,1.8,4,4v12C150.5,139.2,148.7,141,146.5,141"/>
	</defs>
	<clipPath id="SVGID_14_">
		<use xlink:href="#SVGID_13_"  style="overflow:visible;"/>
	</clipPath>
	<g class="st6">
		<defs>
			<rect id="SVGID_15_" x="-245.5" y="-634" width="1400" height="2410"/>
		</defs>
		<clipPath id="SVGID_16_">
			<use xlink:href="#SVGID_15_"  style="overflow:visible;"/>
		</clipPath>
		<rect x="135.5" y="116" class="st7" width="20" height="30"/>
	</g>
</g>
<g>
	<defs>
		<rect id="SVGID_17_" x="-245.5" y="-634" width="1400" height="2410"/>
	</defs>
	<clipPath id="SVGID_18_">
		<use xlink:href="#SVGID_17_"  style="overflow:visible;"/>
	</clipPath>
	<path class="st8" d="M146.5,141h-6v-20h6c2.2,0,4,1.8,4,4v12C150.5,139.2,148.7,141,146.5,141z"/>
</g>
<g>
	<defs>
		<path id="SVGID_19_" d="M146.5,123h-6v-20h6c2.2,0,4,1.8,4,4v12C150.5,121.2,148.7,123,146.5,123"/>
	</defs>
	<clipPath id="SVGID_20_">
		<use xlink:href="#SVGID_19_"  style="overflow:visible;"/>
	</clipPath>
	<g class="st9">
		<defs>
			<rect id="SVGID_21_" x="-245.5" y="-634" width="1400" height="2410"/>
		</defs>
		<clipPath id="SVGID_22_">
			<use xlink:href="#SVGID_21_"  style="overflow:visible;"/>
		</clipPath>
		<rect x="135.5" y="98" class="st10" width="20" height="30"/>
	</g>
</g>
<g>
	<defs>
		<rect id="SVGID_23_" x="-245.5" y="-634" width="1400" height="2410"/>
	</defs>
	<clipPath id="SVGID_24_">
		<use xlink:href="#SVGID_23_"  style="overflow:visible;"/>
	</clipPath>
	<path class="st11" d="M146.5,123h-6v-20h6c2.2,0,4,1.8,4,4v12C150.5,121.2,148.7,123,146.5,123z"/>
</g>
<g>
	<defs>
		<path id="SVGID_25_" d="M146.5,105h-6V85h6c2.2,0,4,1.8,4,4v12C150.5,103.2,148.7,105,146.5,105"/>
	</defs>
	<clipPath id="SVGID_26_">
		<use xlink:href="#SVGID_25_"  style="overflow:visible;"/>
	</clipPath>
	<g class="st12">
		<defs>
			<rect id="SVGID_27_" x="-245.5" y="-634" width="1400" height="2410"/>
		</defs>
		<clipPath id="SVGID_28_">
			<use xlink:href="#SVGID_27_"  style="overflow:visible;"/>
		</clipPath>
		<rect x="135.5" y="80" class="st13" width="20" height="30"/>
	</g>
</g>
<g>
	<defs>
		<rect id="SVGID_29_" x="-245.5" y="-634" width="1400" height="2410"/>
	</defs>
	<clipPath id="SVGID_30_">
		<use xlink:href="#SVGID_29_"  style="overflow:visible;"/>
	</clipPath>
	<path class="st14" d="M146.5,105h-6V85h6c2.2,0,4,1.8,4,4v12C150.5,103.2,148.7,105,146.5,105z"/>
</g>
<g>
	<defs>
		<path id="SVGID_31_" d="M140.5,187V75c0-3.3-2.7-6-6-6h-98c-3.3,0-6,2.7-6,6v112c0,3.3,2.7,6,6,6h98
			C137.8,193,140.5,190.3,140.5,187"/>
	</defs>
	<clipPath id="SVGID_32_">
		<use xlink:href="#SVGID_31_"  style="overflow:visible;"/>
	</clipPath>
	<g class="st15">
		<defs>
			<rect id="SVGID_33_" x="-245.5" y="-634" width="1400" height="2410"/>
		</defs>
		<clipPath id="SVGID_34_">
			<use xlink:href="#SVGID_33_"  style="overflow:visible;"/>
		</clipPath>
		<rect x="25.5" y="64" class="st16" width="120" height="134"/>
	</g>
</g>
<g>
	<defs>
		<path id="SVGID_35_" d="M36.5,191c-1.1,0-2-0.9-2-2V75c0-1.1,0.9-2,2-2h100c1.1,0,2,0.9,2,2v114c0,1.1-0.9,2-2,2H36.5z"/>
	</defs>
	<clipPath id="SVGID_36_">
		<use xlink:href="#SVGID_35_"  style="overflow:visible;"/>
	</clipPath>
	<g class="st17">
		<defs>
			<rect id="SVGID_37_" x="-245.5" y="-634" width="1400" height="2410"/>
		</defs>
		<clipPath id="SVGID_38_">
			<use xlink:href="#SVGID_37_"  style="overflow:visible;"/>
		</clipPath>
		<rect x="29.5" y="68" class="st18" width="114" height="128"/>
	</g>
</g>
<g>
	<defs>
		<rect id="SVGID_39_" x="-245.5" y="-634" width="1400" height="2410"/>
	</defs>
	<clipPath id="SVGID_40_">
		<use xlink:href="#SVGID_39_"  style="overflow:visible;"/>
	</clipPath>
	<path class="st19" d="M140.5,187V75c0-3.3-2.7-6-6-6h-98c-3.3,0-6,2.7-6,6v112c0,3.3,2.7,6,6,6h98C137.8,193,140.5,190.3,140.5,187
		z"/>
</g>
<g>
	<defs>
		<path id="SVGID_41_" d="M39.5,87c1.7,0,3-1.3,3-3s-1.3-3-3-3c-1.7,0-3,1.3-3,3S37.8,87,39.5,87"/>
	</defs>
	<clipPath id="SVGID_42_">
		<use xlink:href="#SVGID_41_"  style="overflow:visible;"/>
	</clipPath>
	<g class="st20">
		<defs>
			<rect id="SVGID_43_" x="-245.5" y="-634" width="1400" height="2410"/>
		</defs>
		<clipPath id="SVGID_44_">
			<use xlink:href="#SVGID_43_"  style="overflow:visible;"/>
		</clipPath>
		<rect x="31.5" y="76" class="st21" width="16" height="16"/>
	</g>
</g>
<g>
	<defs>
		<path id="SVGID_45_" d="M38.5,86c1.7,0,3-1.3,3-3s-1.3-3-3-3s-3,1.3-3,3S36.8,86,38.5,86"/>
	</defs>
	<clipPath id="SVGID_46_">
		<use xlink:href="#SVGID_45_"  style="overflow:visible;"/>
	</clipPath>
	<g class="st22">
		<defs>
			<rect id="SVGID_47_" x="-245.5" y="-634" width="1400" height="2410"/>
		</defs>
		<clipPath id="SVGID_48_">
			<use xlink:href="#SVGID_47_"  style="overflow:visible;"/>
		</clipPath>
		<rect x="30.5" y="75" class="st23" width="16" height="16"/>
	</g>
</g>
<g>
	<defs>
		<rect id="SVGID_49_" x="-245.5" y="-634" width="1400" height="2410"/>
	</defs>
	<clipPath id="SVGID_50_">
		<use xlink:href="#SVGID_49_"  style="overflow:visible;"/>
	</clipPath>
	<line class="st24" x1="38.5" y1="84" x2="24.5" y2="84"/>
	<line class="st25" x1="38.5" y1="82" x2="24.5" y2="82"/>
</g>
<g>
	<defs>
		<path id="SVGID_51_" d="M39.5,99c1.7,0,3-1.3,3-3s-1.3-3-3-3c-1.7,0-3,1.3-3,3S37.8,99,39.5,99"/>
	</defs>
	<clipPath id="SVGID_52_">
		<use xlink:href="#SVGID_51_"  style="overflow:visible;"/>
	</clipPath>
	<g class="st26">
		<defs>
			<rect id="SVGID_53_" x="-245.5" y="-634" width="1400" height="2410"/>
		</defs>
		<clipPath id="SVGID_54_">
			<use xlink:href="#SVGID_53_"  style="overflow:visible;"/>
		</clipPath>
		<rect x="31.5" y="88" class="st27" width="16" height="16"/>
	</g>
</g>
<g>
	<defs>
		<path id="SVGID_55_" d="M38.5,98c1.7,0,3-1.3,3-3s-1.3-3-3-3s-3,1.3-3,3S36.8,98,38.5,98"/>
	</defs>
	<clipPath id="SVGID_56_">
		<use xlink:href="#SVGID_55_"  style="overflow:visible;"/>
	</clipPath>
	<g class="st28">
		<defs>
			<rect id="SVGID_57_" x="-245.5" y="-634" width="1400" height="2410"/>
		</defs>
		<clipPath id="SVGID_58_">
			<use xlink:href="#SVGID_57_"  style="overflow:visible;"/>
		</clipPath>
		<rect x="30.5" y="87" class="st29" width="16" height="16"/>
	</g>
</g>
<g>
	<defs>
		<rect id="SVGID_59_" x="-245.5" y="-634" width="1400" height="2410"/>
	</defs>
	<clipPath id="SVGID_60_">
		<use xlink:href="#SVGID_59_"  style="overflow:visible;"/>
	</clipPath>
	<line class="st30" x1="38.5" y1="96" x2="24.5" y2="96"/>
	<line class="st31" x1="38.5" y1="94" x2="24.5" y2="94"/>
</g>
<g>
	<defs>
		<path id="SVGID_61_" d="M39.5,111c1.7,0,3-1.3,3-3c0-1.7-1.3-3-3-3c-1.7,0-3,1.3-3,3C36.5,109.7,37.8,111,39.5,111"/>
	</defs>
	<clipPath id="SVGID_62_">
		<use xlink:href="#SVGID_61_"  style="overflow:visible;"/>
	</clipPath>
	<g class="st32">
		<defs>
			<rect id="SVGID_63_" x="-245.5" y="-634" width="1400" height="2410"/>
		</defs>
		<clipPath id="SVGID_64_">
			<use xlink:href="#SVGID_63_"  style="overflow:visible;"/>
		</clipPath>
		<rect x="31.5" y="100" class="st33" width="16" height="16"/>
	</g>
</g>
<g>
	<defs>
		<path id="SVGID_65_" d="M38.5,110c1.7,0,3-1.3,3-3c0-1.7-1.3-3-3-3s-3,1.3-3,3C35.5,108.7,36.8,110,38.5,110"/>
	</defs>
	<clipPath id="SVGID_66_">
		<use xlink:href="#SVGID_65_"  style="overflow:visible;"/>
	</clipPath>
	<g class="st34">
		<defs>
			<rect id="SVGID_67_" x="-245.5" y="-634" width="1400" height="2410"/>
		</defs>
		<clipPath id="SVGID_68_">
			<use xlink:href="#SVGID_67_"  style="overflow:visible;"/>
		</clipPath>
		<rect x="30.5" y="99" class="st35" width="16" height="16"/>
	</g>
</g>
<g>
	<defs>
		<rect id="SVGID_69_" x="-245.5" y="-634" width="1400" height="2410"/>
	</defs>
	<clipPath id="SVGID_70_">
		<use xlink:href="#SVGID_69_"  style="overflow:visible;"/>
	</clipPath>
	<line class="st36" x1="38.5" y1="108" x2="24.5" y2="108"/>
	<line class="st37" x1="38.5" y1="106" x2="24.5" y2="106"/>
</g>
<g>
	<defs>
		<path id="SVGID_71_" d="M39.5,123c1.7,0,3-1.3,3-3s-1.3-3-3-3c-1.7,0-3,1.3-3,3S37.8,123,39.5,123"/>
	</defs>
	<clipPath id="SVGID_72_">
		<use xlink:href="#SVGID_71_"  style="overflow:visible;"/>
	</clipPath>
	<g class="st38">
		<defs>
			<rect id="SVGID_73_" x="-245.5" y="-634" width="1400" height="2410"/>
		</defs>
		<clipPath id="SVGID_74_">
			<use xlink:href="#SVGID_73_"  style="overflow:visible;"/>
		</clipPath>
		<rect x="31.5" y="112" class="st39" width="16" height="16"/>
	</g>
</g>
<g>
	<defs>
		<path id="SVGID_75_" d="M38.5,122c1.7,0,3-1.3,3-3c0-1.7-1.3-3-3-3s-3,1.3-3,3C35.5,120.7,36.8,122,38.5,122"/>
	</defs>
	<clipPath id="SVGID_76_">
		<use xlink:href="#SVGID_75_"  style="overflow:visible;"/>
	</clipPath>
	<g class="st40">
		<defs>
			<rect id="SVGID_77_" x="-245.5" y="-634" width="1400" height="2410"/>
		</defs>
		<clipPath id="SVGID_78_">
			<use xlink:href="#SVGID_77_"  style="overflow:visible;"/>
		</clipPath>
		<rect x="30.5" y="111" class="st41" width="16" height="16"/>
	</g>
</g>
<g>
	<defs>
		<rect id="SVGID_79_" x="-245.5" y="-634" width="1400" height="2410"/>
	</defs>
	<clipPath id="SVGID_80_">
		<use xlink:href="#SVGID_79_"  style="overflow:visible;"/>
	</clipPath>
	<line class="st42" x1="38.5" y1="120" x2="24.5" y2="120"/>
	<line class="st43" x1="38.5" y1="118" x2="24.5" y2="118"/>
</g>
<g>
	<defs>
		<path id="SVGID_81_" d="M39.5,135c1.7,0,3-1.3,3-3s-1.3-3-3-3c-1.7,0-3,1.3-3,3S37.8,135,39.5,135"/>
	</defs>
	<clipPath id="SVGID_82_">
		<use xlink:href="#SVGID_81_"  style="overflow:visible;"/>
	</clipPath>
	<g class="st44">
		<defs>
			<rect id="SVGID_83_" x="-245.5" y="-634" width="1400" height="2410"/>
		</defs>
		<clipPath id="SVGID_84_">
			<use xlink:href="#SVGID_83_"  style="overflow:visible;"/>
		</clipPath>
		<rect x="31.5" y="124" class="st45" width="16" height="16"/>
	</g>
</g>
<g>
	<defs>
		<path id="SVGID_85_" d="M38.5,134c1.7,0,3-1.3,3-3s-1.3-3-3-3s-3,1.3-3,3S36.8,134,38.5,134"/>
	</defs>
	<clipPath id="SVGID_86_">
		<use xlink:href="#SVGID_85_"  style="overflow:visible;"/>
	</clipPath>
	<g class="st46">
		<defs>
			<rect id="SVGID_87_" x="-245.5" y="-634" width="1400" height="2410"/>
		</defs>
		<clipPath id="SVGID_88_">
			<use xlink:href="#SVGID_87_"  style="overflow:visible;"/>
		</clipPath>
		<rect x="30.5" y="123" class="st47" width="16" height="16"/>
	</g>
</g>
<g>
	<defs>
		<rect id="SVGID_89_" x="-245.5" y="-634" width="1400" height="2410"/>
	</defs>
	<clipPath id="SVGID_90_">
		<use xlink:href="#SVGID_89_"  style="overflow:visible;"/>
	</clipPath>
	<line class="st48" x1="38.5" y1="132" x2="24.5" y2="132"/>
	<line class="st49" x1="38.5" y1="130" x2="24.5" y2="130"/>
</g>
<g>
	<defs>
		<path id="SVGID_91_" d="M39.5,147c1.7,0,3-1.3,3-3c0-1.7-1.3-3-3-3c-1.7,0-3,1.3-3,3C36.5,145.7,37.8,147,39.5,147"/>
	</defs>
	<clipPath id="SVGID_92_">
		<use xlink:href="#SVGID_91_"  style="overflow:visible;"/>
	</clipPath>
	<g class="st50">
		<defs>
			<rect id="SVGID_93_" x="-245.5" y="-634" width="1400" height="2410"/>
		</defs>
		<clipPath id="SVGID_94_">
			<use xlink:href="#SVGID_93_"  style="overflow:visible;"/>
		</clipPath>
		<rect x="31.5" y="136" class="st51" width="16" height="16"/>
	</g>
</g>
<g>
	<defs>
		<path id="SVGID_95_" d="M38.5,146c1.7,0,3-1.3,3-3s-1.3-3-3-3s-3,1.3-3,3S36.8,146,38.5,146"/>
	</defs>
	<clipPath id="SVGID_96_">
		<use xlink:href="#SVGID_95_"  style="overflow:visible;"/>
	</clipPath>
	<g class="st52">
		<defs>
			<rect id="SVGID_97_" x="-245.5" y="-634" width="1400" height="2410"/>
		</defs>
		<clipPath id="SVGID_98_">
			<use xlink:href="#SVGID_97_"  style="overflow:visible;"/>
		</clipPath>
		<rect x="30.5" y="135" class="st53" width="16" height="16"/>
	</g>
</g>
<g>
	<defs>
		<rect id="SVGID_99_" x="-245.5" y="-634" width="1400" height="2410"/>
	</defs>
	<clipPath id="SVGID_100_">
		<use xlink:href="#SVGID_99_"  style="overflow:visible;"/>
	</clipPath>
	<line class="st54" x1="38.5" y1="144" x2="24.5" y2="144"/>
	<line class="st55" x1="38.5" y1="142" x2="24.5" y2="142"/>
</g>
<g>
	<defs>
		<path id="SVGID_101_" d="M39.5,159c1.7,0,3-1.3,3-3s-1.3-3-3-3c-1.7,0-3,1.3-3,3S37.8,159,39.5,159"/>
	</defs>
	<clipPath id="SVGID_102_">
		<use xlink:href="#SVGID_101_"  style="overflow:visible;"/>
	</clipPath>
	<g class="st56">
		<defs>
			<rect id="SVGID_103_" x="-245.5" y="-634" width="1400" height="2410"/>
		</defs>
		<clipPath id="SVGID_104_">
			<use xlink:href="#SVGID_103_"  style="overflow:visible;"/>
		</clipPath>
		<rect x="31.5" y="148" class="st57" width="16" height="16"/>
	</g>
</g>
<g>
	<defs>
		<path id="SVGID_105_" d="M38.5,158c1.7,0,3-1.3,3-3c0-1.7-1.3-3-3-3s-3,1.3-3,3C35.5,156.7,36.8,158,38.5,158"/>
	</defs>
	<clipPath id="SVGID_106_">
		<use xlink:href="#SVGID_105_"  style="overflow:visible;"/>
	</clipPath>
	<g class="st58">
		<defs>
			<rect id="SVGID_107_" x="-245.5" y="-634" width="1400" height="2410"/>
		</defs>
		<clipPath id="SVGID_108_">
			<use xlink:href="#SVGID_107_"  style="overflow:visible;"/>
		</clipPath>
		<rect x="30.5" y="147" class="st59" width="16" height="16"/>
	</g>
</g>
<g>
	<defs>
		<rect id="SVGID_109_" x="-245.5" y="-634" width="1400" height="2410"/>
	</defs>
	<clipPath id="SVGID_110_">
		<use xlink:href="#SVGID_109_"  style="overflow:visible;"/>
	</clipPath>
	<line class="st60" x1="38.5" y1="156" x2="24.5" y2="156"/>
	<line class="st61" x1="38.5" y1="154" x2="24.5" y2="154"/>
</g>
<g>
	<defs>
		<path id="SVGID_111_" d="M39.5,171c1.7,0,3-1.3,3-3s-1.3-3-3-3c-1.7,0-3,1.3-3,3S37.8,171,39.5,171"/>
	</defs>
	<clipPath id="SVGID_112_">
		<use xlink:href="#SVGID_111_"  style="overflow:visible;"/>
	</clipPath>
	<g class="st62">
		<defs>
			<rect id="SVGID_113_" x="-245.5" y="-634" width="1400" height="2410"/>
		</defs>
		<clipPath id="SVGID_114_">
			<use xlink:href="#SVGID_113_"  style="overflow:visible;"/>
		</clipPath>
		<rect x="31.5" y="160" class="st63" width="16" height="16"/>
	</g>
</g>
<g>
	<defs>
		<path id="SVGID_115_" d="M38.5,170c1.7,0,3-1.3,3-3s-1.3-3-3-3s-3,1.3-3,3S36.8,170,38.5,170"/>
	</defs>
	<clipPath id="SVGID_116_">
		<use xlink:href="#SVGID_115_"  style="overflow:visible;"/>
	</clipPath>
	<g class="st64">
		<defs>
			<rect id="SVGID_117_" x="-245.5" y="-634" width="1400" height="2410"/>
		</defs>
		<clipPath id="SVGID_118_">
			<use xlink:href="#SVGID_117_"  style="overflow:visible;"/>
		</clipPath>
		<rect x="30.5" y="159" class="st65" width="16" height="16"/>
	</g>
</g>
<g>
	<defs>
		<rect id="SVGID_119_" x="-245.5" y="-634" width="1400" height="2410"/>
	</defs>
	<clipPath id="SVGID_120_">
		<use xlink:href="#SVGID_119_"  style="overflow:visible;"/>
	</clipPath>
	<line class="st66" x1="38.5" y1="168" x2="24.5" y2="168"/>
	<line class="st67" x1="38.5" y1="166" x2="24.5" y2="166"/>
</g>
<g>
	<defs>
		<path id="SVGID_121_" d="M39.5,183c1.7,0,3-1.3,3-3s-1.3-3-3-3c-1.7,0-3,1.3-3,3S37.8,183,39.5,183"/>
	</defs>
	<clipPath id="SVGID_122_">
		<use xlink:href="#SVGID_121_"  style="overflow:visible;"/>
	</clipPath>
	<g class="st68">
		<defs>
			<rect id="SVGID_123_" x="-245.5" y="-634" width="1400" height="2410"/>
		</defs>
		<clipPath id="SVGID_124_">
			<use xlink:href="#SVGID_123_"  style="overflow:visible;"/>
		</clipPath>
		<rect x="31.5" y="172" class="st69" width="16" height="16"/>
	</g>
</g>
<g>
	<defs>
		<path id="SVGID_125_" d="M38.5,182c1.7,0,3-1.3,3-3s-1.3-3-3-3s-3,1.3-3,3S36.8,182,38.5,182"/>
	</defs>
	<clipPath id="SVGID_126_">
		<use xlink:href="#SVGID_125_"  style="overflow:visible;"/>
	</clipPath>
	<g class="st70">
		<defs>
			<rect id="SVGID_127_" x="-245.5" y="-634" width="1400" height="2410"/>
		</defs>
		<clipPath id="SVGID_128_">
			<use xlink:href="#SVGID_127_"  style="overflow:visible;"/>
		</clipPath>
		<rect x="30.5" y="171" class="st71" width="16" height="16"/>
	</g>
</g>
<g>
	<defs>
		<rect id="SVGID_129_" x="-245.5" y="-634" width="1400" height="2410"/>
	</defs>
	<clipPath id="SVGID_130_">
		<use xlink:href="#SVGID_129_"  style="overflow:visible;"/>
	</clipPath>
	<line class="st72" x1="38.5" y1="180" x2="24.5" y2="180"/>
	<line class="st73" x1="38.5" y1="178" x2="24.5" y2="178"/>
</g>
<g>
	<defs>
		<path id="SVGID_131_" d="M126.5,230c-4.4,0-8-3.6-8-8v-44c0-4.4,3.6-8,8-8h71c4.4,0,8,3.6,8,8v44c0,4.4-3.6,8-8,8H126.5z"/>
	</defs>
	<clipPath id="SVGID_132_">
		<use xlink:href="#SVGID_131_"  style="overflow:visible;"/>
	</clipPath>
	<g class="st74">
		<defs>
			<rect id="SVGID_133_" x="-245.5" y="-634" width="1400" height="2410"/>
		</defs>
		<clipPath id="SVGID_134_">
			<use xlink:href="#SVGID_133_"  style="overflow:visible;"/>
		</clipPath>
		<rect x="113.5" y="165" class="st75" width="97" height="70"/>
	</g>
</g>
<g>
	<defs>
		<rect id="SVGID_135_" x="126.5" y="178" width="73" height="46"/>
	</defs>
	<clipPath id="SVGID_136_">
		<use xlink:href="#SVGID_135_"  style="overflow:visible;"/>
	</clipPath>
	<g class="st76">
		<defs>
			<rect id="SVGID_137_" x="-245.5" y="-634" width="1400" height="2410"/>
		</defs>
		<clipPath id="SVGID_138_">
			<use xlink:href="#SVGID_137_"  style="overflow:visible;"/>
		</clipPath>
		<rect x="121.5" y="173" class="st77" width="83" height="56"/>
	</g>
</g>
<g>
	<defs>
		<rect id="SVGID_139_" x="-245.5" y="-634" width="1400" height="2410"/>
	</defs>
	<clipPath id="SVGID_140_">
		<use xlink:href="#SVGID_139_"  style="overflow:visible;"/>
	</clipPath>
	<line class="st78" x1="161" y1="179" x2="161" y2="225"/>
</g>
<g>
	<defs>
		<path id="SVGID_141_" d="M167.8,191.4c2.9-0.9,5.7-1.9,8.6-2.8c0.9-0.3,0.5-1.7-0.4-1.4c-2.9,0.9-5.7,1.9-8.6,2.8
			C166.5,190.3,166.9,191.7,167.8,191.4"/>
	</defs>
	<clipPath id="SVGID_142_">
		<use xlink:href="#SVGID_141_"  style="overflow:visible;"/>
	</clipPath>
	<g class="st79">
		<defs>
			<rect id="SVGID_143_" x="-245.5" y="-634" width="1400" height="2410"/>
		</defs>
		<clipPath id="SVGID_144_">
			<use xlink:href="#SVGID_143_"  style="overflow:visible;"/>
		</clipPath>
		<rect x="161.9" y="182.1" class="st80" width="20" height="14.3"/>
	</g>
</g>
<g>
	<defs>
		<path id="SVGID_145_" d="M179.9,192.4c1.9,0,3.8-0.2,5.7-0.7c0.9-0.2,0.5-1.7-0.4-1.4c-1.7,0.4-3.5,0.6-5.3,0.6
			C178.9,190.9,178.9,192.4,179.9,192.4"/>
	</defs>
	<clipPath id="SVGID_146_">
		<use xlink:href="#SVGID_145_"  style="overflow:visible;"/>
	</clipPath>
	<g class="st81">
		<defs>
			<rect id="SVGID_147_" x="-245.5" y="-634" width="1400" height="2410"/>
		</defs>
		<clipPath id="SVGID_148_">
			<use xlink:href="#SVGID_147_"  style="overflow:visible;"/>
		</clipPath>
		<rect x="174.1" y="185.3" class="st82" width="17" height="12.1"/>
	</g>
</g>
<g>
	<defs>
		<rect id="SVGID_149_" x="-245.5" y="-634" width="1400" height="2410"/>
	</defs>
	<clipPath id="SVGID_150_">
		<use xlink:href="#SVGID_149_"  style="overflow:visible;"/>
	</clipPath>
	<path class="st83" d="M126.5,225h71c1.7,0,3-1.3,3-3v-44c0-1.7-1.3-3-3-3h-71c-1.7,0-3,1.3-3,3v44C123.5,223.7,124.8,225,126.5,225
		z"/>
</g>
<g>
	<defs>
		<path id="SVGID_151_" d="M176.4,188.5c0.9-0.3,0.5-1.7-0.4-1.4c-2.9,0.9-5.7,1.9-8.6,2.8c-0.9,0.3-0.5,1.7,0.4,1.4
			c0.3-0.1,0.5-0.2,0.8-0.3c-0.8,2.5-1.5,4.9-2.1,7.4c-0.2,0.7,0.7,1.3,1.3,0.7c0.7-0.7,1.4-1.4,2.3-1.9c0.8-0.5,1.6-1.4,2.2-0.5
			c1.4,2.1-2.3,6.5-4,7.1c0.9-0.3,0.5-1.8-0.4-1.4c-1.2,0.4-1.1,1.7-0.1,2.3c2.4,1.4,4.7-2.4,5.4-4c0.7-1.4,1.8-5-0.3-5.9
			c-1.2-0.5-2.9,0.5-4.2,1.6c0.5-2,1.1-3.9,1.7-5.9C172.4,189.8,174.4,189.2,176.4,188.5"/>
	</defs>
	<clipPath id="SVGID_152_">
		<use xlink:href="#SVGID_151_"  style="overflow:visible;"/>
	</clipPath>
	<g class="st84">
		<defs>
			<rect id="SVGID_153_" x="-245.5" y="-634" width="1400" height="2410"/>
		</defs>
		<clipPath id="SVGID_154_">
			<use xlink:href="#SVGID_153_"  style="overflow:visible;"/>
		</clipPath>
		<rect x="161.5" y="182" class="st85" width="20.5" height="28"/>
	</g>
</g>
<g>
	<defs>
		<path id="SVGID_155_" d="M185.2,190.2c-1.7,0.4-3.5,0.6-5.3,0.6c-0.6,0-0.8,0.6-0.7,1.1c0,0,0,0,0,0c-0.8,2.3-1.6,4.6-2.5,7
			c-0.2,0.7,0.8,1.3,1.3,0.7c0.4-0.6,1.4-1.9,2.1-1.9c2.6-0.1,1.7,5.5-1.6,4.9c-0.9-0.2-1.3,1.3-0.4,1.4c3.3,0.6,5.8-2.7,5.1-5.8
			c-0.6-2.6-2.4-2.5-4-1.5c0.5-1.4,1-2.9,1.5-4.3c1.7,0,3.3-0.3,4.9-0.6C186.5,191.4,186.1,190,185.2,190.2"/>
	</defs>
	<clipPath id="SVGID_156_">
		<use xlink:href="#SVGID_155_"  style="overflow:visible;"/>
	</clipPath>
	<g class="st86">
		<defs>
			<rect id="SVGID_157_" x="-245.5" y="-634" width="1400" height="2410"/>
		</defs>
		<clipPath id="SVGID_158_">
			<use xlink:href="#SVGID_157_"  style="overflow:visible;"/>
		</clipPath>
		<rect x="171.7" y="185.2" class="st87" width="19.4" height="23.8"/>
	</g>
</g>
<g>
	<defs>
		<polyline id="SVGID_159_" points="166.5,187 193.7,187 193.7,205 166.5,205 		"/>
	</defs>
	<clipPath id="SVGID_160_">
		<use xlink:href="#SVGID_159_"  style="overflow:visible;"/>
	</clipPath>
	<g class="st88">
		<defs>
			<rect id="SVGID_161_" x="-245.5" y="-634" width="1400" height="2410"/>
		</defs>
		<clipPath id="SVGID_162_">
			<use xlink:href="#SVGID_161_"  style="overflow:visible;"/>
		</clipPath>
		<g class="st89">
			<g>
				<defs>
					<rect id="SVGID_163_" x="185.5" y="190" width="9" height="15"/>
				</defs>
				<clipPath id="SVGID_164_">
					<use xlink:href="#SVGID_163_"  style="overflow:visible;"/>
				</clipPath>
				<g class="st90">
					<defs>
						<path id="SVGID_165_" d="M190,198.3c-0.3,0-0.7,0.1-1,0.2c0.2-2.2,1.1-4.7,3.1-5.9c0.8-0.5,0.1-1.8-0.8-1.3
							c-2.7,1.5-4,5.1-4,8.1c-0.8,0.8-1.1,1.7,0.4,2.3c0.9,2.2,3.4,3.6,5.3,1.3C194.8,200.8,192.5,198.4,190,198.3 M191.2,202.7
							c-1.8,1.1-2.2-1.1-2.3-2.7c0.3-0.1,0.7-0.2,1.1-0.2C191.7,199.8,192.1,200.8,191.2,202.7"/>
					</defs>
					<clipPath id="SVGID_166_">
						<use xlink:href="#SVGID_165_"  style="overflow:visible;"/>
					</clipPath>
					<g class="st91">
						<defs>
							<rect id="SVGID_167_" x="166.5" y="187" width="28" height="18"/>
						</defs>
						<clipPath id="SVGID_168_">
							<use xlink:href="#SVGID_167_"  style="overflow:visible;"/>
						</clipPath>
						<rect x="181.7" y="186.2" class="st92" width="17" height="23.1"/>
					</g>
				</g>
			</g>
		</g>
	</g>
</g>
<g>
	<defs>
		<rect id="SVGID_169_" x="-245.5" y="-634" width="1400" height="2410"/>
	</defs>
	<clipPath id="SVGID_170_">
		<use xlink:href="#SVGID_169_"  style="overflow:visible;"/>
	</clipPath>
	<path class="st93" d="M191.5,91h-10v-5c0-1.1,0.9-2,2-2h6c1.1,0,2,0.9,2,2V91z"/>
	<path class="st93" d="M196.5,91h2c1.1,0,2,0.9,2,2v27"/>
</g>
<g>
	<defs>
		<rect id="SVGID_171_" x="182.5" y="94" width="11" height="36"/>
	</defs>
	<clipPath id="SVGID_172_">
		<use xlink:href="#SVGID_171_"  style="overflow:visible;"/>
	</clipPath>
	<g class="st94">
		<defs>
			<rect id="SVGID_173_" x="-245.5" y="-634" width="1400" height="2410"/>
		</defs>
		<clipPath id="SVGID_174_">
			<use xlink:href="#SVGID_173_"  style="overflow:visible;"/>
		</clipPath>
		<rect x="177.5" y="89" class="st95" width="21" height="46"/>
	</g>
</g>
<g>
	<defs>
		<polygon id="SVGID_175_" points="188.5,156 193.5,144 193.5,133 182.5,133 182.5,144 187.5,156 		"/>
	</defs>
	<clipPath id="SVGID_176_">
		<use xlink:href="#SVGID_175_"  style="overflow:visible;"/>
	</clipPath>
	<g class="st96">
		<defs>
			<rect id="SVGID_177_" x="-245.5" y="-634" width="1400" height="2410"/>
		</defs>
		<clipPath id="SVGID_178_">
			<use xlink:href="#SVGID_177_"  style="overflow:visible;"/>
		</clipPath>
		<rect x="177.5" y="128" class="st97" width="21" height="33"/>
	</g>
</g>
<g>
	<defs>
		<rect id="SVGID_179_" x="-245.5" y="-634" width="1400" height="2410"/>
	</defs>
	<clipPath id="SVGID_180_">
		<use xlink:href="#SVGID_179_"  style="overflow:visible;"/>
	</clipPath>
	<line class="st98" x1="186.5" y1="156" x2="186.5" y2="162"/>
	<rect x="179.5" y="91" class="st98" width="14" height="39"/>
	<polygon class="st98" points="179.5,130 179.5,144 184.5,156 188.5,156 193.5,144 193.5,130 	"/>
</g>
<g>
	<defs>
		<polygon id="SVGID_181_" points="124.1,13.3 131.6,0.4 139.1,13.3 		"/>
	</defs>
	<clipPath id="SVGID_182_">
		<use xlink:href="#SVGID_181_"  style="overflow:visible;"/>
	</clipPath>
	<g class="st99">
		<defs>
			<rect id="SVGID_183_" x="-245.5" y="-634" width="1400" height="2410"/>
		</defs>
		<clipPath id="SVGID_184_">
			<use xlink:href="#SVGID_183_"  style="overflow:visible;"/>
		</clipPath>
		<rect x="119.1" y="-4.6" class="st100" width="25" height="23"/>
	</g>
</g>
<g>
	<defs>
		<polygon id="SVGID_185_" points="168.1,33.5 174.1,30.1 180.1,33.5 180.1,40.5 174.1,43.9 168.1,40.5 		"/>
	</defs>
	<clipPath id="SVGID_186_">
		<use xlink:href="#SVGID_185_"  style="overflow:visible;"/>
	</clipPath>
	<g class="st101">
		<defs>
			<rect id="SVGID_187_" x="-245.5" y="-634" width="1400" height="2410"/>
		</defs>
		<clipPath id="SVGID_188_">
			<use xlink:href="#SVGID_187_"  style="overflow:visible;"/>
		</clipPath>
		<rect x="163.1" y="25.1" class="st102" width="22" height="23.9"/>
	</g>
</g>
<g>
	<defs>
		<path id="SVGID_189_" d="M86.5,153c-7.9,0-12.8-2.9-12.8-7.7c0-4.7,4.9-7.7,12.8-7.7s12.8,2.9,12.8,7.7
			C99.3,150,94.4,153,86.5,153"/>
	</defs>
	<clipPath id="SVGID_190_">
		<use xlink:href="#SVGID_189_"  style="overflow:visible;"/>
	</clipPath>
	<g class="st103">
		<defs>
			<rect id="SVGID_191_" x="-245.5" y="-634" width="1400" height="2410"/>
		</defs>
		<clipPath id="SVGID_192_">
			<use xlink:href="#SVGID_191_"  style="overflow:visible;"/>
		</clipPath>
		<rect x="68.7" y="132.6" class="st104" width="35.6" height="25.4"/>
	</g>
</g>
<g>
	<defs>
		<rect id="SVGID_193_" x="-245.5" y="-634" width="1400" height="2410"/>
	</defs>
	<clipPath id="SVGID_194_">
		<use xlink:href="#SVGID_193_"  style="overflow:visible;"/>
	</clipPath>
	<path class="st105" d="M86.5,153c-7.9,0-12.8-2.9-12.8-7.7c0-4.7,4.9-7.7,12.8-7.7c7.9,0,12.8,2.9,12.8,7.7
		C99.3,150,94.4,153,86.5,153z"/>
</g>
<g>
	<defs>
		<path id="SVGID_195_" d="M78.8,132.5v12.8c0,1.4,3.4,2.6,7.7,2.6c4.2,0,7.7-1.1,7.7-2.6v-12.8H78.8z"/>
	</defs>
	<clipPath id="SVGID_196_">
		<use xlink:href="#SVGID_195_"  style="overflow:visible;"/>
	</clipPath>
	<g class="st106">
		<defs>
			<rect id="SVGID_197_" x="-245.5" y="-634" width="1400" height="2410"/>
		</defs>
		<clipPath id="SVGID_198_">
			<use xlink:href="#SVGID_197_"  style="overflow:visible;"/>
		</clipPath>
		<rect x="73.8" y="127.5" class="st107" width="25.4" height="25.4"/>
	</g>
</g>
<g>
	<defs>
		<rect id="SVGID_199_" x="-245.5" y="-634" width="1400" height="2410"/>
	</defs>
	<clipPath id="SVGID_200_">
		<use xlink:href="#SVGID_199_"  style="overflow:visible;"/>
	</clipPath>
	<path class="st108" d="M78.8,132.5v12.8c0,1.4,3.4,2.6,7.7,2.6s7.7-1.1,7.7-2.6v-12.8H78.8z"/>
</g>
<g>
	<defs>
		<path id="SVGID_201_" d="M77.6,121.6c0,2.4-1.9,4.3-4.3,4.3c-2.4,0-4.3-2.8-4.3-5.2s1.9-3.4,4.3-3.4
			C75.7,117.3,77.6,119.3,77.6,121.6"/>
	</defs>
	<clipPath id="SVGID_202_">
		<use xlink:href="#SVGID_201_"  style="overflow:visible;"/>
	</clipPath>
	<g class="st109">
		<defs>
			<rect id="SVGID_203_" x="-245.5" y="-634" width="1400" height="2410"/>
		</defs>
		<clipPath id="SVGID_204_">
			<use xlink:href="#SVGID_203_"  style="overflow:visible;"/>
		</clipPath>
		<rect x="64" y="112.3" class="st110" width="18.6" height="18.6"/>
	</g>
</g>
<g>
	<defs>
		<rect id="SVGID_205_" x="-245.5" y="-634" width="1400" height="2410"/>
	</defs>
	<clipPath id="SVGID_206_">
		<use xlink:href="#SVGID_205_"  style="overflow:visible;"/>
	</clipPath>
	<path class="st111" d="M77.6,121.6c0,2.4-1.9,4.3-4.3,4.3s-4.3-2.8-4.3-5.2s1.9-3.4,4.3-3.4S77.6,119.3,77.6,121.6z"/>
</g>
<g>
	<defs>
		<path id="SVGID_207_" d="M95.4,121.2c0,2.4,1.9,4.3,4.3,4.3s4.3-2.8,4.3-5.2s-1.9-3.4-4.3-3.4S95.4,118.8,95.4,121.2"/>
	</defs>
	<clipPath id="SVGID_208_">
		<use xlink:href="#SVGID_207_"  style="overflow:visible;"/>
	</clipPath>
	<g class="st112">
		<defs>
			<rect id="SVGID_209_" x="-245.5" y="-634" width="1400" height="2410"/>
		</defs>
		<clipPath id="SVGID_210_">
			<use xlink:href="#SVGID_209_"  style="overflow:visible;"/>
		</clipPath>
		<rect x="90.4" y="111.9" class="st113" width="18.6" height="18.6"/>
	</g>
</g>
<g>
	<defs>
		<rect id="SVGID_211_" x="-245.5" y="-634" width="1400" height="2410"/>
	</defs>
	<clipPath id="SVGID_212_">
		<use xlink:href="#SVGID_211_"  style="overflow:visible;"/>
	</clipPath>
	<path class="st114" d="M95.4,121.2c0,2.4,1.9,4.3,4.3,4.3s4.3-2.8,4.3-5.2s-1.9-3.4-4.3-3.4S95.4,118.8,95.4,121.2z"/>
</g>
<g>
	<defs>
		<path id="SVGID_213_" d="M86.5,100.8c-7.6,0-13.8,6.6-13.8,14.7c0,8.1,6.2,14.7,13.8,14.7s13.8-6.6,13.8-14.7
			C100.3,107.4,94.1,100.8,86.5,100.8"/>
	</defs>
	<clipPath id="SVGID_214_">
		<use xlink:href="#SVGID_213_"  style="overflow:visible;"/>
	</clipPath>
	<g class="st115">
		<defs>
			<rect id="SVGID_215_" x="-245.5" y="-634" width="1400" height="2410"/>
		</defs>
		<clipPath id="SVGID_216_">
			<use xlink:href="#SVGID_215_"  style="overflow:visible;"/>
		</clipPath>
		<rect x="67.7" y="95.8" class="st116" width="37.6" height="39.5"/>
	</g>
</g>
<g>
	<defs>
		<rect id="SVGID_217_" x="-245.5" y="-634" width="1400" height="2410"/>
	</defs>
	<clipPath id="SVGID_218_">
		<use xlink:href="#SVGID_217_"  style="overflow:visible;"/>
	</clipPath>
	<ellipse class="st117" cx="86.5" cy="115.6" rx="13.8" ry="14.7"/>
</g>
<g>
	<defs>
		<path id="SVGID_219_" d="M95.9,108.8c-2.5-1.5-5.8-2.5-9.4-2.5s-6.9,0.9-9.4,2.5c-0.9,3-1.8,5.6-4.4,7.6v2.8
			c0,11,6.3,18.4,13.8,18.4s13.8-7.4,13.8-18.4v-2.8C97.7,114.5,96.8,111.8,95.9,108.8"/>
	</defs>
	<clipPath id="SVGID_220_">
		<use xlink:href="#SVGID_219_"  style="overflow:visible;"/>
	</clipPath>
	<g class="st118">
		<defs>
			<rect id="SVGID_221_" x="-245.5" y="-634" width="1400" height="2410"/>
		</defs>
		<clipPath id="SVGID_222_">
			<use xlink:href="#SVGID_221_"  style="overflow:visible;"/>
		</clipPath>
		<rect x="67.7" y="101.3" class="st119" width="37.6" height="41.3"/>
	</g>
</g>
<g>
	<defs>
		<rect id="SVGID_223_" x="-245.5" y="-634" width="1400" height="2410"/>
	</defs>
	<clipPath id="SVGID_224_">
		<use xlink:href="#SVGID_223_"  style="overflow:visible;"/>
	</clipPath>
	<path class="st120" d="M95.9,108.8c-2.5-1.5-5.8-2.5-9.4-2.5c-3.6,0-6.9,0.9-9.4,2.5c-0.9,3-1.8,5.6-4.4,7.6v2.8
		c0,11,6.3,18.4,13.8,18.4c7.5,0,13.8-7.4,13.8-18.4v-2.8C97.7,114.5,96.8,111.9,95.9,108.8z"/>
</g>
<g>
	<defs>
		<path id="SVGID_225_" d="M81,120.9c0,1.3-0.8,2.3-1.8,2.3c-1,0-1.8-1-1.8-2.3c0-1.3,0.8-2.3,1.8-2.3C80.2,118.6,81,119.6,81,120.9
			"/>
	</defs>
	<clipPath id="SVGID_226_">
		<use xlink:href="#SVGID_225_"  style="overflow:visible;"/>
	</clipPath>
	<g class="st121">
		<defs>
			<rect id="SVGID_227_" x="-245.5" y="-634" width="1400" height="2410"/>
		</defs>
		<clipPath id="SVGID_228_">
			<use xlink:href="#SVGID_227_"  style="overflow:visible;"/>
		</clipPath>
		<rect x="72.3" y="113.6" class="st122" width="13.7" height="14.6"/>
	</g>
</g>
<g>
	<defs>
		<path id="SVGID_229_" d="M95.7,120.9c0,1.3-0.8,2.3-1.8,2.3s-1.8-1-1.8-2.3c0-1.3,0.8-2.3,1.8-2.3S95.7,119.6,95.7,120.9"/>
	</defs>
	<clipPath id="SVGID_230_">
		<use xlink:href="#SVGID_229_"  style="overflow:visible;"/>
	</clipPath>
	<g class="st123">
		<defs>
			<rect id="SVGID_231_" x="-245.5" y="-634" width="1400" height="2410"/>
		</defs>
		<clipPath id="SVGID_232_">
			<use xlink:href="#SVGID_231_"  style="overflow:visible;"/>
		</clipPath>
		<rect x="87" y="113.6" class="st124" width="13.7" height="14.6"/>
	</g>
</g>
<g>
	<defs>
		<path id="SVGID_233_" d="M97.1,132.2c0,5.2-4.8,9.4-10.6,9.4c-5.9,0-10.6-4.2-10.6-9.4c0-5.2,4.5-5.8,10.4-5.8
			C92.1,126.4,97.1,127.1,97.1,132.2"/>
	</defs>
	<clipPath id="SVGID_234_">
		<use xlink:href="#SVGID_233_"  style="overflow:visible;"/>
	</clipPath>
	<g class="st125">
		<defs>
			<rect id="SVGID_235_" x="-245.5" y="-634" width="1400" height="2410"/>
		</defs>
		<clipPath id="SVGID_236_">
			<use xlink:href="#SVGID_235_"  style="overflow:visible;"/>
		</clipPath>
		<rect x="70.9" y="121.4" class="st126" width="31.2" height="25.2"/>
	</g>
</g>
<g>
	<defs>
		<path id="SVGID_237_" d="M83.2,130.4c1.8,2,4.8,2,6.6,0H83.2z"/>
	</defs>
	<clipPath id="SVGID_238_">
		<use xlink:href="#SVGID_237_"  style="overflow:visible;"/>
	</clipPath>
	<g class="st127">
		<defs>
			<rect id="SVGID_239_" x="-245.5" y="-634" width="1400" height="2410"/>
		</defs>
		<clipPath id="SVGID_240_">
			<use xlink:href="#SVGID_239_"  style="overflow:visible;"/>
		</clipPath>
		<rect x="78.2" y="125.4" class="st128" width="16.6" height="11.5"/>
	</g>
</g>
<g>
	<defs>
		<rect id="SVGID_241_" x="-245.5" y="-634" width="1400" height="2410"/>
	</defs>
	<clipPath id="SVGID_242_">
		<use xlink:href="#SVGID_241_"  style="overflow:visible;"/>
	</clipPath>
	<path class="st129" d="M83.2,130.4c1.8,2,4.8,2,6.6,0H83.2z"/>
</g>
</svg>
